<svg width="120" height="87" viewBox="0 0 120 87" fill="none" xmlns="http://www.w3.org/2000/svg">
<g clip-path="url(#clip0_47_2429)">
<path opacity="0.1" d="M117.967 69.5128C114.995 75.6251 108.957 79.7123 102.701 82.4077C97.6926 84.5515 92.3984 85.9594 86.9841 86.5874C85.9471 86.7101 84.9067 86.8052 83.863 86.8729C81.1961 87.0461 78.5205 87.0431 75.854 86.864C74.25 86.7576 72.6517 86.5878 71.0589 86.3543C65.5245 85.5497 60.1289 83.9839 55.0263 81.7018C53.5536 81.0408 52.1108 80.3193 50.6978 79.5372C48.3377 78.2336 46.0765 76.7599 43.932 75.1278C43.4575 74.7664 42.989 74.3973 42.5265 74.0204L42.3363 73.8654C41.9726 73.5665 41.6122 73.2609 41.2463 72.9643C40.6381 72.4566 39.9924 71.9951 39.3148 71.5837C39.2689 71.5569 39.2231 71.5302 39.1761 71.5045C39.0507 71.432 38.9232 71.364 38.7933 71.2993C38.5259 71.165 38.2518 71.0444 37.972 70.938C36.6795 70.4473 35.2952 70.2689 33.8919 70.299C33.6592 70.299 33.4264 70.3146 33.1925 70.3302C32.8657 70.3525 32.5379 70.386 32.2111 70.4284L32.0902 70.4451C31.049 70.5919 30.0195 70.8122 29.0095 71.1042C27.4496 71.5503 25.9176 72.1078 24.3755 72.6108C23.7209 72.826 23.0651 73.0312 22.4038 73.2152L22.2583 73.2554C21.3177 73.519 20.3602 73.7187 19.3924 73.8531C17.1932 74.1333 14.9595 73.954 12.8337 73.3267L12.7598 73.3055L12.6233 73.2654L12.4364 73.2074C12.1231 73.1093 11.8123 73.0018 11.5042 72.8851L11.3173 72.8138C11.0189 72.6993 10.7269 72.5762 10.4411 72.4446L10.2543 72.3599C9.95584 72.2216 9.66376 72.0755 9.37803 71.9216C9.27508 71.8681 9.17325 71.8101 9.07253 71.7554C8.76815 71.5859 8.46974 71.4083 8.17729 71.2224C7.86695 71.0254 7.56331 70.8198 7.26639 70.6057C7.12912 70.5075 6.99334 70.4068 6.85906 70.3035C6.08495 69.7134 5.36005 69.0619 4.69146 68.3552C4.65453 68.3184 4.61984 68.2805 4.58515 68.2437C4.40722 68.0519 4.23265 67.8568 4.06367 67.6571C4.00101 67.5835 3.93834 67.5099 3.87679 67.4341C3.67611 67.1902 3.48251 66.9408 3.296 66.6858C3.26803 66.649 3.24117 66.6111 3.21431 66.5743C2.44971 65.5205 1.81583 64.3785 1.32648 63.173C1.31081 63.1362 1.29627 63.0983 1.28284 63.0615C1.13363 62.6786 0.997479 62.2894 0.874384 61.8939C0.824026 61.7288 0.775907 61.5593 0.733383 61.3943C0.718836 61.3452 0.705407 61.295 0.693097 61.2459C0.0753826 58.8226 0.00488281 56.3034 0.00488281 53.7987C0.00488281 53.5066 0.00488281 53.2148 0.00488281 52.9233C0.0227876 48.8719 0.0854541 44.7513 0.685264 40.7555C0.685264 40.7277 0.693098 40.6998 0.697574 40.673C0.898327 39.3279 1.17139 37.9944 1.5156 36.6784C1.87584 35.2976 2.33624 33.9447 2.89315 32.6303C4.27293 29.3963 6.27939 26.4533 8.50741 23.7256C11.1931 20.4436 14.2705 17.4147 17.6982 14.9156C18.1905 14.5565 18.6896 14.2078 19.1954 13.8696L19.4293 13.7168C19.511 13.6621 19.5927 13.6053 19.6744 13.5573C19.8423 13.4458 20.0101 13.341 20.1802 13.235L20.3704 13.1168L20.733 12.8938L20.8449 12.8302L21.0385 12.7187L21.2299 12.6072C21.4537 12.4756 21.6801 12.347 21.9091 12.2213C22.8872 11.6778 23.8884 11.1812 24.9127 10.7314C25.2148 10.5983 25.5188 10.4701 25.8247 10.3467C27.2134 9.78306 28.6399 9.31689 30.0939 8.95159C30.631 8.81628 31.1715 8.69733 31.7154 8.59473C32.3569 8.47132 33.0019 8.36909 33.6502 8.28806C34.6818 8.1587 35.7194 8.08166 36.7589 8.05721C44.0685 7.8799 51.452 10.2508 57.1804 14.7952C59.4633 16.6062 61.5145 18.7507 64.0782 20.1391C66.3163 21.348 68.936 21.8487 71.333 20.8974C73.3138 20.1112 74.6029 19.7209 76.8276 19.8403C81.431 20.0987 85.9693 21.0445 90.2908 22.6461C90.4654 22.7096 90.64 22.7754 90.8134 22.8412C102.083 27.1403 111.773 35.677 116.807 46.6471C116.939 46.937 117.069 47.2292 117.195 47.5236C120.197 54.5102 121.281 62.7013 117.967 69.5128Z" fill="#2A3042"/>
<path opacity="0.1" d="M22.3998 30.9341V73.2174L22.2544 73.2576C21.3138 73.5213 20.3563 73.721 19.3885 73.8553C17.1893 74.1355 14.9556 73.9562 12.8297 73.329L12.7559 73.3078L12.6194 73.2676L12.4325 73.2096C12.1192 73.1115 11.8084 73.0041 11.5003 72.8873L11.3134 72.816C11.015 72.7015 10.723 72.5784 10.4372 72.4468L10.2503 72.3621C9.95193 72.2238 9.65986 72.0777 9.37413 71.9238C9.27117 71.8703 9.16934 71.8123 9.06863 71.7577C8.76424 71.5882 8.46583 71.4105 8.17339 71.2246C7.86304 71.0276 7.5594 70.822 7.26248 70.6079C7.12521 70.5098 6.98943 70.409 6.85515 70.3057C6.08104 69.7156 5.35614 69.0641 4.68755 68.3575C4.65062 68.3207 4.61593 68.2828 4.58124 68.2459C4.40331 68.0541 4.22874 67.859 4.05976 67.6594C3.9971 67.5858 3.93443 67.5122 3.87288 67.4363C3.6722 67.1925 3.47861 66.943 3.2921 66.688C3.26412 66.6512 3.23726 66.6133 3.21041 66.5765C2.4458 65.5228 1.81192 64.3807 1.32257 63.1752C1.30691 63.1384 1.29236 63.1005 1.27893 63.0637C1.12972 62.6808 0.993573 62.2916 0.870477 61.8961C0.82012 61.731 0.772001 61.5615 0.729477 61.3965C0.714929 61.3474 0.701501 61.2972 0.689191 61.2482C0.0714764 58.8249 0.000976562 56.3057 0.000976562 53.801C0.000976562 53.5088 0.000976562 53.217 0.000976562 52.9255C0.0188813 48.8741 0.0815478 44.7535 0.681358 40.7578C0.681358 40.7299 0.689191 40.702 0.693667 40.6752C0.89442 39.3301 1.16749 37.9966 1.51169 36.6806H12.9394V30.9341H15.2178V26.3183H20.1215V30.9341H22.3998Z" fill="#2A3042"/>
<path opacity="0.1" d="M117.967 69.5128C114.995 75.6251 108.956 79.7123 102.701 82.4077C97.6923 84.5515 92.3981 85.9594 86.9837 86.5874C85.9468 86.7101 84.9064 86.8052 83.8627 86.8729C81.1958 87.0461 78.5202 87.0431 75.8537 86.8639C74.2497 86.7576 72.6514 86.5878 71.0586 86.3543C65.5242 85.5497 60.1286 83.9839 55.026 81.7018C53.5533 81.0408 52.1105 80.3193 50.6975 79.5372C48.3374 78.2336 46.0762 76.7599 43.9317 75.1277C43.4573 74.7664 42.9887 74.3973 42.5262 74.0204L42.336 73.8654C41.9723 73.5665 41.6119 73.2609 41.246 72.9643C40.6378 72.4566 39.9921 71.9951 39.3145 71.5837C39.2687 71.5569 39.2228 71.5302 39.1758 71.5045C39.0504 71.432 38.9229 71.364 38.7931 71.2993C38.5256 71.165 38.2515 71.0444 37.9717 70.938V53.6404H58.7401V57.4911H67.8547V29.3238H78.583V40.5871H83.8896V33.9183H88.274V26.7945H90.2883V22.6461C90.4629 22.7096 90.6374 22.7754 90.8109 22.8412V26.7945H92.7715V33.9228H97.1525V40.5916H103.613V65.9988H113.881V47.5214H117.19C120.197 54.5102 121.28 62.7012 117.967 69.5128Z" fill="#2A3042"/>
<path opacity="0.1" d="M75.8556 33.5626H71.0605V38.3412H75.8556V33.5626Z" fill="#2A3042"/>
<path opacity="0.1" d="M75.8556 43.4677H71.0605V48.2462H75.8556V43.4677Z" fill="#2A3042"/>
<path opacity="0.1" d="M75.8556 53.3738H71.0605V58.1524H75.8556V53.3738Z" fill="#2A3042"/>
<path opacity="0.1" d="M75.8556 63.28H71.0605V68.0586H75.8556V63.28Z" fill="#2A3042"/>
<path opacity="0.1" d="M75.8556 73.1851H71.0605V77.9637H75.8556V73.1851Z" fill="#2A3042"/>
<path opacity="0.1" d="M75.8556 83.0891V86.8628C74.2517 86.7565 72.6533 86.5866 71.0605 86.3532V83.0891H75.8556Z" fill="#2A3042"/>
<path opacity="0.1" d="M56.3373 59.8163H39.5527V61.9808H56.3373V59.8163Z" fill="#2A3042"/>
<path opacity="0.1" d="M56.3373 66.3903H39.5527V68.5549H56.3373V66.3903Z" fill="#2A3042"/>
<path opacity="0.1" d="M56.3373 72.9643V75.1277H43.9338C43.4593 74.7664 42.9908 74.3973 42.5282 74.0204L42.338 73.8654C41.9743 73.5665 41.614 73.2609 41.248 72.9643H56.3373Z" fill="#2A3042"/>
<path opacity="0.1" d="M56.337 79.5372V81.7018H55.0277C53.555 81.0408 52.1122 80.3193 50.6992 79.5372H56.337Z" fill="#2A3042"/>
<path opacity="0.1" d="M86.9863 46.5021H83.8652V49.6123H86.9863V46.5021Z" fill="#2A3042"/>
<path opacity="0.1" d="M19.3954 32.0069H16.2744V35.1172H19.3954V32.0069Z" fill="#2A3042"/>
<path opacity="0.1" d="M19.3954 39.2333H16.2744V42.3436H19.3954V39.2333Z" fill="#2A3042"/>
<path opacity="0.1" d="M19.3954 46.4586H16.2744V49.5688H19.3954V46.4586Z" fill="#2A3042"/>
<path opacity="0.1" d="M19.3954 53.685H16.2744V56.7952H19.3954V53.685Z" fill="#2A3042"/>
<path opacity="0.1" d="M19.3954 60.9114H16.2744V64.0216H19.3954V60.9114Z" fill="#2A3042"/>
<path opacity="0.1" d="M19.3954 68.1367H16.2744V71.2469H19.3954V68.1367Z" fill="#2A3042"/>
<path opacity="0.1" d="M98.9023 46.5021H95.7812V49.6123H98.9023V46.5021Z" fill="#2A3042"/>
<path opacity="0.1" d="M86.9863 54.1745H83.8652V57.2848H86.9863V54.1745Z" fill="#2A3042"/>
<path opacity="0.1" d="M98.9023 54.1745H95.7812V57.2848H98.9023V54.1745Z" fill="#2A3042"/>
<path opacity="0.1" d="M86.9863 61.8481H83.8652V64.9584H86.9863V61.8481Z" fill="#2A3042"/>
<path opacity="0.1" d="M98.9023 61.8481H95.7812V64.9584H98.9023V61.8481Z" fill="#2A3042"/>
<path opacity="0.1" d="M86.9863 69.5217H83.8652V72.632H86.9863V69.5217Z" fill="#2A3042"/>
<path opacity="0.1" d="M98.9023 69.5217H95.7812V72.632H98.9023V69.5217Z" fill="#2A3042"/>
<path opacity="0.1" d="M86.9863 77.1942H83.8652V80.3044H86.9863V77.1942Z" fill="#2A3042"/>
<path opacity="0.1" d="M98.9023 77.1942H95.7812V80.3044H98.9023V77.1942Z" fill="#2A3042"/>
<path opacity="0.1" d="M83.8652 86.8729V84.8667H86.9863V86.5874L83.8652 86.8729Z" fill="#2A3042"/>
<path opacity="0.1" d="M0.682617 40.6764V42.4607H12.6195V40.6764H0.682617ZM1.74571 42.3491H0.869498V40.7879H1.74571V42.3491ZM2.80881 42.3491H1.93259V40.7879H2.80881V42.3491ZM3.8719 42.3491H2.99569V40.7879H3.8719V42.3491ZM4.935 42.3491H4.05878V40.7879H4.935V42.3491ZM5.99809 42.3491H5.12188V40.7879H5.99809V42.3491ZM7.06119 42.3491H6.18497V40.7879H7.06119V42.3491ZM8.12428 42.3491H7.24807V40.7879H8.12428V42.3491ZM9.18738 42.3491H8.31117V40.7879H9.18738V42.3491ZM10.2505 42.3491H9.37426V40.7879H10.2505V42.3491ZM11.3136 42.3491H10.4374V40.7879H11.3136V42.3491ZM12.4326 42.3491H11.5005V40.7879H12.4326V42.3491Z" fill="#2A3042"/>
<path opacity="0.1" d="M0.682617 45.8575V47.6362H12.6195V45.8575H0.682617ZM1.74571 47.5247H0.869498V45.969H1.74571V47.5247ZM2.80881 47.5247H1.93259V45.969H2.80881V47.5247ZM3.8719 47.5247H2.99569V45.969H3.8719V47.5247ZM4.935 47.5247H4.05878V45.969H4.935V47.5247ZM5.99809 47.5247H5.12188V45.969H5.99809V47.5247ZM7.06119 47.5247H6.18497V45.969H7.06119V47.5247ZM8.12428 47.5247H7.24807V45.969H8.12428V47.5247ZM9.18738 47.5247H8.31117V45.969H9.18738V47.5247ZM10.2505 47.5247H9.37426V45.969H10.2505V47.5247ZM11.3136 47.5247H10.4374V45.969H11.3136V47.5247ZM12.4326 47.5247H11.5005V45.969H12.4326V47.5247Z" fill="#2A3042"/>
<path opacity="0.1" d="M0.682617 51.0375V52.8162H12.6195V51.0375H0.682617ZM1.74571 52.7047H0.869498V51.1491H1.74571V52.7047ZM2.80881 52.7047H1.93259V51.1491H2.80881V52.7047ZM3.8719 52.7047H2.99569V51.1491H3.8719V52.7047ZM4.935 52.7047H4.05878V51.1491H4.935V52.7047ZM5.99809 52.7047H5.12188V51.1491H5.99809V52.7047ZM7.06119 52.7047H6.18497V51.1491H7.06119V52.7047ZM8.12428 52.7047H7.24807V51.1491H8.12428V52.7047ZM9.18738 52.7047H8.31117V51.1491H9.18738V52.7047ZM10.2505 52.7047H9.37426V51.1491H10.2505V52.7047ZM11.3136 52.7047H10.4374V51.1491H11.3136V52.7047ZM12.4326 52.7047H11.5005V51.1491H12.4326V52.7047Z" fill="#2A3042"/>
<path opacity="0.1" d="M0.682617 56.2131V57.9974H12.6195V56.2131H0.682617ZM1.74571 57.8859H0.869498V56.3246H1.74571V57.8859ZM2.80881 57.8859H1.93259V56.3246H2.80881V57.8859ZM3.8719 57.8859H2.99569V56.3246H3.8719V57.8859ZM4.935 57.8859H4.05878V56.3246H4.935V57.8859ZM5.99809 57.8859H5.12188V56.3246H5.99809V57.8859ZM7.06119 57.8859H6.18497V56.3246H7.06119V57.8859ZM8.12428 57.8859H7.24807V56.3246H8.12428V57.8859ZM9.18738 57.8859H8.31117V56.3246H9.18738V57.8859ZM10.2505 57.8859H9.37426V56.3246H10.2505V57.8859ZM11.3136 57.8859H10.4374V56.3246H11.3136V57.8859ZM12.4326 57.8859H11.5005V56.3246H12.4326V57.8859Z" fill="#2A3042"/>
<path opacity="0.1" d="M0.728516 61.3976C0.771039 61.5649 0.819159 61.7321 0.869516 61.8972V61.5091H1.74573V63.0704H1.27797C1.2914 63.1072 1.30594 63.1451 1.32161 63.1819H12.624V61.3976H0.728516ZM2.80883 63.0704H1.93261V61.5091H2.80883V63.0704ZM3.87192 63.0704H2.99571V61.5091H3.87192V63.0704ZM4.93502 63.0704H4.0588V61.5091H4.93502V63.0704ZM5.99811 63.0704H5.1219V61.5091H5.99811V63.0704ZM7.06121 63.0704H6.185V61.5091H7.06121V63.0704ZM8.1243 63.0704H7.24809V61.5091H8.1243V63.0704ZM9.1874 63.0704H8.31119V61.5091H9.1874V63.0704ZM10.2505 63.0704H9.37428V61.5091H10.2505V63.0704ZM11.3136 63.0704H10.4374V61.5091H11.3136V63.0704ZM12.4326 63.0704H11.5005V61.5091H12.4326V63.0704Z" fill="#2A3042"/>
<path opacity="0.1" d="M3.20898 66.5776C3.23584 66.6144 3.2627 66.6524 3.29067 66.6892H3.87146V67.4374C3.93301 67.5122 3.99567 67.5858 4.05834 67.6605V66.6903H4.93456V68.2515H4.57982C4.61451 68.2883 4.6492 68.3262 4.68613 68.363H12.6191V66.5788L3.20898 66.5776ZM5.99765 68.2504H5.12144V66.6892H5.99765V68.2504ZM7.06075 68.2504H6.18453V66.6892H7.06075V68.2504ZM8.12384 68.2504H7.24763V66.6892H8.12384V68.2504ZM9.18693 68.2504H8.31072V66.6892H9.18693V68.2504ZM10.25 68.2504H9.37382V66.6892H10.25V68.2504ZM11.3131 68.2504H10.4369V66.6892H11.3131V68.2504ZM12.4322 68.2504H11.5V66.6892H12.4322V68.2504Z" fill="#2A3042"/>
<path opacity="0.1" d="M9.06836 71.7577C9.16907 71.8145 9.27091 71.8692 9.37386 71.9238V71.8692H10.2501V72.3621L10.437 72.4468V71.8692H11.3132V72.816L11.5001 72.8873V71.8692H12.4322V73.2074L12.6191 73.2654V71.7577H9.06836Z" fill="#2A3042"/>
<path opacity="0.1" d="M45.8763 25.2299C45.8763 25.2299 43.2085 25.0693 43.5263 26.9317C43.51 27.0263 43.5242 27.1237 43.5668 27.2098C43.6094 27.296 43.6783 27.3665 43.7635 27.4112C43.7635 27.4112 43.7635 27.2729 44.0366 27.3198C44.1323 27.3355 44.2296 27.34 44.3264 27.3332C44.4573 27.3246 44.5819 27.2737 44.6812 27.1882C44.6812 27.1882 45.4309 26.8793 45.723 25.6582C45.723 25.6582 45.9378 25.3916 45.93 25.3236L45.4824 25.5154C45.4824 25.5154 45.6368 25.8388 45.516 26.1076C45.516 26.1076 45.5014 25.5277 45.4141 25.5411C45.3973 25.5411 45.1803 25.6526 45.1803 25.6526C45.1803 25.6526 45.4455 26.2169 45.2452 26.6261C45.2452 26.6261 45.3213 25.9325 45.0986 25.6938L44.774 25.8801C44.774 25.8801 45.084 26.4622 44.8736 26.9373C44.8736 26.9373 44.9285 26.2091 44.708 25.9258L44.4204 26.1488C44.4204 26.1488 44.7114 26.722 44.5323 27.1168C44.5323 27.1168 44.5088 26.2682 44.3566 26.2035C44.2474 26.2952 44.1501 26.4001 44.0668 26.5157C44.0668 26.5157 44.266 26.9317 44.1429 27.1514C44.1429 27.1514 44.0668 26.5871 44.0041 26.5838C44.0041 26.5838 43.7546 26.9585 43.7288 27.215C43.7403 26.977 43.8144 26.7462 43.9437 26.5458C43.7995 26.573 43.6665 26.6416 43.561 26.7432C43.561 26.7432 43.6002 26.4789 44.0086 26.4555C44.0086 26.4555 44.2156 26.1723 44.2716 26.1544C44.2716 26.1544 43.8676 26.121 43.6225 26.2291C43.6225 26.2291 43.8385 25.9793 44.3454 26.0931L44.6286 25.8622C44.6286 25.8622 44.097 25.7898 43.8721 25.87C43.8721 25.87 44.1306 25.647 44.7047 25.8098L45.0135 25.6258C44.7763 25.574 44.5333 25.5531 44.2906 25.5634C44.2906 25.5634 44.5748 25.4106 45.1042 25.5768L45.328 25.4775C45.328 25.4775 44.9923 25.4128 44.8994 25.4028C44.8065 25.3927 44.7964 25.366 44.7964 25.366C45.0066 25.3311 45.2224 25.355 45.4197 25.4351C45.4197 25.4351 45.8841 25.2589 45.8763 25.2299Z" fill="#2A3042"/>
<path opacity="0.1" d="M38.8732 34.293C38.8732 34.293 37.9612 36.7955 39.8435 37.0241C39.9296 37.0664 40.027 37.0804 40.1217 37.0642C40.2164 37.0479 40.3035 37.0023 40.3705 36.9338C40.3705 36.9338 40.2396 36.8903 40.3605 36.6461C40.4028 36.5593 40.4351 36.468 40.4567 36.374C40.485 36.2462 40.4709 36.1127 40.4164 35.9937C40.4164 35.9937 40.3325 35.1896 39.2403 34.564C39.2403 34.564 39.0456 34.2819 38.9773 34.2707L39.0333 34.7558C39.0333 34.7558 39.388 34.7001 39.6129 34.8919C39.6129 34.8919 39.0534 34.7413 39.0389 34.8283C39.0389 34.8451 39.0803 35.0837 39.0803 35.0837C39.0803 35.0837 39.698 34.99 40.0348 35.2978C40.0348 35.2978 39.388 35.0279 39.0959 35.174L39.1832 35.5287C39.1832 35.5287 39.8312 35.3993 40.2284 35.7339C40.2284 35.7339 39.5436 35.4762 39.2078 35.6056L39.341 35.9402C39.341 35.9402 39.9755 35.8286 40.3045 36.1063C40.3045 36.1063 39.4809 35.8833 39.3768 36.0149C39.4341 36.1447 39.507 36.2672 39.5939 36.3795C39.5939 36.3795 40.0516 36.3082 40.2273 36.4911C40.2273 36.4911 39.6622 36.403 39.642 36.461C39.642 36.461 39.9319 36.8067 40.1713 36.907C39.9465 36.8277 39.7463 36.6912 39.5906 36.5111C39.5757 36.6569 39.6041 36.8039 39.6722 36.9338C39.6722 36.9338 39.4283 36.8223 39.5212 36.4264C39.5212 36.4264 39.3063 36.1487 39.3063 36.0918C39.3063 36.0918 39.1586 36.4676 39.1944 36.7331C39.1944 36.7331 39.0154 36.4554 39.2683 36.0037L39.1273 35.6692C39.1273 35.6692 38.9035 36.1565 38.9191 36.3952C38.9191 36.3952 38.7804 36.084 39.0982 35.5811L39.0098 35.2343C38.8927 35.4449 38.8035 35.6698 38.7446 35.9034C38.7446 35.9034 38.6774 35.5878 38.9874 35.1294L38.9549 34.8908C38.9549 34.8908 38.7983 35.1896 38.7613 35.28C38.7244 35.3703 38.6964 35.367 38.6964 35.367C38.7222 35.1561 38.8063 34.9565 38.9393 34.7904C38.9393 34.7904 38.9035 34.293 38.8732 34.293Z" fill="#2A3042"/>
<path opacity="0.1" d="M56.5574 32.1831C56.5574 32.1831 55.6465 34.69 57.5276 34.9131C57.6141 34.9553 57.7117 34.9692 57.8066 34.9527C57.9014 34.9363 57.9887 34.8904 58.0558 34.8216C58.0558 34.8216 57.9237 34.7781 58.0457 34.535C58.0884 34.4481 58.1203 34.3564 58.1408 34.2618C58.1695 34.1342 58.1557 34.0007 58.1016 33.8815C58.1016 33.8815 58.0177 33.0775 56.9256 32.4519C56.9256 32.4519 56.7297 32.1708 56.6615 32.1597L56.7185 32.6437C56.7185 32.6437 57.0733 32.589 57.2982 32.7808C57.2982 32.7808 56.7387 32.6303 56.723 32.7162C56.723 32.734 56.7644 32.9715 56.7644 32.9715C56.7644 32.9715 57.3821 32.879 57.7201 33.1857C57.7201 33.1857 57.0733 32.9169 56.7801 33.0619L56.8685 33.4176C56.8685 33.4176 57.5164 33.2871 57.9137 33.6228C57.9137 33.6228 57.2277 33.3641 56.892 33.4934L57.0251 33.828C57.0251 33.828 57.6596 33.7165 57.9886 33.9942C57.9886 33.9942 57.1661 33.7711 57.061 33.9038C57.1201 34.0342 57.1952 34.1567 57.2848 34.2685C57.2848 34.2685 57.7413 34.196 57.9181 34.38C57.9181 34.38 57.353 34.2919 57.3329 34.351C57.3329 34.351 57.6216 34.6956 57.8611 34.7971C57.6363 34.7181 57.4364 34.5816 57.2814 34.4012C57.2666 34.5469 57.2946 34.6937 57.362 34.8239C57.362 34.8239 57.1192 34.7123 57.212 34.3176C57.212 34.3176 56.9972 34.0388 56.9961 33.983C56.9961 33.983 56.8495 34.3599 56.8842 34.6242C56.8842 34.6242 56.7051 34.3477 56.958 33.8949L56.817 33.5604C56.817 33.5604 56.5932 34.0477 56.6089 34.2852C56.6089 34.2852 56.4701 33.9752 56.7879 33.4723L56.6984 33.1243C56.5813 33.335 56.4921 33.5599 56.4332 33.7934C56.4332 33.7934 56.3672 33.4778 56.6771 33.0195L56.6447 32.7808C56.6447 32.7808 56.488 33.0797 56.45 33.17C56.4119 33.2604 56.3851 33.257 56.3851 33.257C56.4116 33.0461 56.496 32.8466 56.629 32.6805C56.629 32.6805 56.5887 32.1842 56.5574 32.1831Z" fill="#2A3042"/>
<path opacity="0.1" d="M31.2785 52.6445C31.2785 52.6445 30.3665 55.1481 32.2487 55.3767C32.335 55.419 32.4325 55.4329 32.5272 55.4165C32.6219 55.4001 32.709 55.3541 32.7758 55.2853C32.7758 55.2853 32.6449 55.2418 32.7657 54.9987C32.8087 54.9118 32.8411 54.8201 32.862 54.7254C32.8908 54.5977 32.8767 54.4641 32.8217 54.3452C32.8217 54.3452 32.7377 53.5411 31.6456 52.9166C31.6456 52.9166 31.4508 52.6345 31.3826 52.6233L31.4385 53.1073C31.4385 53.1073 31.7944 53.0527 32.0182 53.2445C32.0182 53.2445 31.4587 53.0939 31.4441 53.1798C31.4441 53.1976 31.4855 53.4352 31.4855 53.4352C31.4855 53.4352 32.1033 53.3426 32.4401 53.6493C32.4401 53.6493 31.7933 53.3805 31.5012 53.5255L31.5885 53.8813C31.5885 53.8813 32.2364 53.7508 32.6337 54.0864C32.6337 54.0864 31.9488 53.8277 31.6131 53.9571L31.7463 54.2916C31.7463 54.2916 32.3808 54.1801 32.7098 54.4578C32.7098 54.4578 31.8873 54.2348 31.7821 54.3675C31.8394 54.4973 31.9123 54.6198 31.9992 54.7321C31.9992 54.7321 32.4569 54.6597 32.6337 54.8437C32.6337 54.8437 32.0674 54.7556 32.0473 54.8147C32.0473 54.8147 32.3371 55.1593 32.5766 55.2607C32.3517 55.1821 32.1514 55.0459 31.9958 54.866C31.981 55.0114 32.0094 55.158 32.0775 55.2875C32.0775 55.2875 31.8336 55.176 31.9264 54.7812C31.9264 54.7812 31.7127 54.5024 31.7116 54.4467C31.7116 54.4467 31.5639 54.8236 31.5997 55.0879C31.5997 55.0879 31.4206 54.8113 31.6735 54.3586L31.5325 54.024C31.5325 54.024 31.3087 54.5113 31.3255 54.7489C31.3255 54.7489 31.1868 54.4389 31.5046 53.9359L31.415 53.5891C31.2977 53.7996 31.2085 54.0246 31.1498 54.2582C31.1498 54.2582 31.0827 53.9415 31.3927 53.4843L31.3602 53.2445C31.3602 53.2445 31.2035 53.5434 31.1666 53.6337C31.1297 53.724 31.1017 53.7207 31.1017 53.7207C31.1276 53.5096 31.2121 53.3099 31.3457 53.1441C31.3457 53.1441 31.3087 52.6445 31.2785 52.6445Z" fill="#2A3042"/>
<path opacity="0.1" d="M27.6599 29.0483C27.6599 29.0483 26.749 31.5508 28.6302 31.7794C28.7166 31.8216 28.8141 31.8356 28.9089 31.8193C29.0037 31.8031 29.091 31.7575 29.1584 31.6891C29.1584 31.6891 29.0263 31.6456 29.1483 31.4014C29.1905 31.3143 29.2224 31.2226 29.2434 31.1281C29.2721 31.0009 29.2583 30.8678 29.2042 30.749C29.2042 30.749 29.1203 29.9449 28.027 29.3193C28.027 29.3193 27.8323 29.0372 27.764 29.026L27.8211 29.5111C27.8211 29.5111 28.1758 29.4554 28.3996 29.6472C28.3996 29.6472 27.8401 29.4966 27.8256 29.5836C27.8256 29.6003 27.867 29.839 27.867 29.839C27.867 29.839 28.4847 29.7453 28.8226 30.0531C28.8226 30.0531 28.1758 29.7832 27.8826 29.9293L27.9699 30.2839C27.9699 30.2839 28.6179 30.1535 29.0162 30.4891C29.0162 30.4891 28.3303 30.2304 27.9945 30.3609L28.1277 30.6954C28.1277 30.6954 28.7622 30.5839 29.0912 30.8627C29.0912 30.8627 28.2687 30.6397 28.1635 30.7713C28.2208 30.9011 28.2937 31.0236 28.3806 31.1359C28.3806 31.1359 28.8383 31.0646 29.0151 31.2475C29.0151 31.2475 28.45 31.1594 28.4299 31.2174C28.4299 31.2174 28.7186 31.5631 28.958 31.6634C28.7333 31.5838 28.5332 31.4474 28.3773 31.2675C28.3624 31.4134 28.3908 31.5603 28.4589 31.6902C28.4589 31.6902 28.215 31.5787 28.309 31.1828C28.309 31.1828 28.0941 30.9051 28.093 30.8482C28.093 30.8482 27.9464 31.224 27.9811 31.4895C27.9811 31.4895 27.8009 31.2118 28.055 30.7601L27.9129 30.4256C27.9129 30.4256 27.689 30.9129 27.7058 31.1516C27.7058 31.1516 27.5671 30.8404 27.8849 30.3375L27.7953 29.9907C27.6782 30.2013 27.5891 30.4262 27.5301 30.6598C27.5301 30.6598 27.4641 30.3442 27.773 29.8858L27.7416 29.6472C27.7416 29.6472 27.5838 29.946 27.5469 30.0353C27.51 30.1245 27.482 30.1234 27.482 30.1234C27.5079 29.9123 27.5924 29.7126 27.726 29.5468C27.726 29.5468 27.6913 29.0483 27.6599 29.0483Z" fill="#2A3042"/>
<path opacity="0.1" d="M34.4229 42.6759C34.4229 42.6759 35.1267 45.2408 36.7964 44.3487C36.8912 44.3336 36.9789 44.2891 37.0468 44.2214C37.1148 44.1537 37.1595 44.0663 37.1746 43.9717C37.1746 43.9717 37.0425 44.0119 37.0011 43.7431C36.9854 43.6477 36.9583 43.5545 36.9206 43.4654C36.871 43.3444 36.7824 43.2432 36.6688 43.1777C36.6688 43.1777 36.135 42.5688 34.8783 42.6848C34.8783 42.6848 34.556 42.5677 34.4934 42.5978L34.8201 42.9603C34.8201 42.9603 35.0786 42.7116 35.3729 42.7372C35.3729 42.7372 34.8257 42.9379 34.866 43.0149C34.8749 43.0305 35.0473 43.2 35.0473 43.2C35.0473 43.2 35.4949 42.7684 35.9515 42.8253C35.9515 42.8253 35.2677 42.977 35.1133 43.2647L35.3897 43.5045C35.3897 43.5045 35.844 43.026 36.3633 43.0707C36.3633 43.0707 35.6527 43.2535 35.4535 43.5524L35.7579 43.752C35.7579 43.752 36.2055 43.2937 36.6419 43.335C36.6419 43.335 35.8429 43.6282 35.8306 43.7933C35.9528 43.8666 36.0836 43.9246 36.22 43.9661C36.22 43.9661 36.5558 43.645 36.8008 43.6907C36.8008 43.6907 36.2872 43.9438 36.3051 44.003C36.3051 44.003 36.7415 44.1145 36.9933 44.0609C36.764 44.1257 36.5218 44.1296 36.2905 44.0721C36.3625 44.1997 36.4708 44.3033 36.6016 44.3698C36.6016 44.3698 36.3375 44.4178 36.1854 44.042C36.1854 44.042 35.8496 43.9383 35.8138 43.8914C35.8138 43.8914 35.9123 44.284 36.0936 44.4803C36.0936 44.4803 35.787 44.3565 35.7321 43.8412L35.4222 43.6483C35.4222 43.6483 35.524 44.1736 35.6717 44.3598C35.6717 44.3598 35.3785 44.1858 35.3472 43.5926L35.0741 43.3606C35.1007 43.6013 35.1587 43.8374 35.2465 44.0632C35.2465 44.0632 35.0104 43.8401 34.998 43.2915L34.8335 43.1141C34.8335 43.1141 34.8783 43.4487 34.8996 43.5435C34.9208 43.6383 34.8996 43.655 34.8996 43.655C34.7988 43.4677 34.7523 43.2561 34.7653 43.0439C34.7653 43.0439 34.4486 42.6591 34.4229 42.6759Z" fill="#2A3042"/>
<path opacity="0.1" d="M53.5186 44.9665C53.5186 44.9665 54.2224 47.5314 55.8909 46.6392C55.9861 46.6246 56.0741 46.5802 56.1423 46.5124C56.2105 46.4447 56.2553 46.3571 56.2703 46.2623C56.2703 46.2623 56.1371 46.3025 56.0957 46.0393C56.0808 45.9438 56.0541 45.8505 56.0163 45.7616C55.9659 45.6407 55.877 45.5396 55.7634 45.4739C55.7634 45.4739 55.2296 44.865 53.9729 44.9821C53.9729 44.9821 53.6506 44.8639 53.5891 44.894L53.9147 45.2564C53.9147 45.2564 54.1732 45.0077 54.4675 45.0334C54.4675 45.0334 53.9203 45.2341 53.9617 45.3111C53.9695 45.3267 54.143 45.4962 54.143 45.4962C54.143 45.4962 54.5906 45.0646 55.0472 45.1215C55.0472 45.1215 54.3623 45.2732 54.2079 45.5609L54.4854 45.8006C54.4854 45.8006 54.933 45.3222 55.4579 45.3668C55.4579 45.3668 54.7484 45.5497 54.5492 45.8486L54.8536 46.0482C54.8536 46.0482 55.3012 45.5899 55.7365 45.6311C55.7365 45.6311 54.9375 45.9244 54.9263 46.0895C55.0481 46.1628 55.1786 46.2208 55.3146 46.2623C55.3146 46.2623 55.6503 45.9411 55.8954 45.9869C55.8954 45.9869 55.3829 46.24 55.3997 46.2991C55.3997 46.2991 55.8361 46.4106 56.089 46.3571C55.8594 46.4218 55.6167 46.4257 55.3851 46.3683C55.4575 46.4956 55.5656 46.5991 55.6962 46.666C55.6962 46.666 55.4321 46.714 55.2799 46.3381C55.2799 46.3381 54.9442 46.2344 54.9095 46.1876C54.9095 46.1876 55.0069 46.5801 55.1882 46.7764C55.1882 46.7764 54.8816 46.6526 54.8267 46.1374L54.5167 45.9423C54.5167 45.9423 54.6186 46.4675 54.7674 46.6537C54.7674 46.6537 54.4742 46.4798 54.4429 45.8865L54.1687 45.6545C54.1953 45.8953 54.2536 46.1315 54.3422 46.3571C54.3422 46.3571 54.1049 46.1341 54.0926 45.5854L53.9281 45.4081C53.9281 45.4081 53.9729 45.7426 53.9942 45.8374C54.0154 45.9322 53.9942 45.9489 53.9942 45.9489C53.8933 45.7616 53.8468 45.55 53.8599 45.3378C53.8599 45.3378 53.5443 44.9498 53.5186 44.9665Z" fill="#2A3042"/>
<path d="M46.354 70.725C46.354 70.725 52.1596 68.7768 50.9578 61.8738L43.5832 59.9657L41.8711 65.6297L46.354 70.725Z" fill="#CED7E7"/>
<path opacity="0.1" d="M41.8711 65.6297L46.3529 70.725C46.3529 70.725 52.1585 68.7768 50.9566 61.8738L41.8711 65.6297Z" fill="black"/>
<path d="M17.476 14.6323C17.476 14.6323 18.2593 15.9025 19.3302 15.268C20.4012 14.6335 19.3739 12.8804 19.3739 12.8804C19.3739 12.8804 17.3226 12.6005 17.476 14.6323Z" fill="#FED253"/>
<path opacity="0.1" d="M19.3303 15.268C19.2039 15.3494 19.0622 15.4043 18.9139 15.4292C18.7655 15.4542 18.6136 15.4486 18.4675 15.413C18.0747 15.3137 17.7725 15.0126 17.6103 14.8152C17.5619 14.7574 17.517 14.6967 17.476 14.6334C17.4212 13.9086 17.6472 13.477 17.9605 13.2227C18.3914 12.8737 18.9878 12.8592 19.2452 12.8703C19.3247 12.8703 19.3705 12.8815 19.3705 12.8815L19.3918 12.9172C19.422 12.9741 19.488 13.1001 19.5585 13.2685C19.798 13.8205 20.0834 14.8208 19.3303 15.268Z" fill="black"/>
<path d="M46.9251 61.5493L50.9537 61.8738L58.4513 61.9351L52.5439 69.1838C52.5439 69.1838 50.6695 69.2853 50.2834 69.5485C49.8973 69.8117 44.4767 69.6712 44.4767 69.6712L43.6016 65.9554L46.9251 61.5493Z" fill="#FFA2A2"/>
<path opacity="0.05" d="M46.9251 61.5493L50.9537 61.8738L58.4513 61.9351L52.5439 69.1838C52.5439 69.1838 50.6695 69.2853 50.2834 69.5485C49.8973 69.8117 44.4767 69.6712 44.4767 69.6712L43.6016 65.9554L46.9251 61.5493Z" fill="black"/>
<path d="M42.8508 42.0603L43.7875 43.6439L43.9911 46.405C43.9911 46.405 44.6435 48.7592 45.1326 49.4495C45.6216 50.1398 45.8252 51.9676 45.8252 51.9676C45.8252 51.9676 46.0289 53.6727 46.2729 54.0374C46.5168 54.402 46.8436 57.0484 46.8436 57.0484C46.8436 57.0484 49.0033 61.3519 50.9583 61.8793C50.9583 61.8793 41.2618 65.0465 46.3546 70.7306C46.3546 70.7306 42.7288 71.6227 41.8728 70.609C41.0167 69.5953 38.7764 54.5715 38.7764 54.5715L39.4691 41.903L42.8508 42.0603Z" fill="#CED7E7"/>
<path opacity="0.05" d="M42.8508 42.0603L43.7875 43.6439L43.9911 46.405C43.9911 46.405 44.6435 48.7592 45.1326 49.4495C45.6216 50.1398 45.8252 51.9676 45.8252 51.9676C45.8252 51.9676 46.0289 53.6727 46.2729 54.0374C46.5168 54.402 46.8436 57.0484 46.8436 57.0484C46.8436 57.0484 49.0033 61.3519 50.9583 61.8793C50.9583 61.8793 41.2618 65.0465 46.3546 70.7306C46.3546 70.7306 42.7288 71.6227 41.8728 70.609C41.0167 69.5953 38.7764 54.5715 38.7764 54.5715L39.4691 41.903L42.8508 42.0603Z" fill="black"/>
<path d="M31.086 26.6273C30.8139 28.0339 30.8946 29.4857 31.321 30.8538L29.8125 35.1573C29.8125 35.1573 18.3232 28.7829 19.3013 27.2395C19.8552 26.3641 19.9257 24.0478 19.8809 22.2078C19.8485 20.8093 19.7489 19.6875 19.7489 19.6875C19.7489 19.6875 33.8489 21.0692 31.9723 24.2765C31.5476 25.0054 31.248 25.8 31.086 26.6273Z" fill="#FFA2A2"/>
<path opacity="0.1" d="M31.9724 24.2765C31.5477 25.0054 31.2481 25.8 31.0861 26.6273C28.9936 27.2944 26.7339 27.2186 24.6911 26.4129C22.6483 25.6072 20.9487 24.1213 19.8811 22.2078C19.8486 20.8093 19.749 19.6875 19.749 19.6875C19.749 19.6875 33.8457 21.0692 31.9724 24.2765Z" fill="black"/>
<path d="M37.6765 17.3735C37.6775 18.8621 37.3259 20.3299 36.6505 21.6577C35.975 22.9854 34.9947 24.1356 33.7893 25.0148C32.5838 25.8939 31.1872 26.4771 29.7129 26.7171C28.2387 26.9571 26.7284 26.847 25.3049 26.3958C23.8814 25.9446 22.5848 25.165 21.5205 24.1204C20.4562 23.0759 19.6543 21.7958 19.1799 20.3842C18.7055 18.9726 18.5721 17.4694 18.7904 15.9968C19.0088 14.5241 19.5727 13.1236 20.4364 11.9091C20.5707 11.721 20.7121 11.5373 20.8605 11.3582C21.7065 10.3335 22.7591 9.49766 23.9502 8.90474C24.5965 8.58256 25.278 8.33631 25.9813 8.17095C27.2512 7.87116 28.5693 7.83497 29.8538 8.06463C31.1383 8.29428 32.3616 8.78488 33.4476 9.5059C34.5337 10.2269 35.4593 11.1629 36.1668 12.2557C36.8742 13.3485 37.3485 14.5746 37.5601 15.8579C37.6391 16.3592 37.6781 16.866 37.6765 17.3735Z" fill="#FFA2A2"/>
<path d="M41.4235 56.2722C41.2814 57.0283 41.4593 58.41 41.729 59.8163C41.7402 59.8776 41.7525 59.9389 41.7648 60.0003C41.7771 60.0616 41.795 60.1564 41.8107 60.2333C41.9349 60.8378 42.0703 61.4366 42.2024 61.9808C42.3344 62.525 42.453 62.9912 42.5537 63.3748C42.7059 63.9491 42.81 64.3104 42.81 64.3104C42.81 64.3104 42.8234 64.6651 42.8413 65.2294C42.8514 65.555 42.8626 65.952 42.8738 66.3903C42.8738 66.5174 42.8816 66.6468 42.885 66.7806C42.8906 67.0137 42.8962 67.2556 42.9018 67.5032C42.9018 67.5835 42.9018 67.6638 42.9074 67.7452C42.9074 68.0117 42.9174 68.2838 42.9219 68.5548C42.9275 68.9273 42.932 69.2998 42.9342 69.6611C42.9342 69.7994 42.9342 69.9354 42.9342 70.0693C42.9342 70.415 42.9342 70.7462 42.9342 71.0506C42.9219 71.9149 42.8872 72.5673 42.8134 72.7557C42.7876 72.8204 42.7641 72.8907 42.7417 72.9643C42.6447 73.3104 42.5744 73.6635 42.5314 74.0204L42.3411 73.8653C41.9774 73.5665 41.6171 73.2609 41.2512 72.9643C40.6429 72.4565 39.9973 71.995 39.3197 71.5837C39.2738 71.5569 39.2279 71.5301 39.1809 71.5045C39.0556 71.432 38.928 71.364 38.7982 71.2993C38.5308 71.165 38.2566 71.0444 37.9768 70.938C36.6843 70.4473 35.3001 70.2689 33.8968 70.299C33.3373 70.512 32.9736 70.6648 32.9736 70.6648L32.2619 70.8789L32.1432 70.9146C31.3722 71.1488 30.2878 71.4811 29.8973 71.6194C29.2662 71.8424 23.7862 72.9788 23.7862 72.9788C23.2855 73.115 22.7741 73.2082 22.2576 73.2576C21.3169 73.5212 20.3594 73.7209 19.3917 73.8553C17.1925 74.1355 14.9588 73.9562 12.8329 73.3289C12.7695 73.3327 12.7058 73.3308 12.6427 73.3234C12.6819 73.3234 12.7199 73.3144 12.7546 73.3078L12.6181 73.2676L12.4312 73.2096C12.1179 73.1115 11.8071 73.0041 11.499 72.8873L11.3121 72.816C11.0137 72.7015 10.7217 72.5784 10.4359 72.4468L10.2491 72.3621C9.95064 72.2238 9.65857 72.0777 9.37284 71.9238C9.26989 71.8703 9.16805 71.8123 9.06734 71.7576C8.76296 71.5881 8.46454 71.4104 8.1721 71.2246C8.12286 70.8042 8.09712 70.5231 8.09712 70.5231L7.66069 68.3575L7.63831 68.2459L7.32498 66.6847L7.3026 66.5732L6.6211 63.1763L6.59872 63.0648L6.28538 61.5035L6.263 61.392L5.57255 57.9974L5.55017 57.8859L5.23684 56.3246L5.21445 56.2131L4.5296 52.8118L4.50722 52.7003L4.19388 51.1446L4.1715 51.0331L4.04729 50.4197L3.86041 49.4908C3.86041 49.4908 3.26395 48.641 2.59252 47.6362L2.51755 47.5247C2.32619 47.2425 2.12924 46.9493 1.93788 46.6615C1.8741 46.5667 1.81255 46.4731 1.751 46.3805C1.65775 46.24 1.56748 46.1028 1.48019 45.969L1.41976 45.8764L1.40745 45.8575C0.442833 44.3698 1.08852 43.723 1.08852 43.723C1.08852 43.723 1.49362 43.1766 2.01621 42.4539C2.04195 42.4171 2.06881 42.3803 2.09679 42.3424C2.3206 42.0302 2.56679 41.6889 2.8085 41.3477L2.99538 41.0823C3.06588 40.983 3.13526 40.8838 3.20241 40.7856C3.22926 40.7488 3.255 40.7109 3.27962 40.6741C3.7955 39.9314 4.22074 39.2835 4.30803 39.0538C4.44455 38.6913 5.31517 37.6196 6.18243 36.6795C6.86617 35.9368 7.54655 35.2766 7.85205 35.1183C8.54474 34.7536 8.8301 33.5748 8.8301 33.5748C8.8301 33.5748 10.3375 33.0485 10.5411 32.6426C10.7448 32.2366 13.5972 30.4122 13.5972 30.4122C13.5972 30.4122 14.751 29.6717 15.2176 29.2256C15.2837 29.1673 15.3413 29.1001 15.3888 29.026C15.5511 28.7361 16.6108 28.4974 17.0417 28.4115C17.1536 28.3892 17.223 28.377 17.223 28.377C17.3969 28.062 17.6168 27.7745 17.8754 27.5239C18.0511 27.3688 18.2704 26.8347 18.455 26.3172C18.6553 25.7529 18.8109 25.2099 18.8109 25.2099C19.1377 24.1136 19.7889 24.4381 19.7889 24.4381C19.7881 24.5879 19.8023 24.7373 19.8315 24.8842C20.1034 26.2224 21.5805 26.78 22.356 27.4056C23.2121 28.0948 24.5561 29.8825 25.6158 30.2471C26.4932 30.5494 27.5104 31.6891 27.8327 32.0694L27.8573 32.0983C27.911 32.1608 27.9378 32.1965 27.9378 32.1965C27.9378 32.1965 28.5388 32.1653 28.9047 32.1586H29.0379C29.1123 32.1511 29.183 32.1225 29.2415 32.076C29.6052 31.8296 30.1468 31.1069 30.383 30.9408C30.6672 30.7367 30.9537 27.448 30.9537 27.448L30.9682 27.4413C31.9832 26.9674 33.072 31.7114 33.072 31.7114C33.072 31.7114 34.9867 32.2801 35.1501 32.686C35.1814 32.7663 35.3258 32.9091 35.5429 33.0819C36.5314 33.8348 37.5835 34.5008 38.6874 35.0725C38.712 35.0848 38.7355 35.0971 38.7602 35.1071C38.7824 35.119 38.8051 35.1298 38.8284 35.1395C38.8698 35.1595 38.9101 35.1774 38.9482 35.1941C39.0086 35.2209 39.0645 35.2432 39.116 35.261L39.1832 35.2844C39.3436 35.3376 39.4946 35.4155 39.6308 35.5153C39.6711 35.5443 39.7114 35.5744 39.7505 35.6067C39.9029 35.7331 40.043 35.8735 40.169 36.026C40.1881 36.0483 40.206 36.0717 40.2239 36.0941C40.3089 36.2 40.385 36.3048 40.4477 36.4018C40.5505 36.5515 40.6443 36.7072 40.7286 36.868C40.7286 36.868 42.3982 39.7106 42.9286 40.034C43.459 40.3574 43.7847 43.6483 43.7847 43.6483L41.9942 50.2625C41.9942 50.2625 41.9103 51.9352 41.7536 53.6415C41.6663 54.5983 41.5555 55.5719 41.4235 56.2722Z" fill="#CED7E7"/>
<path d="M27.9382 32.3972C27.9382 32.3972 26.7375 33.0463 25.7997 33.1076C25.6769 33.1133 25.5539 33.1062 25.4327 33.0864C24.4501 32.9381 23.0088 32.1329 23.0088 32.1329L24.6997 30.2851L26.7565 31.301L27.513 32.0024L27.9382 32.3972Z" fill="#63667E"/>
<path opacity="0.1" d="M37.5555 15.8579C37.5129 15.9179 37.4646 15.9735 37.4111 16.0241C36.8225 16.5817 35.7773 16.3508 34.975 16.2215C34.2777 16.1079 33.5966 15.9117 32.9461 15.6371C32.3799 15.3962 31.7006 15.1018 31.1915 15.4475C30.9956 15.5791 30.8613 15.7899 30.6577 15.9059C30.454 16.0218 30.1944 16.0297 29.9538 16.033C29.1705 16.033 28.3871 16.0419 27.6228 15.8657C26.4825 15.6003 25.303 14.9323 24.2187 15.3728C23.3704 15.7163 22.9105 16.6363 22.6811 17.5207C22.5692 17.9545 22.4864 18.4128 22.2335 18.7808C21.9806 19.1488 21.4916 19.4098 21.0753 19.2369C20.4609 18.9815 20.3703 17.9422 19.6295 17.8898C18.8159 17.8329 18.826 18.6704 19.0632 19.276C19.4146 20.1681 19.8745 21.0602 19.8947 21.9903C19.0203 20.4297 18.6072 18.6543 18.703 16.8695C18.7989 15.0846 19.3998 13.3633 20.4363 11.9046C20.6167 11.7933 20.7578 11.6288 20.8403 11.434C20.8486 11.4076 20.8553 11.3808 20.8604 11.3537C20.922 11.0425 20.7485 10.7158 20.7384 10.3902C20.6993 9.59504 21.5632 9.04079 22.3555 8.94043C22.8825 8.87352 23.4219 8.92481 23.9501 8.90809C24.2162 8.90225 24.4807 8.86709 24.739 8.80326C25.1846 8.6702 25.6019 8.45662 25.97 8.17318C27.2398 7.87339 28.558 7.8372 29.8425 8.06685C31.1269 8.29651 32.3502 8.78711 33.4363 9.50812C34.5224 10.2291 35.4479 11.1651 36.1554 12.2579C36.8629 13.3507 37.3372 14.5769 37.5488 15.8601L37.5555 15.8579Z" fill="black"/>
<path d="M37.7465 15.2011C37.6907 15.4217 37.5745 15.6224 37.4108 15.781C36.8222 16.3386 35.777 16.1066 34.9746 15.9772C34.2774 15.8661 33.5961 15.6714 32.9458 15.3973C32.3796 15.1576 31.7003 14.8632 31.1911 15.2089C30.9953 15.3405 30.861 15.5512 30.6573 15.6672C30.4537 15.7832 30.1941 15.791 29.9535 15.7932C29.1701 15.7988 28.3868 15.8033 27.6225 15.6271C26.4822 15.3605 25.3027 14.6937 24.2183 15.1331C23.3701 15.4765 22.9102 16.3977 22.6808 17.282C22.5689 17.7158 22.4861 18.1742 22.2331 18.5411C21.9802 18.9079 21.4912 19.1711 21.0749 18.9983C20.4606 18.7429 20.3699 17.7036 19.6291 17.6511C18.8156 17.5943 18.8256 18.4318 19.0629 19.0373C19.4792 20.0934 20.0454 21.1439 19.8596 22.2635C19.675 22.2635 19.3695 22.2568 19.1882 22.2524C19.3292 22.0126 19.0606 21.7271 18.7932 21.6457C18.5257 21.5643 18.2135 21.5654 18.0099 21.3714C17.8062 21.1773 17.8051 20.8774 17.8263 20.6086C17.8728 20.0342 18.0138 19.4713 18.2437 18.9425C18.3903 18.608 18.5795 18.2455 18.4675 17.8954C18.4004 17.7366 18.3195 17.584 18.2258 17.4393C17.9931 16.9932 18.0479 16.4356 18.2471 15.975C18.3321 15.7787 18.3937 15.5936 18.4642 15.4174C18.5532 15.167 18.6821 14.9324 18.8458 14.7227C19.102 14.4048 19.3527 13.9264 19.0696 13.6309C18.998 13.5562 19.1412 13.5049 19.0953 13.4079C19.0872 13.3913 19.0816 13.3736 19.0785 13.3554C19.0654 13.238 19.0939 13.1196 19.1591 13.0209C19.1723 12.9952 19.1869 12.9703 19.2028 12.9462C19.2156 12.9207 19.2302 12.8961 19.2464 12.8726C19.4942 12.4603 19.8235 12.1025 20.2144 11.821C20.4572 11.6459 20.7415 11.4775 20.8377 11.1942C20.9496 10.8597 20.7526 10.5039 20.7359 10.1504C20.6967 9.35528 21.5606 8.80103 22.3529 8.70067C23.1452 8.6003 23.9665 8.76647 24.7387 8.56239C25.8342 8.27467 26.6041 7.31115 27.599 6.77028C28.1432 6.48029 28.7467 6.31808 29.3635 6.29605C29.9802 6.27401 30.5939 6.39274 31.1576 6.64315C32.3191 7.17175 33.1953 8.2401 34.4084 8.64156C34.8381 8.78431 35.3036 8.84118 35.6908 9.0776C36.1384 9.35194 36.4104 9.83147 36.6431 10.3043C36.9979 11.0214 37.0695 11.7418 37.3146 12.5012C37.5093 13.1034 37.779 13.8907 37.8013 14.5844C37.8139 14.7915 37.7954 14.9994 37.7465 15.2011Z" fill="#896363"/>
<g opacity="0.1">
<path opacity="0.1" d="M19.215 13.8038C19.2329 13.7324 19.2347 13.6579 19.2202 13.5858C19.2057 13.5137 19.1752 13.4456 19.1311 13.3867C19.1602 13.4737 19.0337 13.5238 19.1031 13.5963C19.1584 13.6542 19.197 13.7259 19.215 13.8038Z" fill="black"/>
<path opacity="0.1" d="M19.128 13.1313C19.1148 13.1702 19.1069 13.2107 19.1045 13.2517C19.1257 13.2161 19.1548 13.1793 19.128 13.1313Z" fill="black"/>
<path opacity="0.1" d="M37.442 15.5089C36.8523 16.0665 35.8082 15.8356 35.0036 15.7051C34.3068 15.5934 33.6263 15.3975 32.977 15.1219C32.4096 14.881 31.7315 14.5866 31.2212 14.9323C31.0265 15.0639 30.8922 15.2747 30.6874 15.3907C30.4826 15.5066 30.2241 15.5145 29.9835 15.5167C29.2002 15.5167 28.4169 15.5267 27.6514 15.3494C26.5123 15.084 25.3328 14.4182 24.2484 14.8565C23.4002 15.2011 22.9403 16.1211 22.7109 17.0055C22.5989 17.4393 22.5173 17.8976 22.2632 18.2656C22.0092 18.6336 21.5202 18.8946 21.105 18.7228C20.4907 18.4663 20.4 17.4281 19.6592 17.3757C19.0807 17.3344 18.9195 17.7471 18.9587 18.2054C18.9923 17.8552 19.1825 17.5854 19.6592 17.6188C20.4 17.6712 20.4907 18.7106 21.105 18.966C21.5202 19.1388 22.0103 18.879 22.2632 18.5087C22.5161 18.1385 22.5989 17.6824 22.7109 17.2497C22.9403 16.3653 23.4002 15.4442 24.2484 15.1007C25.3328 14.6613 26.5123 15.3238 27.6514 15.5936C28.4124 15.7709 29.2024 15.7654 29.9835 15.7598C30.2241 15.7598 30.4782 15.7531 30.6874 15.6349C30.8967 15.5167 31.0231 15.3081 31.2212 15.1754C31.7315 14.8308 32.4096 15.1253 32.977 15.365C33.6264 15.6405 34.3069 15.8367 35.0036 15.9494C35.8082 16.0787 36.8523 16.3118 37.442 15.752C37.7621 15.4475 37.8583 15.007 37.837 14.5253C37.8191 14.9078 37.7072 15.2546 37.442 15.5089Z" fill="black"/>
<path opacity="0.1" d="M20.7749 9.94856C20.7687 10.0041 20.7664 10.06 20.7681 10.1158C20.7793 10.3478 20.8677 10.5798 20.8957 10.8061C20.9371 10.5285 20.8084 10.2385 20.7749 9.94856Z" fill="black"/>
<path opacity="0.1" d="M18.501 17.8608C18.5103 17.8941 18.5174 17.928 18.5223 17.9623C18.5404 17.8472 18.5332 17.7296 18.501 17.6177C18.4343 17.4584 18.3534 17.3054 18.2593 17.1605C18.1753 16.9955 18.1254 16.8153 18.1127 16.6308C18.09 16.8972 18.1407 17.1648 18.2593 17.4047C18.3536 17.5491 18.4345 17.7018 18.501 17.8608Z" fill="black"/>
<path opacity="0.1" d="M19.8896 21.9847L19.235 21.9747C19.2503 22.0141 19.2564 22.0565 19.2529 22.0986C19.2494 22.1407 19.2364 22.1814 19.2148 22.2178C19.3995 22.2178 19.7061 22.2245 19.8863 22.229C19.9176 22.0381 19.9285 21.8445 19.9187 21.6513C19.9162 21.763 19.9065 21.8743 19.8896 21.9847Z" fill="black"/>
<path opacity="0.1" d="M18.8191 21.368C18.5516 21.2878 18.2406 21.2866 18.0414 21.0915C17.9241 20.9637 17.858 20.7974 17.8556 20.6242C17.8388 20.8807 17.8556 21.1573 18.0414 21.3357C18.2406 21.5309 18.5516 21.532 18.8191 21.6123C18.9061 21.6375 18.987 21.6802 19.0569 21.7377C19.1268 21.7952 19.1841 21.8664 19.2253 21.9468C19.3383 21.716 19.0787 21.445 18.8191 21.368Z" fill="black"/>
</g>
<path opacity="0.1" d="M39.1778 71.5045C39.0524 71.432 38.9249 71.364 38.7951 71.2993C38.5276 71.165 38.2535 71.0444 37.9737 70.938C36.6812 70.4473 35.2969 70.2689 33.8936 70.299C33.3341 70.512 32.9704 70.6648 32.9704 70.6648L32.2587 70.8789L32.1401 70.9146C32.1322 70.8365 32.1233 70.7584 32.1154 70.6793C32.1076 70.6001 32.0987 70.5243 32.0897 70.4462C31.839 68.0809 31.6421 65.6509 31.6421 65.6509V63.5521V63.3079L31.6287 57.1242L31.5168 55.0857L31.4642 54.1835L31.4541 54.0117L31.4339 53.6593L31.4228 53.4497C31.3981 53.3832 31.3771 53.3155 31.3601 53.2467C31.3523 53.2188 31.3444 53.1876 31.3377 53.1553C31.3097 53.0437 31.2795 52.8999 31.2482 52.7438C31.0434 51.7178 30.7871 49.9881 30.7715 49.6369C30.7513 49.1685 30.344 46.3671 30.344 46.3671C30.3026 44.8248 29.0011 41.9209 28.6733 41.3733C28.3454 40.8258 27.9794 37.536 28.1025 37.3587C28.1663 37.2639 28.2077 36.703 28.2335 36.1855C28.2335 36.1264 28.2391 36.0684 28.2413 36.0115C28.2581 35.6067 28.2659 35.2688 28.2659 35.2688L29.5461 35.0168L29.8897 34.9499L29.9165 34.9443L29.9277 34.9666C29.9646 35.0346 30.0799 35.2521 30.2153 35.5376C30.231 35.5677 30.2455 35.6 30.2612 35.6324C30.2679 35.648 30.2757 35.6636 30.2836 35.6792C30.5342 36.2257 30.8241 36.9449 30.8118 37.3587C30.7916 38.0902 31.6275 39.8567 31.6275 39.8567C31.7081 40.2626 33.4807 44.3018 33.4807 44.3018C33.4807 44.3018 34.9276 48.2607 34.8459 48.9109C34.7642 49.561 35.5386 53.8645 35.5386 53.8645L36.3331 58.2907C36.7192 59.1628 37.2284 61.1723 37.2284 61.1723L37.422 62.312L37.4589 62.5295L37.9748 65.5706L38.2277 67.0605C38.2277 67.0605 38.334 67.8523 38.4951 68.7333C38.5086 68.8125 38.5242 68.8927 38.5399 68.973C38.6392 69.553 38.7802 70.1251 38.9618 70.6849C39.0518 70.953 39.124 71.2268 39.1778 71.5045Z" fill="black"/>
<path d="M39.3171 71.5837C39.2712 71.5569 39.2253 71.5302 39.1783 71.5045C39.053 71.432 38.9254 71.364 38.7956 71.2993C38.5282 71.165 38.2541 71.0444 37.9742 70.938C36.6817 70.4473 35.2975 70.2689 33.8942 70.299C33.3347 70.512 32.971 70.6648 32.971 70.6648L32.2593 70.8789C32.2503 70.8008 32.2425 70.7228 32.2335 70.6436C32.2246 70.5644 32.2179 70.5009 32.2112 70.4295C31.9605 68.0697 31.7635 65.6509 31.7635 65.6509V63.5321V63.2878L31.7501 57.1198L31.6382 55.1726L31.6158 54.7689L31.6001 54.4957L31.58 54.1344L31.5599 53.7675L31.5453 53.5032V53.4452C31.5453 53.4396 31.5453 53.433 31.5375 53.4263C31.5162 53.366 31.4905 53.2746 31.4625 53.1586L31.4491 53.1029C31.4435 53.0772 31.4368 53.0493 31.4312 53.0215C31.2208 52.0702 30.9119 50.0194 30.8952 49.6346C30.875 49.1663 30.4677 46.3649 30.4677 46.3649C30.4263 44.8226 29.1248 41.9187 28.7969 41.3711C28.4691 40.8236 28.1042 37.5338 28.2262 37.3565C28.2967 37.2449 28.3381 36.568 28.365 36.0093C28.365 35.9647 28.365 35.9212 28.365 35.8799C28.3795 35.5354 28.3851 35.2666 28.3851 35.2666L29.5758 35.0324L29.8779 34.9733L29.9249 34.9644L30.0368 34.9421C30.0368 34.9421 30.1834 35.212 30.3591 35.5833L30.3815 35.6301C30.6378 36.181 30.941 36.9305 30.9321 37.3565C30.9119 38.088 31.7479 39.8545 31.7479 39.8545C31.8284 40.2604 33.601 44.2996 33.601 44.2996C33.601 44.2996 35.0479 48.2585 34.9662 48.9086C34.8846 49.5588 35.6589 53.8623 35.6589 53.8623L36.4535 58.2885C36.8395 59.1605 37.3487 61.1701 37.3487 61.1701L37.5289 62.2318L37.5658 62.447L37.972 64.8469L38.3469 67.0583C38.3469 67.0583 38.4588 67.8467 38.6132 68.7311C38.6278 68.8113 38.6423 68.8916 38.658 68.973C38.7571 69.5556 38.8981 70.1303 39.0799 70.6927C39.1791 70.984 39.2583 71.2817 39.3171 71.5837Z" fill="#63667E"/>
<path d="M38.3074 14.3089C38.3074 14.3089 37.8799 14.8576 37.4939 14.8576C37.1078 14.8576 35.6049 14.7963 34.8216 14.5532C34.0382 14.31 30.1977 14.126 30.1977 14.126C30.1977 14.126 24.7591 14.1461 24.5756 13.9632C24.392 13.7803 21.1938 12.8057 20.8682 12.867C20.7999 12.8804 20.6332 12.9094 20.4105 12.9462L20.1553 12.9874C19.7693 13.0488 19.2869 13.1201 18.846 13.1726C18.3011 13.2361 17.8221 13.2685 17.6699 13.2127V12.7454C17.6699 12.7454 18.3011 11.831 18.3414 11.5689C18.3816 11.3069 18.9121 7.50742 20.2974 6.14801C20.8698 5.0577 21.796 4.19286 22.925 3.6946C24.7994 2.88163 26.6738 2.19245 26.6738 2.19245L27.0017 2.14561L28.0592 1.98948C28.0913 1.95759 28.1261 1.92849 28.1632 1.9025C28.4564 1.67946 29.345 1.19436 30.5032 2.23705L30.708 2.56269C30.708 2.56269 34.2721 3.39462 35.9216 6.29744C37.5711 9.20027 37.6539 12.0429 37.7759 13.3421C37.7759 13.3421 37.6942 13.7078 37.8576 13.8495C37.9167 13.9015 37.9731 13.9566 38.0265 14.0145C38.0411 14.029 38.0556 14.0435 38.0691 14.0591C38.1161 14.106 38.1597 14.155 38.1955 14.1952C38.1998 14.1983 38.2036 14.2021 38.2067 14.2063C38.2154 14.2169 38.2248 14.2269 38.2347 14.2364L38.3074 14.3089Z" fill="#FED253"/>
<path opacity="0.05" d="M38.3076 14.3089C38.3076 14.3089 37.8801 14.8576 37.494 14.8576C37.108 14.8576 35.6051 14.7963 34.8217 14.5532C34.0384 14.31 30.1978 14.126 30.1978 14.126C30.1978 14.126 24.7593 14.1461 24.5757 13.9632C24.3922 13.7803 21.194 12.8057 20.8683 12.867C20.8001 12.8804 20.6333 12.9094 20.4106 12.9462L20.3524 12.5893L20.3379 12.5012C20.3379 12.5012 26.5106 11.182 30.6253 11.8734C34.7401 12.5648 37.776 13.3343 37.776 13.3343C37.776 13.3343 37.6943 13.7 37.8577 13.8417C37.9169 13.8937 37.9733 13.9488 38.0267 14.0067C38.0412 14.0212 38.0558 14.0357 38.0692 14.0513C38.1162 14.0982 38.1599 14.1472 38.1957 14.1874C38.1999 14.1905 38.2037 14.1943 38.2069 14.1985C38.2156 14.2091 38.225 14.2191 38.2348 14.2286L38.3076 14.3089Z" fill="black"/>
<path opacity="0.1" d="M37.7468 15.2011C36.9848 15.2602 35.5804 15.0751 34.966 14.9847C34.7914 14.9591 34.6202 14.9279 34.4479 14.8899C33.7888 14.7472 31.7622 14.3468 30.5312 14.532C29.044 14.755 24.8476 14.3491 24.8476 14.3491C24.8476 14.3491 22.2603 13.8216 21.2207 13.3956C20.8391 13.2383 20.2013 13.1893 19.5668 13.2673C19.405 13.2875 19.2443 13.3161 19.0856 13.3532C18.2194 13.5573 17.4887 14.0223 17.6152 14.8152C17.5668 14.7574 17.5219 14.6967 17.4809 14.6334C17.426 13.9086 17.6521 13.477 17.9654 13.2227L18.0393 13.1926C18.422 13.0842 18.8116 13.0012 19.2053 12.9439C19.2669 12.9339 19.3307 12.925 19.3956 12.9172C20.509 12.7677 22.1193 12.7343 23.4779 13.4157C23.4779 13.4157 24.7401 14.0056 25.5962 14.0056C26.4523 14.0056 33.4184 14.0669 35.0488 14.5331C35.3734 14.6265 35.7044 14.6962 36.0392 14.7416C36.6336 14.818 37.2376 14.7612 37.8073 14.5755C37.8189 14.7858 37.7985 14.9968 37.7468 15.2011Z" fill="black"/>
<path opacity="0.1" d="M38.3074 14.3089C38.3074 14.3089 37.8799 14.8576 37.4939 14.8576C37.1078 14.8576 35.6049 14.7963 34.8216 14.5532C34.0382 14.3101 30.1977 14.126 30.1977 14.126C30.1977 14.126 24.7591 14.1461 24.5756 13.9632C24.392 13.7803 21.1938 12.8057 20.8682 12.867C20.7999 12.8804 20.6332 12.9094 20.4105 12.9462L20.1553 12.9874C19.7122 12.9852 19.2711 13.0476 18.846 13.1726C18.3011 13.2361 17.8221 13.2685 17.6699 13.2127V13.1201C17.7873 13.0523 17.9096 12.9934 18.0359 12.9439C18.791 12.7332 19.5686 12.6127 20.3523 12.5849C21.3292 12.5492 22.4718 12.6629 23.4755 13.167C23.4755 13.167 24.7378 13.7569 25.5939 13.7569C26.45 13.7569 33.4161 13.8171 35.0465 14.2844C35.3712 14.377 35.7022 14.4463 36.0369 14.4918C36.7712 14.584 37.5169 14.4773 38.1955 14.1829C38.1998 14.1861 38.2036 14.1898 38.2067 14.1941C38.2155 14.2046 38.2248 14.2147 38.2347 14.2242L38.3074 14.3089Z" fill="black"/>
<path d="M17.6309 14.7963C17.6309 14.7963 16.2656 13.7603 18.0382 13.07C18.0382 13.07 21.1346 12.1165 23.4779 13.293C23.4779 13.293 24.7402 13.8807 25.5963 13.8807C26.4523 13.8807 33.4184 13.942 35.0489 14.4093C35.3736 14.502 35.7045 14.5713 36.0392 14.6167C36.9066 14.7215 37.7853 14.5551 38.5537 14.1405C38.6656 14.0792 38.7663 14.048 38.7965 14.0837C38.8984 14.2063 38.8178 14.9167 37.9215 15.0583C37.222 15.1699 35.633 14.9591 34.9649 14.8621C34.7915 14.8364 34.6191 14.8041 34.4479 14.7673C33.7888 14.6245 31.7622 14.2242 30.5257 14.4093C29.0396 14.6323 24.842 14.2264 24.842 14.2264C24.842 14.2264 22.2559 13.6989 21.2163 13.2718C20.1767 12.8447 17.2437 13.2127 17.6309 14.7963Z" fill="#FED253"/>
<path opacity="0.1" d="M29.1402 3.91095C29.0283 3.75036 27.5903 2.60284 27.0039 2.13892L28.0614 1.9828C28.0935 1.95091 28.1284 1.92181 28.1655 1.89581C28.9343 2.69986 29.1402 3.91095 29.1402 3.91095Z" fill="black"/>
<path opacity="0.1" d="M24.4757 10.0657L24.0068 10.756L25.7996 10.6957L25.8398 9.92403L24.4757 10.0657Z" fill="black"/>
<path opacity="0.1" d="M35.4141 10.8987L35.6177 11.5277L36.7592 11.7105L36.2701 10.9589L35.4141 10.8987Z" fill="black"/>
<path opacity="0.1" d="M15.8174 32.0136C15.9394 32.2166 19.9523 37.478 21.012 37.3319C22.0718 37.1858 15.8174 32.0136 15.8174 32.0136Z" fill="black"/>
<path opacity="0.1" d="M29.2627 36.8223C29.2627 36.8223 30.2407 37.7568 30.0975 38.1215C29.9543 38.4861 29.2627 36.8223 29.2627 36.8223Z" fill="black"/>
<path opacity="0.1" d="M18.5882 43.2379C18.5882 43.2379 17.7321 47.237 18.1809 47.3641C18.6296 47.4913 18.5882 43.2379 18.5882 43.2379Z" fill="black"/>
<path opacity="0.1" d="M29.5889 58.768C29.731 59.1739 30.9127 61.8136 31.1779 61.9552C31.4431 62.0968 29.5889 58.768 29.5889 58.768Z" fill="black"/>
<path opacity="0.1" d="M43.3192 47.9273C43.2778 48.0689 42.2595 48.902 42.4833 49.2064C42.7071 49.5109 43.3192 47.9273 43.3192 47.9273Z" fill="black"/>
<path opacity="0.1" d="M35.4142 55.3365C35.3941 55.4391 35.1904 57.5669 35.5776 57.9762C35.9648 58.3855 35.4142 55.3365 35.4142 55.3365Z" fill="black"/>
<path opacity="0.1" d="M45.8534 66.3903C45.558 66.5542 45.2525 66.7126 44.9414 66.8642C44.6057 67.027 44.2699 67.1821 43.9275 67.3281C43.791 67.3872 43.6545 67.4452 43.5191 67.501C43.3132 67.5857 43.1095 67.6672 42.9081 67.7452C42.2959 67.9839 41.7062 68.1913 41.1814 68.3664C40.9777 68.4344 40.783 68.4969 40.6017 68.5548C39.6886 68.8437 39.082 69.0009 39.082 69.0009C38.9435 68.9714 38.8017 68.9597 38.6602 68.9664C38.621 68.9664 38.5807 68.9664 38.5393 68.9664C38.3498 68.98 38.1611 69.0039 37.9742 69.0377C36.7242 69.2608 34.9583 69.8864 33.8941 70.2957C33.3346 70.5087 32.9709 70.6614 32.9709 70.6614L32.2592 70.8755L32.1406 70.9112C31.3696 71.1454 30.2852 71.4777 29.8947 71.616C29.2635 71.8391 23.7835 72.9754 23.7835 72.9754C23.2829 73.1116 22.7715 73.2049 22.2549 73.2542C20.982 73.3706 19.7025 73.3997 18.4255 73.3412C17.1431 73.4238 15.0684 73.1427 13.8609 72.9531L13.6685 72.923C13.2018 72.8472 12.9053 72.7926 12.9053 72.7926L13.0619 72.5773L16.2747 68.1601L16.2937 68.1333L19.2872 64.0194L19.3991 63.87L19.671 63.4964C19.671 63.4964 19.8344 63.2733 20.4633 63.2588C20.5372 63.2588 20.6178 63.2588 20.7062 63.2588C21.2344 63.3012 21.7556 63.4071 22.2583 63.5744L22.4038 63.6179C24.5713 64.2369 27.9218 64.0818 27.9218 64.0818C27.9218 64.0818 30.0066 63.7473 31.6448 63.5466L31.7668 63.5309C32.3022 63.4556 32.8412 63.409 33.3816 63.3915C34.3798 63.4116 36.5396 62.8841 36.5396 62.8841C37.004 62.7849 37.1998 62.7012 37.4617 62.515C37.4963 62.4905 37.5333 62.4637 37.5736 62.4347C37.6855 62.3511 37.8142 62.2485 37.9798 62.1213C38.2819 61.8905 38.706 61.5771 39.373 61.1377C39.4312 61.0998 39.4927 61.0619 39.5588 61.0262C39.6248 60.9905 39.7087 60.9426 39.7893 60.9024C40.4352 60.5976 41.1162 60.3729 41.817 60.2333C42.3983 60.1088 42.9882 60.0279 43.5817 59.9913H43.6701C45.3487 59.9021 47.0631 60.1887 48.0658 61.1288C48.2411 61.294 48.3938 61.4815 48.5201 61.6864C48.5814 61.7837 48.6359 61.8851 48.6835 61.9897C48.7749 62.1894 48.8429 62.399 48.886 62.6143C48.8942 62.6544 48.9009 62.6945 48.9062 62.7347C48.9062 62.747 48.9062 62.7581 48.9062 62.7704C48.9062 62.8027 48.9129 62.8351 48.9151 62.8674C49.0046 64.2023 47.6148 65.4089 45.8534 66.3903Z" fill="black"/>
<path d="M12.9053 72.5528C12.9053 72.5528 16.531 73.2219 18.4255 73.1003C18.4255 73.1003 21.9091 73.2832 23.7835 72.7357C23.7835 72.7357 29.2669 71.5982 29.8947 71.3751C30.5224 71.1521 32.9709 70.4205 32.9709 70.4205C32.9709 70.4205 37.7381 68.431 39.082 68.7556C39.082 68.7556 49.6347 66.0356 48.8804 62.3611C48.1262 58.6866 41.4656 59.5196 39.3685 60.8991C37.2714 62.2786 37.578 62.4224 36.5373 62.6455C36.5373 62.6455 34.3776 63.173 33.3794 63.1529C32.3812 63.1328 27.9195 63.8432 27.9195 63.8432C27.9195 63.8432 24.4158 64.006 22.2572 63.3358C20.0985 62.6655 19.6699 63.2544 19.6699 63.2544L12.9053 72.5528Z" fill="#FFA2A2"/>
<path opacity="0.1" d="M20.7671 63.0157C20.7677 63.0202 20.7677 63.0247 20.7671 63.0291C20.7593 63.112 20.7378 63.193 20.7033 63.2689C20.2736 64.3194 17.8341 67.1531 17.8341 67.1531C17.7229 67.4897 17.5887 67.8183 17.4324 68.1367C17.0962 68.8171 16.7091 69.4714 16.2742 70.0938C15.6295 71.025 14.9257 71.9142 14.167 72.7558H14.1614C14.0649 72.8271 13.9644 72.893 13.8604 72.9532C13.5974 73.1093 13.2024 73.3022 12.8297 73.3256C12.7663 73.3294 12.7026 73.3275 12.6395 73.3201C12.6787 73.3201 12.7167 73.3111 12.7514 73.3044L12.6149 73.2643L12.428 73.2063C12.1147 73.1082 11.8039 73.0007 11.4958 72.884L11.3089 72.8126C11.0105 72.6982 10.7185 72.5751 10.4327 72.4435L10.2458 72.3588C9.94743 72.2205 9.65536 72.0744 9.36963 71.9205C9.26668 71.867 9.16485 71.809 9.06413 71.7543C8.75975 71.5848 8.46134 71.4071 8.16889 71.2213C7.85854 71.0243 7.55491 70.8187 7.25799 70.6046C7.03418 70.1908 6.84954 69.824 6.74882 69.6266C6.5653 69.2597 6.54963 68.7344 6.57201 68.3541C6.57201 68.3151 6.57201 68.2783 6.57873 68.2426C6.59775 68.004 6.62685 67.84 6.62685 67.84C6.46103 67.6191 6.31143 67.3866 6.17923 67.1442C6.10327 67.0238 6.06007 66.8858 6.05389 66.7438C6.05895 66.6868 6.05365 66.6294 6.03823 66.5743C5.95206 66.2219 5.58166 65.6164 5.23923 65.2361C4.98408 64.9562 4.96842 63.9101 4.99304 63.1685C5.00758 62.7224 5.03556 62.3946 5.03556 62.3946C4.98541 62.3623 4.94789 62.3139 4.92925 62.2574C4.83927 62.0133 4.77842 61.7596 4.74796 61.5013C4.74796 61.4645 4.73789 61.4277 4.7323 61.3898C4.66068 60.8779 4.62823 60.3638 4.62823 60.3638C3.80013 59.7627 3.40623 58.8249 3.2227 57.9885L3.1992 57.877C3.09841 57.3629 3.05562 56.8392 3.07163 56.3157C3.07163 56.2655 3.07163 56.2276 3.07163 56.2042C3.07163 56.1808 3.07163 56.1763 3.07163 56.1763C3.07163 56.1763 3.1813 53.7597 3.48792 52.8163C3.50023 52.7761 3.51365 52.7393 3.52708 52.7047C3.54967 52.6455 3.57896 52.589 3.61437 52.5364C3.72627 52.388 3.80573 52.1081 3.87175 51.7769C3.91763 51.5472 3.95568 51.2918 3.98365 51.0375C4.00939 50.8257 4.02954 50.6149 4.0452 50.4197C4.08885 49.8978 4.10227 49.4908 4.10227 49.4908L3.89525 48.4737C3.83818 48.1961 3.79454 47.9161 3.76432 47.6362C3.76432 47.5994 3.75537 47.5626 3.75089 47.5247C3.69855 47.0078 3.6892 46.4875 3.72292 45.969C3.72292 45.9311 3.72292 45.8943 3.72963 45.8575C3.81701 44.6767 4.12679 43.5228 4.64277 42.4562L4.69873 42.3447C4.77333 42.196 4.85166 42.0499 4.93373 41.9064C4.99304 41.8005 5.0557 41.6956 5.12061 41.5919C5.29267 41.3142 5.47944 41.0458 5.68013 40.7879C5.70923 40.75 5.73944 40.7132 5.76965 40.6764C6.11884 40.2449 6.5069 39.8463 6.92899 39.4853C8.05923 38.5174 9.09658 38.0969 10.0388 38.0646C14.1592 37.9196 16.47 45.1817 16.8438 46.4541C16.8796 46.5768 16.8975 46.6437 16.8975 46.6437C16.8975 46.6437 18.5671 48.3087 18.0781 49.0391C17.9832 49.1999 17.9255 49.3797 17.9091 49.5655C17.7748 50.548 18.1598 52.1661 18.1598 52.1661C18.1598 52.1661 18.2963 52.6122 18.6947 53.6805L18.8122 53.9928C19.0617 54.6619 19.1199 55.7849 18.9767 56.7908C18.839 57.7543 18.5156 58.6063 17.9975 58.8249C16.9378 59.271 17.2231 59.717 17.4671 60.0839C17.612 60.3469 17.733 60.6224 17.8285 60.9069C17.9818 61.3184 18.1239 61.7511 18.1777 61.9195C18.1933 61.9664 18.2012 61.992 18.2012 61.992C18.3496 61.9347 18.5038 61.8936 18.6611 61.8693C18.8614 61.8414 19.0595 61.8615 19.0975 62.0322C19.1177 62.1236 19.2329 62.2318 19.3952 62.3399C19.8764 62.67 20.7671 63.0157 20.7671 63.0157Z" fill="black"/>
<path d="M20.5238 63.0157C20.5169 63.1006 20.4953 63.1836 20.46 63.2611C20.0325 64.3127 17.5907 67.1531 17.5907 67.1531C17.479 67.4895 17.3448 67.8181 17.189 68.1367C16.9189 68.6862 16.6136 69.2177 16.2747 69.728C15.5732 70.7826 14.7961 71.7851 13.9494 72.7279L13.9236 72.7558C13.9236 72.7558 13.8251 72.8305 13.6685 72.9264C13.3885 73.1045 13.0801 73.2334 12.7564 73.3078L12.6199 73.2676L12.433 73.2096C12.1197 73.1115 11.809 73.0041 11.5009 72.8873L11.314 72.816C11.0156 72.7015 10.7235 72.5784 10.4378 72.4468L10.2509 72.3621C9.95249 72.2238 9.66042 72.0777 9.37469 71.9238C9.27174 71.8703 9.1699 71.8123 9.06919 71.7577C8.76481 71.5882 8.46639 71.4105 8.17395 71.2246C7.8636 71.0276 7.55996 70.822 7.26304 70.6079C7.12577 70.5098 6.99 70.409 6.85571 70.3057C6.70464 70.0202 6.58378 69.7793 6.50881 69.6299C6.32528 69.263 6.30962 68.7377 6.332 68.3575C6.332 68.3184 6.332 68.2816 6.33871 68.246C6.35773 68.0073 6.38683 67.8434 6.38683 67.8434C6.38683 67.8434 6.29619 67.7218 6.18652 67.5568C6.12497 67.4653 6.05895 67.3594 5.99964 67.2546C5.88773 67.0583 5.80045 66.8598 5.81723 66.7471C5.8195 66.7279 5.8195 66.7084 5.81723 66.6892C5.81555 66.6515 5.80993 66.6141 5.80045 66.5776C5.71428 66.2252 5.34276 65.6197 5.00033 65.2394C4.74519 64.9595 4.72952 63.9135 4.75302 63.1719C4.75302 63.1339 4.75302 63.0971 4.75302 63.0603C4.76869 62.6756 4.79219 62.3979 4.79219 62.3979C4.66573 62.3433 4.56838 61.9385 4.50571 61.5058L4.48893 61.3943C4.41731 60.8824 4.38485 60.3683 4.38485 60.3683C3.55676 59.7672 3.16285 58.8293 2.98045 57.9929C2.85337 57.4072 2.80446 56.8072 2.83497 56.2087C2.83497 56.1908 2.83497 56.1808 2.83497 56.1808C2.83497 56.1808 2.93121 53.7519 3.23783 52.8073C3.25014 52.7672 3.26357 52.7304 3.277 52.6958C3.30385 52.6379 3.33727 52.5833 3.37659 52.533C3.54669 52.2966 3.65971 51.7278 3.73357 51.1457L3.747 51.0342C3.83988 50.2536 3.86562 49.4874 3.86562 49.4874L3.65747 48.4704C3.60077 48.1916 3.55713 47.9124 3.52654 47.6329C3.52095 47.5961 3.51759 47.5582 3.51312 47.5214C3.46079 47.0045 3.45143 46.4841 3.48514 45.9657C3.48514 45.9278 3.48514 45.891 3.49297 45.8542C3.57982 44.6732 3.88963 43.5192 4.40611 42.4528C4.42402 42.4149 4.44192 42.3781 4.46207 42.3413C4.60595 42.0517 4.76585 41.7702 4.94102 41.4982C5.00145 41.4035 5.063 41.3098 5.1279 41.2172C5.22973 41.07 5.33604 40.925 5.44683 40.7845L5.53635 40.673C5.88255 40.2432 6.26722 39.8457 6.68562 39.4853C7.91657 38.4337 9.03562 38.0278 10.0428 38.0646C14.0098 38.2062 16.2367 45.2074 16.6026 46.4541C16.6384 46.5768 16.6563 46.6437 16.6563 46.6437C16.6563 46.6437 18.3271 48.3087 17.838 49.0391C17.7432 49.1999 17.6855 49.3797 17.6691 49.5655C17.5337 50.548 17.9197 52.1661 17.9197 52.1661C17.9197 52.1661 18.0563 52.6122 18.4546 53.6805C18.4904 53.7798 18.5296 53.8835 18.5665 53.9928C18.8161 54.6619 18.8743 55.7849 18.731 56.7908C18.5934 57.7554 18.2711 58.6063 17.7519 58.8249C16.6933 59.2709 16.9775 59.717 17.2226 60.0839C17.3675 60.3469 17.4885 60.6224 17.584 60.9069C17.7776 61.4322 17.9555 61.992 17.9555 61.992C18.0288 61.9638 18.1035 61.9396 18.1794 61.9195C18.335 61.8685 18.4999 61.8514 18.6628 61.8693C18.7079 61.8728 18.7507 61.8904 18.785 61.9197C18.8194 61.949 18.8436 61.9883 18.8541 62.0321C18.8844 62.166 19.116 62.3321 19.3969 62.4894C19.7616 62.6872 20.1379 62.8629 20.5238 63.0157Z" fill="#CED7E7"/>
<path opacity="0.1" d="M5.79395 52.2921C6.18114 52.2721 10.3373 50.6684 11.1934 51.216C12.0494 51.7635 17.3481 55.3165 17.3481 55.3165C17.3481 55.3165 14.0279 50.9929 11.1352 49.9781C8.24242 48.9633 5.79395 52.2921 5.79395 52.2921Z" fill="black"/>
<path opacity="0.1" d="M11.7686 58.8293C11.7686 58.8293 15.9247 59.6613 16.5558 60.23L11.7686 58.8293Z" fill="black"/>
<path opacity="0.1" d="M10.9693 65.0231C10.9089 65.0844 9.40264 68.4534 9.5235 68.4534C9.64436 68.4534 10.929 66.446 10.929 66.446L10.9693 65.0231Z" fill="black"/>
<path opacity="0.1" d="M13.8013 60.9805C13.8013 60.9805 12.5793 61.4077 12.7215 61.4478C12.8636 61.4879 13.7599 61.1634 13.8013 60.9805Z" fill="black"/>
<path opacity="0.1" d="M12.5791 66.0769C12.7828 66.5029 13.4341 67.782 13.5773 67.579C13.7205 67.3761 12.5791 66.0769 12.5791 66.0769Z" fill="black"/>
<path opacity="0.1" d="M27.8341 32.3114L27.6596 32.5589C27.6596 32.5589 26.2731 31.5854 25.7035 31.098C25.1339 30.6107 23.7888 32.8433 22.7291 33.4522C21.6693 34.0611 19.8777 34.2239 19.8777 34.2239C19.8777 34.2239 18.4923 32.8433 18.5349 32.4396C18.5774 32.0359 17.8836 31.9121 17.8422 31.6277C17.8008 31.3434 17.5568 30.5315 17.2312 30.1256C17.0588 29.9115 17.0342 29.2413 17.0499 28.658C17.1618 28.6357 17.2312 28.6234 17.2312 28.6234C17.4051 28.3085 17.625 28.021 17.8836 27.7703C18.2506 27.4458 18.8202 25.4563 18.8202 25.4563C19.1459 24.3601 19.7971 24.6846 19.7971 24.6846C19.7971 26.3496 21.5093 26.9585 22.3642 27.6488C23.2192 28.3391 24.5643 30.1256 25.624 30.4914C26.4935 30.7869 27.5107 31.93 27.8341 32.3114Z" fill="black"/>
<path d="M27.8339 32.0671L27.6593 32.3158C27.6593 32.3158 26.2672 31.3445 25.6976 30.8538C25.128 30.3631 23.7829 32.5991 22.7232 33.2079C21.6635 33.8168 19.8719 33.9808 19.8719 33.9808C19.8719 33.9808 18.4865 32.5991 18.529 32.1965C18.5715 31.7939 17.8777 31.669 17.8363 31.3835C17.7949 31.098 17.551 30.2873 17.2253 29.8814C17.053 29.6672 17.0284 28.997 17.044 28.4138L17.2253 28.3803C17.3992 28.0654 17.6191 27.7779 17.8777 27.5272C18.2448 27.2016 18.8144 25.2132 18.8144 25.2132C19.14 24.117 19.7913 24.4404 19.7913 24.4404C19.7913 26.1053 21.5034 26.7153 22.3584 27.4056C23.2133 28.0959 24.5584 29.8814 25.6182 30.2471C26.4933 30.5471 27.5105 31.6857 27.8339 32.0671Z" fill="#CED7E7"/>
<path opacity="0.1" d="M27.9382 32.3972C27.9382 32.3972 26.7374 33.0463 25.7997 33.1076C25.6769 33.1133 25.5539 33.1062 25.4326 33.0864C25.4326 33.0864 26.4677 32.3158 27.429 32.1586L27.9382 32.3972Z" fill="black"/>
<path opacity="0.1" d="M30.3834 35.706C30.3834 35.706 28.8694 35.1183 28.3691 36.0026C28.3859 35.5967 28.3926 35.2599 28.3926 35.2599L30.0432 34.9343C30.0432 34.9343 30.2022 35.2276 30.3879 35.6223C30.3834 35.6747 30.3834 35.706 30.3834 35.706Z" fill="black"/>
<path d="M25.4326 33.0864C25.4326 33.0864 27.2466 32.0013 28.1183 32.0928C29.0326 32.1876 30.804 32.2545 30.804 32.2545C30.804 32.2545 30.193 33.6351 30.2747 33.9195C30.3564 34.2038 30.3766 35.5844 30.3766 35.5844C30.3766 35.5844 28.5436 34.8741 28.2381 36.1933C28.2381 36.1933 27.2399 34.7112 26.5673 34.264C26.1211 33.9427 25.7367 33.5438 25.4326 33.0864Z" fill="#63667E"/>
<path opacity="0.1" d="M35.6795 34.3466C35.1502 34.3466 33.2758 33.1678 32.8685 32.3972C32.4611 31.6266 31.8904 32.4775 31.3611 32.763C31.0254 32.9459 29.6948 32.5634 28.9775 32.2857C29.3412 32.0393 30.1469 31.3456 30.3831 31.1794C30.6673 30.9754 30.9538 27.6867 30.9538 27.6867C31.9721 27.1592 33.0721 31.95 33.0721 31.95C33.0721 31.95 34.9879 32.5188 35.1502 32.9247C35.1815 33.005 35.3259 33.1478 35.543 33.3206C35.7668 33.8827 35.8899 34.3466 35.6795 34.3466Z" fill="black"/>
<path d="M35.6801 34.1023C35.1508 34.1023 33.2764 32.9247 32.869 32.1541C32.4617 31.3835 31.891 32.2344 31.3617 32.5188C31.0259 32.7017 29.9595 32.3482 29.2422 32.0727C29.6059 31.8274 30.1475 31.1047 30.3836 30.9375C30.6679 30.7345 30.9543 27.4458 30.9543 27.4458C31.9727 26.9183 33.0727 31.7092 33.0727 31.7092C33.0727 31.7092 34.9885 32.2779 35.1508 32.6838C35.1821 32.7641 35.3265 32.9069 35.5435 33.0797C35.7674 33.6384 35.8905 34.1023 35.6801 34.1023Z" fill="#CED7E7"/>
<path d="M42.9186 69.6734L60.6343 54.9529C60.8111 54.8041 61.0363 54.7248 61.2677 54.7299L67.8768 54.9027C67.8768 54.9027 68.3345 55.2373 67.663 55.9689L50.9512 69.6355C50.7706 69.7826 50.5464 69.8665 50.3133 69.8741L43.0865 70.1128C43.0346 70.1144 42.9835 70.0998 42.9403 70.0711C42.8971 70.0424 42.8639 70.001 42.8454 69.9527C42.827 69.9043 42.8241 69.8514 42.8372 69.8014C42.8503 69.7513 42.8788 69.7066 42.9186 69.6734Z" fill="#2A3042"/>
<path d="M51.4883 67.8623C51.4883 67.8623 55.3579 73.3847 59.6573 68.2482C63.9567 63.1116 62.7134 60.4129 61.4097 60.2702C60.1061 60.1274 52.7707 65.7513 51.4883 67.8623Z" fill="#FFA2A2"/>
<path opacity="0.1" d="M77.5879 6.09672C77.5879 6.09672 82.5755 -3.54963 88.4706 1.42521C88.4706 1.42521 89.7575 1.89247 89.6602 3.24854C89.6602 3.24854 89.1644 2.97755 88.7705 4.01355C88.6259 4.38116 88.4381 4.73041 88.211 5.05402C87.9093 5.49119 87.4734 5.81909 86.9689 5.98855C86.9689 5.98855 84.3234 7.96354 79.4231 6.4402C79.4231 6.4402 78.0377 6.6387 77.8139 6.46696L79.4243 5.29379C79.4243 5.29379 80.2423 6.50376 81.4385 6.64204C81.4385 6.64204 79.4243 5.38189 79.6548 5.10867C79.7018 5.05291 80.5366 4.52542 80.5366 4.52542C80.5366 4.52542 81.9678 6.62309 83.8232 6.7781C83.8232 6.7781 81.2237 5.59712 80.851 4.32469L82.157 3.59871C82.157 3.59871 83.5602 5.89041 85.6674 6.1469C85.6674 6.1469 82.9929 4.81872 82.4535 3.45931L83.8355 2.92179C83.8355 2.92179 85.2489 5.12985 87.0024 5.3317C87.0024 5.3317 84.0683 3.48607 84.1601 2.81919C84.1601 2.81919 85.4593 2.40211 85.8577 2.45676C85.8577 2.45676 86.9084 4.01802 87.938 4.04589C87.938 4.04589 86.1083 2.60508 86.2292 2.38316C86.2292 2.38316 88.0667 2.28836 89.0268 2.73109C89.0268 2.73109 87.6616 1.97388 86.2292 2.09655C86.2292 2.09655 86.8771 1.33711 87.722 1.16983C87.722 1.16983 86.7092 0.754987 85.7838 2.12443C85.7838 2.12443 84.3548 2.25491 84.178 2.41327C84.178 2.41327 84.9009 0.932301 85.7905 0.302221C85.7905 0.302221 84.4644 0.535295 83.8076 2.54263L82.4065 3.05227C82.4065 3.05227 83.2581 1.04493 84.009 0.424892C84.009 0.424892 82.693 0.870965 82.0641 3.21285L80.7749 3.91096C80.7749 3.91096 81.3759 2.12666 82.0618 1.2557C82.0618 1.2557 80.9305 1.93151 80.4124 4.12396L79.6067 4.68936C79.6067 4.68936 80.0688 3.39351 80.2356 3.03331C80.4023 2.6731 80.3184 2.59839 80.3184 2.59839C79.7583 3.25826 79.393 4.0601 79.2631 4.91462C79.2631 4.91462 77.6808 6.18593 77.5879 6.09672Z" fill="#2A3042"/>
<path opacity="0.1" d="M98.2158 11.2555C98.2158 11.2555 100.47 6.89629 103.133 9.14451C103.133 9.14451 103.715 9.35528 103.67 9.96751C103.67 9.96751 103.446 9.84596 103.268 10.3143C103.204 10.4802 103.12 10.6379 103.018 10.7838C102.881 10.9809 102.685 11.1291 102.458 11.2065C102.458 11.2065 101.262 12.0986 99.0473 11.4106C99.0473 11.4106 98.4217 11.4998 98.321 11.4228L99.0484 10.892C99.0484 10.892 99.4177 11.4396 99.9593 11.5009C99.9593 11.5009 99.0506 10.9321 99.1536 10.8084C99.1737 10.7838 99.5508 10.5452 99.5508 10.5452C99.5508 10.5452 100.198 11.4931 101.037 11.5633C101.037 11.5633 99.8619 11.0292 99.6941 10.4482L100.285 10.1214C100.285 10.1214 100.918 11.1574 101.871 11.2734C101.871 11.2734 100.662 10.6734 100.416 10.059L101.04 9.81585C101.04 9.81585 101.678 10.8139 102.47 10.9054C102.47 10.9054 101.144 10.0712 101.187 9.77012C101.187 9.77012 101.773 9.58166 101.953 9.60619C101.953 9.60619 102.428 10.3121 102.893 10.3233C102.893 10.3233 102.066 9.6731 102.121 9.57274C102.121 9.57274 102.952 9.53036 103.384 9.72998C103.384 9.72998 102.767 9.38762 102.121 9.44338C102.299 9.24149 102.533 9.09577 102.793 9.02407C102.793 9.02407 102.335 8.83672 101.917 9.45564C101.917 9.45564 101.271 9.51475 101.191 9.58612C101.191 9.58612 101.518 8.91701 101.92 8.63264C101.92 8.63264 101.32 8.73746 101.025 9.64522L100.398 9.87941C100.398 9.87941 100.782 8.97277 101.122 8.69174C101.122 8.69174 100.527 8.89359 100.242 9.95078L99.6605 10.2653C99.6605 10.2653 99.9313 9.45787 100.241 9.06533C100.241 9.06533 99.7299 9.37089 99.4971 10.3612L99.1323 10.6165C99.1323 10.6165 99.3416 10.0311 99.4166 9.86826C99.4915 9.70544 99.4535 9.67199 99.4535 9.67199C99.2004 9.9712 99.0354 10.3344 98.9768 10.7214C98.9768 10.7214 98.255 11.2957 98.2158 11.2555Z" fill="#2A3042"/>
<path opacity="0.1" d="M73.7949 16.3274C73.7949 16.3274 76.0487 11.9682 78.7187 14.2164C78.7187 14.2164 79.2995 14.4271 79.2559 15.0405C79.2559 15.0405 79.0321 14.9178 78.8541 15.3862C78.7893 15.5519 78.7051 15.7095 78.6035 15.8557C78.4658 16.0537 78.2676 16.202 78.0383 16.2783C78.0383 16.2783 76.8432 17.1705 74.6286 16.4824C74.6286 16.4824 74.0031 16.5728 73.9023 16.4947L74.6297 15.9639C74.6297 15.9639 74.999 16.5114 75.5395 16.5739C75.5395 16.5739 74.6308 16.004 74.7338 15.8802C74.7551 15.8557 75.1322 15.617 75.1322 15.617C75.1322 15.617 75.779 16.5649 76.6172 16.6352C76.6172 16.6352 75.4433 16.101 75.2743 15.52L75.8652 15.1944C75.8652 15.1944 76.4997 16.2293 77.452 16.3453C77.452 16.3453 76.2434 15.7453 75.9972 15.1308L76.6216 14.8877C76.6216 14.8877 77.2606 15.8858 78.0529 15.9772C78.0529 15.9772 76.7268 15.1431 76.7682 14.842C76.7682 14.842 77.3557 14.6535 77.5359 14.6781C77.5359 14.6781 78.0104 15.384 78.4759 15.3962C78.4759 15.3962 77.6489 14.745 77.7038 14.6446C77.7038 14.6446 78.533 14.6022 78.966 14.8018C78.966 14.8018 78.3483 14.4595 77.7026 14.5152C77.8807 14.3134 78.1141 14.1676 78.3741 14.0959C78.3741 14.0959 77.9175 13.9086 77.499 14.5275C77.499 14.5275 76.8533 14.5866 76.7738 14.658C76.7738 14.658 77.0995 13.9889 77.5023 13.7045C77.5023 13.7045 76.9025 13.8093 76.6071 14.7171L75.9726 14.9513C75.9726 14.9513 76.3575 14.0446 76.6966 13.7647C76.6966 13.7647 76.1024 13.9655 75.8182 15.0226L75.2351 15.3371C75.2351 15.3371 75.5071 14.5297 75.817 14.1372C75.817 14.1372 75.3056 14.4428 75.0718 15.433L74.7069 15.6884C74.7069 15.6884 74.9162 15.1029 74.9912 14.9401C75.0662 14.7773 75.0292 14.7439 75.0292 14.7439C74.7756 15.0428 74.6106 15.4061 74.5525 15.7932C74.5525 15.7932 73.8341 16.3676 73.7949 16.3274Z" fill="#2A3042"/>
</g>
<defs>
<clipPath id="clip0_47_2429">
<rect width="120" height="87" rx="3" fill="white"/>
</clipPath>
</defs>
</svg>
