<svg width="140" height="96" viewBox="0 0 140 96" fill="none" xmlns="http://www.w3.org/2000/svg">
<path opacity="0.1" d="M81.3405 14.1946C72.366 13.9087 63.8172 11.2458 55.6553 8.33342C47.4935 5.42103 39.4068 2.19019 30.6464 0.650619C25.0114 -0.342329 18.5689 -0.477731 14.0284 2.29299C9.6607 4.96342 8.24821 9.57461 7.48938 13.8536C6.91837 17.0719 6.58278 20.4594 8.14678 23.4734C9.2337 25.5646 11.1621 27.3235 12.4957 29.327C17.1376 36.3002 13.8568 44.8982 8.82673 51.7059C6.46758 54.8954 3.73152 57.9469 1.91082 61.3458C0.0901144 64.7446 -0.750113 68.6412 0.841436 72.109C2.42046 75.5467 6.18208 78.1269 10.258 79.9447C18.5351 83.6332 28.2897 84.6888 37.8064 85.2868C58.8547 86.6145 80.0169 86.0366 101.133 85.4636C108.945 85.2505 116.785 85.0361 124.478 83.9253C128.745 83.3085 133.152 82.3306 136.248 79.9686C140.183 76.9709 141.157 71.8933 138.521 68.1347C134.101 61.8285 121.877 60.2613 118.786 53.495C117.082 49.7689 118.835 45.6178 121.306 42.1651C126.608 34.7543 135.496 28.2488 135.964 19.7812C136.286 13.9626 132.013 8.13534 125.407 5.38216C118.482 2.4986 108.878 2.85968 103.77 7.63886C98.5095 12.5547 89.2657 14.4478 81.3405 14.1946Z" fill="#2A3042"/>
<path opacity="0.1" d="M100.539 96C109.46 96 116.693 94.8213 116.693 93.3672C116.693 91.9131 109.46 90.7344 100.539 90.7344C91.6179 90.7344 84.3857 91.9131 84.3857 93.3672C84.3857 94.8213 91.6179 96 100.539 96Z" fill="#2A3042"/>
<path d="M36.9889 48.84L36.9489 51.0516L36.6208 68.9823L33.8146 75.5631L24.1426 75.6734V49.858L34.2366 49.0581L36.9889 48.84Z" fill="#5F5D7E"/>
<path opacity="0.1" d="M36.9889 48.84L36.9489 51.0516L36.6208 68.9823L33.8146 75.5631L24.1426 75.6734V49.858L34.2366 49.0581L36.9889 48.84Z" fill="black"/>
<path d="M36.9888 48.84L36.9487 51.0516L36.6206 68.9823L33.8145 75.5631L34.5533 51.0942L34.5507 51.0779L34.2364 49.0581L36.9888 48.84Z" fill="#5F5D7E"/>
<path opacity="0.1" d="M34.2366 49.0581L36.9889 48.84L36.9489 51.0516L34.5509 51.0779L24.1426 51.1945V49.858L34.2366 49.0581Z" fill="black"/>
<path d="M123.928 49.858V75.5242H121.676L112.668 68.9459V49.1346L120.716 48.3774L121.209 48.6043L121.676 48.8199L123.928 49.858Z" fill="#5F5D7E"/>
<path opacity="0.1" d="M123.928 48.6043H121.677V75.5242H123.928V48.6043Z" fill="black"/>
<path opacity="0.1" d="M123.928 48.6043V50.0799L121.676 50.1063L112.668 50.2053V49.1346L120.716 48.3774L121.209 48.6043L121.676 48.8199V48.6043H123.928Z" fill="black"/>
<path d="M123.928 47.7668V49.858L13.29 51.0942V48.4325L23.6996 46.325L114.293 45.6606L123.928 47.7668Z" fill="#5F5D7E"/>
<path opacity="0.1" d="M123.928 47.7668V49.858L13.29 51.0942V48.4325L123.928 47.7668Z" fill="black"/>
<path opacity="0.1" d="M32.1428 47.3192C34.8973 47.3192 37.1303 47.1761 37.1303 46.9995C37.1303 46.823 34.8973 46.6798 32.1428 46.6798C29.3883 46.6798 27.1553 46.823 27.1553 46.9995C27.1553 47.1761 29.3883 47.3192 32.1428 47.3192Z" fill="black"/>
<path d="M36.329 34.6391C36.2234 34.7852 36.139 34.9456 36.0785 35.1155C36.0635 35.1569 36.0485 35.2045 36.0334 35.2496C36.0051 35.2361 35.9753 35.226 35.9445 35.2196C35.8158 35.1865 35.6826 35.1747 35.5501 35.1844C35.5501 35.1335 35.5526 35.0796 35.5576 35.0227C35.5739 34.4385 35.505 33.6236 34.9478 33.9683C34.4143 34.3006 34.795 34.8535 35.1394 35.2108C35.1694 35.2421 35.1995 35.271 35.2283 35.2985C34.914 35.5242 34.8526 36.0445 34.8013 36.5886C34.7499 37.1327 34.2879 37.7295 33.9823 38.068L33.8947 38.162C33.771 38.0627 33.6277 37.9909 33.4742 37.9514C33.3207 37.9118 33.1605 37.9054 33.0044 37.9326C32.9902 37.885 32.9764 37.8348 32.963 37.7822C32.7126 36.8857 32.2004 35.3324 31.543 34.9914L31.6294 34.8823C31.9087 34.5162 32.223 33.9734 31.7547 33.8342C31.2863 33.695 31.2538 34.3056 31.2751 34.7619C31.2751 34.8196 31.2826 34.8735 31.2876 34.9249C31.1954 34.9298 31.1052 34.9533 31.0223 34.994C30.9395 35.0347 30.8657 35.0918 30.8055 35.1619C30.783 35.1343 30.7604 35.1067 30.7341 35.0766C30.3585 34.6316 29.6672 33.927 29.4581 34.4611C29.264 34.9625 29.8713 35.6019 30.2996 35.9755L30.3259 35.9994C30.0391 37.1653 31.2913 38.1157 31.9663 38.5306L32.0527 38.5845C31.1223 39.6815 30.55 41.7389 30.55 41.7389L33.1546 42.2053C33.1546 42.2053 34.8814 40.7134 34.6573 39.3117H34.6748C36.4003 38.9657 36.7935 37.1227 36.5243 36.0295L36.5556 36.0169C36.8695 35.8872 37.1446 35.6786 37.3545 35.4114C37.8379 34.7381 36.8248 33.9796 36.329 34.6391Z" fill="#2A3042"/>
<path opacity="0.1" d="M36.329 34.6391C36.2234 34.7852 36.139 34.9456 36.0785 35.1155C36.0635 35.1569 36.0485 35.2045 36.0334 35.2496C36.0051 35.2361 35.9753 35.226 35.9445 35.2196C35.8158 35.1865 35.6826 35.1747 35.5501 35.1844C35.5501 35.1335 35.5526 35.0796 35.5576 35.0227C35.5739 34.4385 35.505 33.6236 34.9478 33.9683C34.4143 34.3006 34.795 34.8535 35.1394 35.2108C35.1694 35.2421 35.1995 35.271 35.2283 35.2985C34.914 35.5242 34.8526 36.0445 34.8013 36.5886C34.7499 37.1327 34.2879 37.7295 33.9823 38.068L33.8947 38.162C33.771 38.0627 33.6277 37.9909 33.4742 37.9514C33.3207 37.9118 33.1605 37.9054 33.0044 37.9326C32.9902 37.885 32.9764 37.8348 32.963 37.7822C32.7126 36.8857 32.2004 35.3324 31.543 34.9914L31.6294 34.8823C31.9087 34.5162 32.223 33.9734 31.7547 33.8342C31.2863 33.695 31.2538 34.3056 31.2751 34.7619C31.2751 34.8196 31.2826 34.8735 31.2876 34.9249C31.1954 34.9298 31.1052 34.9533 31.0223 34.994C30.9395 35.0347 30.8657 35.0918 30.8055 35.1619C30.783 35.1343 30.7604 35.1067 30.7341 35.0766C30.3585 34.6316 29.6672 33.927 29.4581 34.4611C29.264 34.9625 29.8713 35.6019 30.2996 35.9755L30.3259 35.9994C30.0391 37.1653 31.2913 38.1157 31.9663 38.5306L32.0527 38.5845C31.1223 39.6815 30.55 41.7389 30.55 41.7389L33.1546 42.2053C33.1546 42.2053 34.8814 40.7134 34.6573 39.3117H34.6748C36.4003 38.9657 36.7935 37.1227 36.5243 36.0295L36.5556 36.0169C36.8695 35.8872 37.1446 35.6786 37.3545 35.4114C37.8379 34.7381 36.8248 33.9796 36.329 34.6391Z" fill="black"/>
<path d="M31.1435 35.3914L30.8392 36.284C30.8392 36.284 30.6701 36.1649 30.456 35.9756C30.029 35.5995 29.4204 34.9576 29.6157 34.4611C29.8248 33.927 30.5148 34.6316 30.8918 35.0767C31.0433 35.2547 31.1435 35.3914 31.1435 35.3914Z" fill="#2A3042"/>
<path d="M31.7857 34.8823C31.6929 35.0041 31.5938 35.1208 31.4889 35.2322C31.463 35.0765 31.445 34.9195 31.435 34.762C31.41 34.3056 31.4576 33.6988 31.9147 33.8342C32.3717 33.9696 32.0649 34.5162 31.7857 34.8823Z" fill="#2A3042"/>
<path d="M35.7142 35.0227C35.7054 35.3161 35.6766 35.5506 35.6766 35.5506C35.5435 35.4463 35.418 35.3328 35.3009 35.2108C34.9566 34.8535 34.5747 34.3006 35.1094 33.9683C35.6616 33.6236 35.7304 34.4385 35.7142 35.0227Z" fill="#2A3042"/>
<path d="M37.5132 35.4076C37.3033 35.6749 37.0282 35.8835 36.7143 36.0132C36.627 36.0509 36.5375 36.0831 36.4463 36.1097L36.0869 35.6082C36.1255 35.4416 36.1752 35.2779 36.2359 35.118C36.2964 34.9481 36.3808 34.7877 36.4864 34.6416C36.9835 33.9796 37.9966 34.7381 37.5132 35.4076Z" fill="#2A3042"/>
<path opacity="0.1" d="M30.8921 35.0766C31.0436 35.2547 31.1426 35.3913 31.1426 35.3913L30.8383 36.284C30.8383 36.284 30.6692 36.1649 30.4551 35.9756C30.5025 35.6898 30.6204 35.4205 30.7982 35.192C30.8295 35.1506 30.8608 35.1117 30.8921 35.0766Z" fill="black"/>
<path opacity="0.1" d="M31.7862 34.8823C31.6934 35.004 31.5943 35.1208 31.4894 35.2321C31.4635 35.0764 31.4455 34.9195 31.4355 34.7619C31.562 34.7648 31.6846 34.8068 31.7862 34.8823Z" fill="black"/>
<path d="M33.2837 38.4254L32.5261 38.7589C32.3878 38.6899 32.2532 38.6137 32.1228 38.5307C31.3264 38.0405 29.7261 36.8068 30.7992 35.3512C31.8724 33.8956 32.7677 36.5059 33.1196 37.7822C33.2261 38.1634 33.2837 38.4254 33.2837 38.4254Z" fill="#2A3042"/>
<path opacity="0.1" d="M35.2969 35.212C35.4066 35.0981 35.5559 35.0308 35.7139 35.024C35.7051 35.3174 35.6763 35.5518 35.6763 35.5518C35.5419 35.4477 35.4151 35.3342 35.2969 35.212Z" fill="black"/>
<path opacity="0.1" d="M36.7143 36.0132C36.627 36.0509 36.5375 36.0831 36.4463 36.1097L36.0869 35.6082C36.1255 35.4416 36.1752 35.2779 36.2359 35.118C36.4676 35.2509 36.6379 35.5882 36.7143 36.0132Z" fill="black"/>
<path d="M34.8336 39.3081C34.7918 39.3164 34.7501 39.3239 34.7083 39.3306C32.1701 39.718 33.8719 38.3452 33.8719 38.3452C33.8719 38.3452 33.9858 38.2399 34.1411 38.0681C34.4466 37.7296 34.9087 37.1366 34.9613 36.5887C35.0402 35.7649 35.1328 34.9926 36.1046 35.2195C37.0763 35.4465 37.2378 38.8266 34.8336 39.3081Z" fill="#2A3042"/>
<path d="M34.7878 45.638H29.9355V46.9155H34.7878V45.638Z" fill="#474157"/>
<path d="M35.504 41.4869H29.1641V45.9452H35.504V41.4869Z" fill="#474157"/>
<path opacity="0.1" d="M34.74 45.638H29.8877V46.9155H34.74V45.638Z" fill="black"/>
<path opacity="0.1" d="M35.4835 41.4869H29.1436V45.9452H35.4835V41.4869Z" fill="black"/>
<path d="M35.1072 45.638H30.2549V46.9155H35.1072V45.638Z" fill="#474157"/>
<path opacity="0.1" d="M33.1198 37.7822C33.2263 38.1583 33.2839 38.4253 33.2839 38.4253L32.5263 38.7588C32.388 38.6898 32.2534 38.6136 32.123 38.5307C32.4198 38.1545 32.7542 37.8699 33.1198 37.7822Z" fill="black"/>
<path opacity="0.1" d="M34.8336 39.308C34.7918 39.3163 34.7501 39.3239 34.7083 39.3305C32.1701 39.718 33.8719 38.3451 33.8719 38.3451C33.8719 38.3451 33.9858 38.2398 34.1411 38.068C34.6119 38.4479 34.8123 38.8754 34.8336 39.308Z" fill="black"/>
<path d="M30.7051 41.739C30.7051 41.739 32.1276 36.6425 34.1212 38.2135C36.1147 39.7844 33.3097 42.2054 33.3097 42.2054L30.7051 41.739Z" fill="#2A3042"/>
<path opacity="0.1" d="M31.4237 36.3091C31.5115 36.3091 31.5827 36.2378 31.5827 36.1498C31.5827 36.0619 31.5115 35.9906 31.4237 35.9906C31.3359 35.9906 31.2646 36.0619 31.2646 36.1498C31.2646 36.2378 31.3359 36.3091 31.4237 36.3091Z" fill="black"/>
<path opacity="0.1" d="M31.41 37.055C31.4978 37.055 31.569 36.9837 31.569 36.8958C31.569 36.8078 31.4978 36.7366 31.41 36.7366C31.3222 36.7366 31.251 36.8078 31.251 36.8958C31.251 36.9837 31.3222 37.055 31.41 37.055Z" fill="black"/>
<path opacity="0.1" d="M36.036 36.4557C36.1238 36.4557 36.195 36.3845 36.195 36.2965C36.195 36.2086 36.1238 36.1373 36.036 36.1373C35.9482 36.1373 35.877 36.2086 35.877 36.2965C35.877 36.3845 35.9482 36.4557 36.036 36.4557Z" fill="black"/>
<path opacity="0.1" d="M32.3143 40.2746C32.4021 40.2746 32.4733 40.2033 32.4733 40.1153C32.4733 40.0274 32.4021 39.9561 32.3143 39.9561C32.2265 39.9561 32.1553 40.0274 32.1553 40.1153C32.1553 40.2033 32.2265 40.2746 32.3143 40.2746Z" fill="black"/>
<path opacity="0.1" d="M35.703 37.6932C35.7908 37.6932 35.862 37.6219 35.862 37.5339C35.862 37.446 35.7908 37.3747 35.703 37.3747C35.6151 37.3747 35.5439 37.446 35.5439 37.5339C35.5439 37.6219 35.6151 37.6932 35.703 37.6932Z" fill="black"/>
<path opacity="0.1" d="M34.0545 39.3431C34.1424 39.3431 34.2136 39.2718 34.2136 39.1838C34.2136 39.0959 34.1424 39.0246 34.0545 39.0246C33.9667 39.0246 33.8955 39.0959 33.8955 39.1838C33.8955 39.2718 33.9667 39.3431 34.0545 39.3431Z" fill="black"/>
<path opacity="0.1" d="M31.9686 36.6288C32.0565 36.6288 32.1277 36.5575 32.1277 36.4695C32.1277 36.3816 32.0565 36.3103 31.9686 36.3103C31.8808 36.3103 31.8096 36.3816 31.8096 36.4695C31.8096 36.5575 31.8808 36.6288 31.9686 36.6288Z" fill="black"/>
<path opacity="0.1" d="M35.5965 36.9347C35.6844 36.9347 35.7556 36.8634 35.7556 36.7754C35.7556 36.6875 35.6844 36.6162 35.5965 36.6162C35.5087 36.6162 35.4375 36.6875 35.4375 36.7754C35.4375 36.8634 35.5087 36.9347 35.5965 36.9347Z" fill="black"/>
<path opacity="0.1" d="M35.0516 38.1721C35.1395 38.1721 35.2107 38.1008 35.2107 38.0129C35.2107 37.9249 35.1395 37.8536 35.0516 37.8536C34.9638 37.8536 34.8926 37.9249 34.8926 38.0129C34.8926 38.1008 34.9638 38.1721 35.0516 38.1721Z" fill="black"/>
<path opacity="0.1" d="M33.3778 40.1555C33.4656 40.1555 33.5368 40.0842 33.5368 39.9962C33.5368 39.9083 33.4656 39.837 33.3778 39.837C33.29 39.837 33.2188 39.9083 33.2188 39.9962C33.2188 40.0842 33.29 40.1555 33.3778 40.1555Z" fill="black"/>
<path opacity="0.1" d="M33.0321 39.3706C33.1199 39.3706 33.1911 39.2994 33.1911 39.2114C33.1911 39.1235 33.1199 39.0522 33.0321 39.0522C32.9443 39.0522 32.873 39.1235 32.873 39.2114C32.873 39.2994 32.9443 39.3706 33.0321 39.3706Z" fill="black"/>
<path opacity="0.1" d="M32.2078 37.6004C32.2957 37.6004 32.3669 37.5291 32.3669 37.4412C32.3669 37.3532 32.2957 37.2819 32.2078 37.2819C32.12 37.2819 32.0488 37.3532 32.0488 37.4412C32.0488 37.5291 32.12 37.6004 32.2078 37.6004Z" fill="black"/>
<path opacity="0.1" d="M35.1072 45.638H30.2549V46.1044H35.1072V45.638Z" fill="black"/>
<path d="M35.8233 41.4869H29.4834V45.9452H35.8233V41.4869Z" fill="#474157"/>
<path opacity="0.1" d="M33.5907 40.8739C33.6785 40.8739 33.7497 40.8026 33.7497 40.7146C33.7497 40.6267 33.6785 40.5554 33.5907 40.5554C33.5028 40.5554 33.4316 40.6267 33.4316 40.7146C33.4316 40.8026 33.5028 40.8739 33.5907 40.8739Z" fill="black"/>
<path opacity="0.1" d="M32.6327 41.0732C32.7205 41.0732 32.7917 41.0019 32.7917 40.914C32.7917 40.826 32.7205 40.7547 32.6327 40.7547C32.5448 40.7547 32.4736 40.826 32.4736 40.914C32.4736 41.0019 32.5448 41.0732 32.6327 41.0732Z" fill="black"/>
<path d="M47.8352 58.5225C47.8352 58.5225 48.6253 59.5568 47.4708 61.119C46.3162 62.6811 45.3633 64.0025 45.7477 64.9729C45.7477 64.9729 47.4908 62.0718 48.9083 62.0317C50.3258 61.9915 49.3904 60.2664 47.8352 58.5225Z" fill="#2A3042"/>
<path opacity="0.1" d="M47.8358 58.5225C47.9042 58.6223 47.9586 58.7312 47.9973 58.846C49.381 60.4758 50.1185 61.994 48.7874 62.0317C47.549 62.0668 46.0627 64.2884 45.707 64.845C45.7183 64.8876 45.7321 64.9295 45.7484 64.9704C45.7484 64.9704 47.4914 62.0693 48.9089 62.0292C50.3264 61.989 49.391 60.2664 47.8358 58.5225Z" fill="black"/>
<path d="M49.299 59.8402C49.299 60.205 49.2577 60.4996 49.2076 60.4996C49.1575 60.4996 49.1162 60.205 49.1162 59.8402C49.1162 59.4753 49.1676 59.6483 49.2176 59.6483C49.2677 59.6483 49.299 59.4766 49.299 59.8402Z" fill="#FFD037"/>
<path d="M49.8023 60.2752C49.4829 60.4495 49.2049 60.5548 49.1761 60.5109C49.1473 60.467 49.3915 60.289 49.7109 60.1147C50.0302 59.9405 49.9037 60.0671 49.9275 60.1147C49.9513 60.1624 50.1216 60.1009 49.8023 60.2752Z" fill="#FFD037"/>
<path d="M43.6567 58.5225C43.6567 58.5225 42.8653 59.5568 44.0211 61.119C45.1769 62.6811 46.1286 64.0025 45.7429 64.9729C45.7429 64.9729 44.0011 62.0718 42.5823 62.0317C41.1636 61.9915 42.0965 60.2664 43.6567 58.5225Z" fill="#2A3042"/>
<path opacity="0.1" d="M43.6567 58.5225C43.5876 58.622 43.5332 58.7309 43.4952 58.846C42.1102 60.4758 41.3739 61.994 42.7038 62.0317C43.9435 62.0668 45.4298 64.2884 45.7854 64.845C45.7729 64.8889 45.7592 64.9315 45.7429 64.9704C45.7429 64.9704 44.0011 62.0693 42.5823 62.0292C41.1636 61.989 42.0965 60.2664 43.6567 58.5225Z" fill="black"/>
<path d="M42.1865 59.8402C42.1865 60.205 42.2278 60.4996 42.2779 60.4996C42.328 60.4996 42.3693 60.205 42.3693 59.8402C42.3693 59.4753 42.318 59.6483 42.2679 59.6483C42.2178 59.6483 42.1865 59.4766 42.1865 59.8402Z" fill="#FFD037"/>
<path d="M41.683 60.2752C42.0023 60.4495 42.2803 60.5548 42.3091 60.5109C42.3379 60.467 42.095 60.289 41.7757 60.1147C41.4564 59.9405 41.5816 60.0671 41.5578 60.1147C41.534 60.1624 41.3637 60.1009 41.683 60.2752Z" fill="#FFD037"/>
<path opacity="0.1" d="M45.7445 72.8876C50.3075 72.8876 54.0065 72.319 54.0065 71.6176C54.0065 70.9162 50.3075 70.3476 45.7445 70.3476C41.1815 70.3476 37.4824 70.9162 37.4824 71.6176C37.4824 72.319 41.1815 72.8876 45.7445 72.8876Z" fill="#2A3042"/>
<path d="M49.9959 63.5788L49.9558 63.9022L49.9007 64.3586L49.8782 64.5479L49.8231 65.0055L49.7981 65.1948L49.743 65.6512L49.1106 70.8403C49.0543 71.3042 48.2992 71.6653 47.3863 71.6653H44.1005C43.1889 71.6653 42.4339 71.3042 42.3775 70.8403L41.7439 65.6512L41.6888 65.1948L41.6663 65.0055L41.6087 64.5479L41.5861 64.3586L41.531 63.9022L41.491 63.5788C41.4596 63.3167 41.8666 63.0961 42.385 63.0961H49.1031C49.619 63.0961 50.0285 63.3167 49.9959 63.5788Z" fill="#65617D"/>
<path d="M49.9563 63.901L49.9 64.3573H41.5866L41.5303 63.901H49.9563Z" fill="#9D9CB5"/>
<path d="M49.8777 64.5479L49.8226 65.0042H41.6657L41.6094 64.5479H49.8777Z" fill="#9D9CB5"/>
<path d="M49.799 65.1948L49.7439 65.6511H41.7448L41.6885 65.1948H49.799Z" fill="#9D9CB5"/>
<path d="M70.8078 45.9539V46.2122H63.1807V46.0028C63.661 45.8249 64.0753 45.5038 64.3677 45.0828C64.6602 44.6618 64.8166 44.1611 64.816 43.6483C64.8161 43.1679 64.6783 42.6975 64.419 42.2932C64.1597 41.8889 63.7899 41.5677 63.3535 41.3678H70.7565C70.3149 41.5693 69.9414 41.8948 69.6812 42.3049C69.421 42.7149 69.2853 43.1918 69.2908 43.6776C69.2962 44.1634 69.4425 44.6371 69.7118 45.0412C69.9811 45.4454 70.3619 45.7624 70.8078 45.9539Z" fill="#C8CAD7"/>
<path opacity="0.1" d="M70.7565 41.3678C70.4164 41.524 70.1156 41.7545 69.8761 42.0424C69.6367 42.3303 69.4647 42.6683 69.3729 43.0315H64.7397C64.6471 42.6683 64.4746 42.3304 64.2347 42.0425C63.9949 41.7547 63.6938 41.5242 63.3535 41.3678H70.7565Z" fill="black"/>
<path d="M54.4473 40.0514V41.502C54.4473 42.3018 55.0333 42.9513 55.7546 42.9513H78.1953C78.9166 42.9513 79.5026 42.3018 79.5026 41.502V40.0514H54.4473Z" fill="#C8CAD7"/>
<path opacity="0.1" d="M70.8078 45.9539V46.2122H63.1807V46.0028C63.3898 45.9249 63.5877 45.8195 63.7692 45.6894H70.3408C70.4866 45.794 70.6432 45.8826 70.8078 45.9539Z" fill="black"/>
<path d="M72.9487 45.7696H61.044C60.8331 45.7696 60.6621 45.9408 60.6621 46.152C60.6621 46.3632 60.8331 46.5344 61.044 46.5344H72.9487C73.1597 46.5344 73.3306 46.3632 73.3306 46.152C73.3306 45.9408 73.1597 45.7696 72.9487 45.7696Z" fill="#C8CAD7"/>
<path d="M79.5026 24.168C79.5026 23.9961 79.4688 23.8259 79.4031 23.6671C79.3374 23.5083 79.2411 23.364 79.1197 23.2425C78.9983 23.1209 78.8542 23.0245 78.6956 22.9587C78.537 22.893 78.367 22.8591 78.1953 22.8591H55.7546C55.4078 22.8591 55.0753 22.997 54.8302 23.2425C54.585 23.4879 54.4473 23.8209 54.4473 24.168V40.3335H79.5026V24.168Z" fill="#5F5D7E"/>
<path d="M78.8188 24.751V38.6422C78.8188 38.8131 78.751 38.977 78.6303 39.0979C78.5096 39.2187 78.3458 39.2866 78.1751 39.2866H55.7745C55.6038 39.2866 55.4401 39.2187 55.3194 39.0979C55.1987 38.977 55.1309 38.8131 55.1309 38.6422V24.751C55.1327 24.6377 55.1647 24.5269 55.2235 24.43C55.2801 24.3322 55.3613 24.2509 55.4591 24.1944C55.5569 24.1378 55.6678 24.108 55.7808 24.1078H78.1751C78.3456 24.1078 78.5091 24.1755 78.6298 24.2961C78.7505 24.4167 78.8184 24.5803 78.8188 24.751Z" fill="#2A3042"/>
<path d="M66.9756 23.7844C67.1423 23.7844 67.2774 23.6491 67.2774 23.4822C67.2774 23.3153 67.1423 23.1801 66.9756 23.1801C66.8089 23.1801 66.6738 23.3153 66.6738 23.4822C66.6738 23.6491 66.8089 23.7844 66.9756 23.7844Z" fill="white"/>
<path d="M66.9753 42.3069C67.3861 42.3069 67.7191 41.9735 67.7191 41.5622C67.7191 41.1509 67.3861 40.8174 66.9753 40.8174C66.5645 40.8174 66.2314 41.1509 66.2314 41.5622C66.2314 41.9735 66.5645 42.3069 66.9753 42.3069Z" fill="white"/>
<path d="M78.8188 24.751H55.1309C55.1309 24.5801 55.1987 24.4162 55.3194 24.2953C55.4401 24.1745 55.6038 24.1066 55.7745 24.1066H78.1751C78.3458 24.1066 78.5096 24.1745 78.6303 24.2953C78.751 24.4162 78.8188 24.5801 78.8188 24.751Z" fill="white"/>
<path d="M55.7755 24.5893C55.864 24.5893 55.9358 24.5174 55.9358 24.4288C55.9358 24.3401 55.864 24.2683 55.7755 24.2683C55.687 24.2683 55.6152 24.3401 55.6152 24.4288C55.6152 24.5174 55.687 24.5893 55.7755 24.5893Z" fill="#EDEDF4"/>
<path d="M56.2579 24.5893C56.3465 24.5893 56.4182 24.5174 56.4182 24.4288C56.4182 24.3401 56.3465 24.2683 56.2579 24.2683C56.1694 24.2683 56.0977 24.3401 56.0977 24.4288C56.0977 24.5174 56.1694 24.5893 56.2579 24.5893Z" fill="#EDEDF4"/>
<path d="M56.7394 24.5893C56.8279 24.5893 56.8997 24.5174 56.8997 24.4288C56.8997 24.3401 56.8279 24.2683 56.7394 24.2683C56.6509 24.2683 56.5791 24.3401 56.5791 24.4288C56.5791 24.5174 56.6509 24.5893 56.7394 24.5893Z" fill="#EDEDF4"/>
<path d="M82.2711 52.8895C82.2711 52.8895 83.7737 53.5013 85.6182 54.2348C85.6814 54.446 85.7299 54.6613 85.7635 54.8792C85.796 55.3054 86.64 55.906 86.64 55.906C86.64 55.906 88.2053 56.1893 89.3836 56.5215C90.299 56.7723 90.4254 56.2708 90.3077 56.0752L90.5819 56.1805C90.6433 58.7181 90.7134 60.5686 90.7134 60.5686C90.7134 60.5686 91.1141 60.5686 91.7465 60.5987C91.754 60.6789 91.7615 60.7616 91.7703 60.8494C92.012 63.3568 92.4565 67.4941 92.8009 67.8376C93.3017 68.3228 93.0801 71.8985 92.8873 72.5303C92.6944 73.1622 92.8873 77.7095 92.8873 77.7095C92.8873 77.7095 93.6624 80.4877 93.5973 83.5192C93.5321 86.5507 94.4362 88.1304 94.4362 88.1304L94.7605 88.1542C94.7605 88.2382 94.7505 88.321 94.7468 88.405C94.7317 88.6795 94.7205 88.9541 94.7167 89.2036C94.6966 89.5845 94.5661 89.9514 94.3411 90.2592C93.822 91.0021 93.4641 91.8456 93.2905 92.7353C93.2525 92.9343 93.2258 93.1352 93.2103 93.3371C93.2103 93.3873 93.2041 93.4148 93.2041 93.4148C93.2041 93.4148 93.5046 94.3 96.3245 94.5946C99.1445 94.8892 98.7363 92.8469 98.7363 92.8469C98.7363 92.8469 98.7501 92.7892 98.7676 92.6839C98.891 91.9935 98.8948 91.2869 98.7789 90.5952C98.6799 90.0561 98.7651 89.1234 98.8878 88.2683C98.9003 88.1793 98.9141 88.0915 98.9266 88.005C99.1626 87.9557 99.3841 87.8527 99.574 87.7041C100.457 86.898 99.574 80.489 99.574 80.489C99.574 80.489 97.9812 75.2472 98.3694 74.4887C98.7576 73.7301 99.2084 71.8997 99.2084 71.8997V65.5208C99.8345 64.509 100.116 63.1249 100.233 61.8649C100.24 61.7809 100.248 61.6982 100.254 61.6142C100.776 61.6242 101.277 61.6054 101.732 61.5741L101.857 61.8248C102.596 63.2578 103.347 64.677 103.531 64.8864C103.918 65.329 103.595 67.35 103.531 68.3605C103.467 69.371 104.241 71.392 104.241 71.392C103.273 71.9599 103.079 78.6548 103.079 78.6548C103.079 78.6548 103.789 80.2971 102.304 82.1288C100.819 83.9605 101.4 87.4346 101.594 87.308C101.645 87.2741 101.959 87.3255 102.406 87.3995C102.325 87.6996 102.18 87.9785 101.981 88.2169C101.501 88.8137 101.337 89.749 101.29 90.4962C101.262 90.8856 101.262 91.2765 101.29 91.6659L102.365 92.4181C102.365 92.4181 103.033 92.4181 103.033 93.0086C103.033 93.5991 104.668 94.1871 104.668 94.1871C104.668 94.1871 107.1 94.8604 108.973 94.1871C109.58 93.969 109.766 93.5941 109.694 93.139C109.547 92.1874 108.276 90.8823 107.359 89.9345C106.74 89.2913 106.459 88.4388 106.333 87.7004C106.32 87.6214 106.308 87.5437 106.298 87.4672C106.374 87.4245 106.441 87.369 106.497 87.3029C107.273 86.3551 108.112 83.7662 108.112 83.7662C108.112 83.7662 107.728 81.1208 108.567 78.7162C109.193 76.9372 109.954 72.7673 110.307 70.725C110.436 69.984 110.459 69.2284 110.377 68.4808C110.214 66.9901 109.964 64.2282 110.052 62.0417C110.082 61.3283 110.061 60.1937 110.012 58.8635V58.8447C110.472 57.9759 111.469 56.5579 113.132 56.4413C115.542 56.2721 114.294 54.9469 114.294 54.9469C114.294 54.9469 112.88 45.0011 111.948 43.2359C111.934 43.2051 111.918 43.1753 111.899 43.1468C111.762 42.9274 111.611 42.4886 111.452 41.9032C110.535 38.5118 109.36 30.157 109.36 30.157L109.216 28.1247C110.653 28.8306 113.321 30.1182 114.396 30.4943C115.899 31.0208 117.99 30.6836 118.507 28.9572C119.024 27.2308 116.872 23.7367 116.872 23.7367C116.555 22.498 114.368 19.9191 113.229 18.6391C113.119 18.4723 113.01 18.3068 112.904 18.1489C112.611 17.7113 112.346 17.3252 112.179 17.0983L112.162 17.1296C112.121 17.0719 112.082 17.018 112.048 16.9729L112.021 17.0281C111.614 16.2758 111.157 15.5023 110.803 15.0873C109.979 14.1244 106.385 13.0889 106.029 13.3735C105.77 13.5803 106.846 14.483 107.598 15.0371L106.879 14.5507L105.273 13.1591L104.565 12.6801C104.536 12.6602 104.505 12.6426 104.473 12.6275C104.657 11.9033 104.679 11.1474 104.538 10.4136C104.397 9.67987 104.096 8.9863 103.656 8.38238C103.606 8.31343 103.552 8.24447 103.498 8.17803C104.238 7.5612 104.473 6.54192 104.473 5.64551V5.61166C104.418 5.27569 104.269 4.96221 104.043 4.70772C104.054 4.73029 104.066 4.75537 104.076 4.77919C103.946 4.61329 103.782 4.4775 103.595 4.38118C103.408 4.28486 103.203 4.2303 102.993 4.22128C102.366 4.21125 101.842 4.62247 101.292 4.90456C100.727 5.18816 100.106 5.34618 99.4744 5.36782C98.8422 5.38946 98.2129 5.2742 97.6293 5.02993C97.29 4.8845 96.9481 4.69143 96.58 4.72152C96.2119 4.75161 95.9201 4.98856 95.6696 5.23554C95.0675 5.81672 94.5939 6.51806 94.2797 7.29415C94.187 7.52108 94.1044 7.76305 93.9253 7.93355C93.789 8.04496 93.6412 8.14162 93.4846 8.22191C93.2146 8.39411 92.9823 8.61932 92.8017 8.88394C92.6212 9.14856 92.496 9.44708 92.434 9.76148C92.3171 10.3874 92.3827 11.0337 92.623 11.6233C92.7683 12.0313 93.0057 12.4003 93.3168 12.7015C93.5509 12.9184 93.8314 13.0776 94.0793 13.2819C94.1919 13.3737 94.297 13.4744 94.3937 13.5828C93.2675 13.8324 92.2379 14.4038 91.4297 15.2277C90.8225 15.8152 90.3149 16.4978 89.927 17.2487C88.879 19.2208 88.2428 20.4482 87.8647 21.2268C87.6756 21.2844 87.5591 21.312 87.5591 21.312C87.5591 21.312 86.1391 22.5745 86.1604 26.1953L85.0622 33.4368V37.1415C85.0622 37.1415 83.6485 41.1622 83.8802 44.4896C83.8802 44.5347 83.8802 44.5786 83.8889 44.6225L83.7737 45.1879C83.5964 45.4298 83.5079 45.7257 83.5233 46.0254C83.5161 46.1279 83.5237 46.2309 83.5458 46.3313L82.9698 49.1798L83.0788 49.2951L82.782 50.1313C81.6638 51.9204 82.2711 52.8895 82.2711 52.8895ZM90.5757 32.5792C90.6471 32.6281 90.6871 32.6532 90.6871 32.6532C90.6871 32.6532 91.3132 38.2661 90.9376 41.6035L89.619 41.5132L88.9929 41.3202L89.217 39.5361C89.217 39.5361 90.0197 34.8359 90.5707 32.5792H90.5757ZM95.7573 16.2871L95.8825 16.094C95.8562 16.163 95.8299 16.2307 95.8024 16.2934L95.7573 16.2871ZM89.8056 41.5759L90.488 41.6461L90.92 41.7364C90.9125 41.7966 90.905 41.8555 90.8975 41.9132L89.8056 41.5759ZM104.473 17.3089C104.472 17.2464 104.468 17.184 104.46 17.1221L104.996 17.4405L105.029 17.4606C104.843 17.4067 104.653 17.359 104.473 17.3152V17.3089ZM108.632 19.7913C108.559 19.6757 108.479 19.564 108.395 19.4565C108.77 19.5468 109.003 19.5994 109.003 19.5994C109.303 19.5473 109.611 19.5785 109.895 19.6897C109.986 19.8765 110.09 20.0574 110.204 20.2313L111.193 22.1495C111.193 22.1495 110.978 22.1708 110.547 21.9602C110.116 21.7496 108.632 19.7913 108.632 19.7913ZM89.8381 55.8985L90.1474 56.0238C90.0786 56.0451 89.9684 55.995 89.8381 55.8985Z" fill="url(#paint0_linear_47_2269)"/>
<path d="M100.553 14.6873C100.951 14.9218 100.963 15.9235 100.902 16.7272C100.858 17.3151 100.777 17.7966 100.777 17.7966L103.368 24.1028C103.368 24.1028 104.328 19.6095 104.343 17.6035C104.344 17.4452 104.32 17.2878 104.272 17.1371C103.82 15.6916 101.28 14.8892 100.553 14.6873Z" fill="#67647E"/>
<path d="M100.366 14.6372C100.366 14.6372 100.436 14.6535 100.558 14.6873C100.5 14.6538 100.433 14.6365 100.366 14.6372Z" fill="#67647E"/>
<path d="M101.265 91.4064L102.308 92.1586C102.308 92.1586 102.955 92.1586 102.955 92.7441C102.955 93.3296 104.54 93.9138 104.54 93.9138C104.54 93.9138 106.9 94.582 108.715 93.9138C109.304 93.6969 109.484 93.3258 109.415 92.8732C109.271 91.9292 108.038 90.6391 107.15 89.6925C106.55 89.0544 106.273 88.2081 106.156 87.4759C106.069 86.952 106.045 86.4195 106.086 85.89L102.266 85.6179C102.485 86.195 102.485 86.8324 102.266 87.4095C102.183 87.6159 102.07 87.8093 101.932 87.9837C101.466 88.5755 101.306 89.5045 101.261 90.2404C101.235 90.6287 101.236 91.0183 101.265 91.4064Z" fill="#67647E"/>
<path d="M93.416 93.1403C93.416 93.1403 93.7078 94.0179 96.4426 94.3112C99.1774 94.6046 98.7805 92.5761 98.7805 92.5761C98.7805 92.5761 98.7942 92.5184 98.8118 92.4144C98.9306 91.7285 98.934 91.0276 98.8218 90.3407C98.7266 89.8066 98.8093 88.8801 98.9282 88.0313C99.0685 87.0208 99.26 86.1194 99.26 86.1194L95.0226 86.4328C95.0226 86.4328 94.9487 87.2967 94.9061 88.1693C94.8924 88.4413 94.8811 88.7134 94.8773 88.9616C94.8576 89.3383 94.7308 89.7015 94.5117 90.0085C94.01 90.7496 93.6656 91.586 93.4999 92.4658C93.4633 92.6631 93.4374 92.8623 93.4223 93.0625C93.416 93.1127 93.416 93.1403 93.416 93.1403Z" fill="#67647E"/>
<path d="M101.265 91.4064L102.308 92.1586C102.308 92.1586 102.955 92.1586 102.955 92.7441C102.955 93.3296 104.541 93.9138 104.541 93.9138C104.541 93.9138 106.9 94.582 108.715 93.9138C109.304 93.6969 109.484 93.3258 109.415 92.8732C109.359 92.8732 109.305 92.8807 109.26 92.882C108.516 92.9058 107.793 93.1064 107.053 93.1729C106.631 93.204 106.208 93.2107 105.785 93.1929C105.576 93.1915 105.366 93.1752 105.159 93.144C104.658 93.055 104.194 92.7955 103.747 92.541C103.637 92.4896 103.541 92.4142 103.465 92.3203C103.405 92.2161 103.362 92.1025 103.34 91.9843C103.182 91.4177 102.741 90.9638 102.235 90.6654C101.927 90.49 101.601 90.3492 101.262 90.2454C101.236 90.632 101.237 91.0199 101.265 91.4064Z" fill="#67647E"/>
<path d="M93.416 93.1403C93.416 93.1403 93.7078 94.0179 96.4426 94.3112C99.1774 94.6046 98.7805 92.5761 98.7805 92.5761C98.7805 92.5761 98.7942 92.5184 98.8118 92.4144C98.6865 92.4796 98.5801 92.5397 98.5313 92.5673C98.2808 92.714 98.0567 92.9158 97.7962 93.0525C97.1701 93.3822 96.4188 93.2844 95.7126 93.1779C95.3807 93.1277 95.0489 93.0776 94.7183 93.0161C94.4663 92.9815 94.221 92.9088 93.9908 92.8005C93.8197 92.7007 93.6557 92.5893 93.4999 92.467C93.4633 92.6644 93.4374 92.8636 93.4223 93.0638C93.416 93.1127 93.416 93.1403 93.416 93.1403Z" fill="#67647E"/>
<path opacity="0.1" d="M101.265 91.4064L102.308 92.1586C102.308 92.1586 102.955 92.1586 102.955 92.7441C102.955 93.3296 104.541 93.9138 104.541 93.9138C104.541 93.9138 106.9 94.582 108.715 93.9138C109.304 93.6969 109.484 93.3258 109.415 92.8732C109.359 92.8732 109.305 92.8807 109.26 92.882C108.516 92.9058 107.793 93.1064 107.053 93.1729C106.631 93.204 106.208 93.2107 105.785 93.1929C105.576 93.1915 105.366 93.1752 105.159 93.144C104.658 93.055 104.194 92.7955 103.747 92.541C103.637 92.4896 103.541 92.4142 103.465 92.3203C103.405 92.2161 103.362 92.1025 103.34 91.9843C103.182 91.4177 102.741 90.9638 102.235 90.6654C101.927 90.49 101.601 90.3492 101.262 90.2454C101.236 90.632 101.237 91.0199 101.265 91.4064Z" fill="black"/>
<path opacity="0.1" d="M93.416 93.1403C93.416 93.1403 93.7078 94.0179 96.4426 94.3112C99.1774 94.6046 98.7805 92.5761 98.7805 92.5761C98.7805 92.5761 98.7942 92.5184 98.8118 92.4144C98.6865 92.4796 98.5801 92.5397 98.5313 92.5673C98.2808 92.714 98.0567 92.9158 97.7962 93.0525C97.1701 93.3822 96.4188 93.2844 95.7126 93.1779C95.3807 93.1277 95.0489 93.0776 94.7183 93.0161C94.4663 92.9815 94.221 92.9088 93.9908 92.8005C93.8197 92.7007 93.6557 92.5893 93.4999 92.467C93.4633 92.6644 93.4374 92.8636 93.4223 93.0638C93.416 93.1127 93.416 93.1403 93.416 93.1403Z" fill="black"/>
<path opacity="0.1" d="M102.267 85.6179C102.485 86.1951 102.485 86.8324 102.267 87.4095C103.362 87.5964 105.405 87.9737 106.156 87.476C106.069 86.952 106.046 86.4196 106.086 85.89L102.267 85.6179Z" fill="black"/>
<path opacity="0.1" d="M94.9072 88.1693C95.6811 88.2245 97.7636 88.3335 98.9294 88.0314C99.0697 87.0209 99.2612 86.1194 99.2612 86.1194L95.0237 86.4329C95.0237 86.4329 94.9498 87.2967 94.9072 88.1693Z" fill="black"/>
<path d="M91.8516 58.935C91.8516 58.935 91.9167 59.7185 92.0206 60.8155C92.2548 63.3054 92.6868 67.4164 93.0224 67.7511C93.5032 68.2338 93.2941 71.7819 93.1063 72.4087C92.9184 73.0356 93.1063 77.549 93.1063 77.549C93.5789 79.4344 93.8104 81.3723 93.795 83.3161C93.7324 86.325 94.6089 87.8922 94.6089 87.8922C94.6089 87.8922 98.7412 88.2683 99.5964 87.4684C100.452 86.6685 99.5964 80.3072 99.5964 80.3072C99.5964 80.3072 98.0487 75.108 98.4244 74.3557C98.8 73.6035 99.2383 71.7856 99.2383 71.7856V65.4543C99.8456 64.4513 100.115 63.0722 100.231 61.826C100.324 60.76 100.327 59.6881 100.24 58.6215C100.24 58.6215 101.018 60.2138 101.81 61.7884C102.527 63.2114 103.255 64.6193 103.438 64.8275C103.814 65.2663 103.501 67.2722 103.438 68.2752C103.376 69.2782 104.127 71.2841 104.127 71.2841C103.188 71.8483 103 78.493 103 78.493C103 78.493 103.689 80.1229 102.249 81.9408C100.809 83.7587 101.372 87.2064 101.56 87.081C101.748 86.9556 105.567 88.0213 106.318 87.081C107.07 86.1407 107.884 83.5706 107.884 83.5706C107.884 83.5706 107.508 80.9378 108.322 78.5557C108.925 76.7905 109.665 72.6519 110.008 70.6247C110.132 69.8889 110.152 69.1395 110.07 68.3981C109.912 66.9174 109.669 64.1768 109.756 62.0041C109.784 61.2957 109.764 60.1699 109.717 58.8497C109.555 54.3238 109.067 47.5236 109.067 47.5236L105.673 45.2218L103.433 43.7022L102.885 43.7862L92.6642 45.3672L92.2673 50.4147L91.8516 58.935Z" fill="#444053"/>
<path opacity="0.1" d="M105.676 45.2243L105.855 46.2097C105.855 46.2097 107.357 53.4186 107.671 57.1171C107.984 60.8155 109.298 59.7499 109.298 59.7499C109.413 59.4393 109.554 59.139 109.719 58.8522C109.558 54.3263 109.069 47.5261 109.069 47.5261L105.676 45.2243Z" fill="black"/>
<path d="M94.9404 17.8756C94.9404 17.8756 101.953 23.496 100.658 22.3677C99.9492 21.7483 100.431 19.108 101.012 16.8513C101.491 14.9895 102.035 13.3872 102.035 13.3872C102.035 13.3872 95.9146 7.65397 96.3592 12.3416C96.5157 13.994 96.3855 15.1688 96.1513 15.9987C95.7218 17.5195 94.9404 17.8756 94.9404 17.8756Z" fill="#EFB7B9"/>
<path opacity="0.1" d="M95.5248 16.3811L99.9701 19.8602L101.264 18.4184C101.264 18.4184 102.371 17.9383 102.453 18.4811C102.536 19.024 102.85 22.3677 102.203 22.6811C101.555 22.9945 100.721 23.2039 99.9914 23.0998C99.2613 22.9958 98.4461 22.1796 97.9039 21.8662C97.3617 21.5527 95.3582 19.9229 95.3582 19.9229L94.3564 18.5237L95.5248 16.3811Z" fill="black"/>
<path d="M95.5248 16.5065L99.9701 19.9856L101.264 18.5438C101.264 18.5438 102.371 18.0636 102.453 18.6065C102.536 19.1493 102.85 22.493 102.203 22.8065C101.555 23.1199 100.721 23.3293 99.9914 23.2252C99.2613 23.1211 98.4461 22.305 97.9039 21.9915C97.3617 21.6781 95.3582 20.0483 95.3582 20.0483L94.3564 18.6491L95.5248 16.5065Z" fill="#A36468"/>
<path opacity="0.1" d="M91.8516 58.935C91.8516 58.935 91.9167 59.7186 92.0206 60.8156C93.398 60.8682 96.0702 61.0312 97.946 61.5227C98.6946 61.7081 99.4616 61.8086 100.233 61.8223C100.325 60.7563 100.328 59.6843 100.241 58.6178C100.241 58.6178 101.019 60.21 101.812 61.7847C102.49 61.7389 103.164 61.6514 103.831 61.5227L102.996 50.6566C102.996 50.6566 103.024 47.0096 102.886 43.7825L92.6642 45.3672L92.2673 50.4147L91.8516 58.935Z" fill="black"/>
<path opacity="0.1" d="M99.5313 19.5681C99.5313 19.5681 96.4947 16.2445 95.7747 16.7723C95.0547 17.3001 94.5889 18.5864 94.5889 18.5864L97.062 21.302L99.5313 19.5681Z" fill="black"/>
<path d="M99.4063 19.4427C99.4063 19.4427 96.3697 16.1191 95.6497 16.6469C94.9297 17.1747 94.4639 18.4611 94.4639 18.4611L96.937 21.1766L99.4063 19.4427Z" fill="#A36468"/>
<path opacity="0.1" d="M101.931 21.5729L100.178 19.3726C100.178 19.3726 100.453 17.2926 101.094 17.5584C101.736 17.8242 101.931 18.8886 101.931 18.8886V21.5729Z" fill="black"/>
<path d="M102.056 21.4275L100.312 19.2271C100.312 19.2271 100.587 17.1471 101.228 17.4129C101.869 17.6787 102.056 18.7432 102.056 18.7432V21.4275Z" fill="#A36468"/>
<path opacity="0.1" d="M94.0216 17.4781C94.0216 17.4781 97.6167 21.3647 99.763 21.6255C99.9571 21.6493 100.151 21.6819 100.343 21.7207C100.904 21.8311 102.126 21.7207 101.932 18.5075L102.202 17.9383L103.873 18.9626L104.436 23.5587L105.438 35.3437L106.919 48.4664C106.919 48.4664 102.37 48.0276 101.097 49.1773C99.8231 50.3269 99.4687 42.9087 99.4687 42.9087L95.9838 27.864L92.2686 18.189L94.0216 17.4781Z" fill="black"/>
<path opacity="0.1" d="M92.2686 18.6905L95.9838 28.3655L99.4687 43.4101C99.4687 43.4101 99.8244 50.8271 101.097 49.6787C101.512 49.3026 102.279 49.097 103.121 48.9904C104.158 48.8784 105.202 48.8549 106.242 48.9202C106.658 48.9428 106.919 48.9679 106.919 48.9679L105.437 35.8452L104.435 24.0602L103.871 19.464L102.202 18.4397L101.931 19.0089C101.931 19.0929 101.939 19.1757 101.943 19.2597C102.061 22.2285 100.887 22.3338 100.343 22.226C100.15 22.1871 99.9571 22.1545 99.7617 22.1307C98.2416 21.9439 95.9951 19.9417 94.8143 18.7908C94.3272 18.3144 94.0204 17.9834 94.0204 17.9834L92.2686 18.6905Z" fill="black"/>
<path d="M92.2686 18.3144L95.9838 27.9893L99.4687 43.034C99.4687 43.034 99.8244 50.451 101.097 49.3026C101.512 48.9265 102.279 48.7209 103.121 48.6143C104.158 48.5023 105.202 48.4788 106.242 48.5441C106.658 48.5667 106.919 48.5918 106.919 48.5918L105.437 35.469L104.435 23.6841L103.871 19.0879L102.202 18.0636L101.931 18.6328C101.931 18.7168 101.939 18.7996 101.943 18.8836C102.061 21.8524 100.887 21.9577 100.343 21.8499C100.15 21.811 99.9571 21.7784 99.7617 21.7546C98.2416 21.5678 95.9951 19.5656 94.8143 18.4147C94.3272 17.9383 94.0204 17.6073 94.0204 17.6073L92.2686 18.3144Z" fill="#2A3042"/>
<path opacity="0.1" d="M101.931 18.6328C101.931 18.7168 101.939 18.7996 101.943 18.8836L101.972 18.9036C102.413 19.1945 103.12 24.1066 103.12 24.1066L104.038 36.6225L105.729 45.9627C105.729 45.9627 105.95 47.0271 106.241 48.5479C106.656 48.5704 106.918 48.5955 106.918 48.5955L105.437 35.469L104.435 23.6841L103.872 19.0879L102.202 18.0636L101.931 18.6328Z" fill="black"/>
<path d="M100.781 17.7966C100.781 17.7966 101.783 18.609 102.224 18.8999C102.665 19.1907 103.372 24.1028 103.372 24.1028L104.29 36.6187L105.98 45.9589C105.98 45.9589 107.483 53.1678 107.796 56.8663C108.109 60.5648 109.424 59.4991 109.424 59.4991C109.424 59.4991 110.406 56.6156 112.742 56.4488C115.079 56.2821 113.869 54.9644 113.869 54.9644C113.869 54.9644 112.501 45.0889 111.6 43.3299C111.586 43.2997 111.57 43.2704 111.553 43.2421C111.42 43.024 111.273 42.5889 111.119 42.0072C110.229 38.6422 109.091 30.3476 109.091 30.3476L108.381 20.0671C106.564 17.102 100.929 17.2048 100.929 17.2048L100.781 17.7966Z" fill="#67647E"/>
<path opacity="0.1" d="M92.2686 18.3144L95.9838 27.9894L99.4687 43.034C99.4687 43.034 99.8243 50.451 101.097 49.3026C101.512 48.9265 102.279 48.7209 103.121 48.6143C103.106 46.0643 103.029 41.4882 102.662 39.565C102.344 37.8076 102.212 36.0217 102.266 34.2366L97.7156 24.3109C97.7156 24.3109 94.2934 20.0871 94.2721 19.4828C94.2646 19.2597 94.5075 18.846 94.8155 18.4109C94.3284 17.9345 94.0216 17.6035 94.0216 17.6035L92.2686 18.3144Z" fill="black"/>
<path d="M103.705 61.2757L102.871 50.4097C102.871 50.4097 102.933 42.3018 102.411 39.565C102.093 37.8077 101.96 36.0218 102.014 34.2366L97.4649 24.3109C97.4649 24.3109 94.0426 20.0871 94.0214 19.4828C94.0001 18.8786 95.8133 16.8688 95.8133 16.8688C95.8133 16.8688 91.8513 17.3327 91.3291 19.108C90.807 20.8833 87.9482 21.5741 87.9482 21.5741C87.9482 21.5741 86.5708 22.8278 86.592 26.4222C86.6133 30.0166 90.9747 32.8362 90.9747 32.8362C90.9747 32.8362 91.7048 39.6063 91.0787 42.6579C90.4526 45.7095 90.9948 60.5435 90.9948 60.5435C90.9948 60.5435 95.1897 60.5861 97.8193 61.2757C100.449 61.9652 103.705 61.2757 103.705 61.2757Z" fill="#67647E"/>
<path d="M97.5279 44.037L94.3135 56.2181C94.3135 56.2181 93.8752 57.3051 91.6212 56.4689C89.3673 55.6327 82.8145 52.9171 82.8145 52.9171C82.8145 52.9171 82.2297 51.9555 83.3154 50.1802L86.5924 40.5679L97.5279 44.037Z" fill="#B07473"/>
<path d="M93.3705 49.423L88.1739 43.7022L84.8556 42.3545L83.4932 49.2337L89.8018 56.0978L93.3705 49.423Z" fill="#E1E7EF"/>
<path d="M87.8165 51.3336C87.8165 51.3336 89.3617 52.2426 89.7687 52.2739C90.1756 52.3053 91.6132 55.0221 91.0058 55.0008C90.3985 54.9795 88.986 54.2485 89.1275 54.6247C89.269 55.0008 90.1894 56.1291 90.4574 56.0226C90.7253 55.916 90.8493 56.85 89.706 56.5241C88.5628 56.1981 87.0451 55.9122 87.0451 55.9122C87.0451 55.9122 86.2312 55.3167 86.1999 54.8942C86.1686 54.4717 85.4648 52.2451 85.4648 52.2451L87.8165 51.3336Z" fill="#EFB7B9"/>
<path d="M112.625 19.2384C112.625 19.2384 111.287 16.3485 110.489 15.3919C109.69 14.4354 106.205 13.4086 105.855 13.6906C105.506 13.9727 107.608 15.5574 107.984 15.7605C108.36 15.9636 105.556 17.8505 105.5 17.8919C105.443 17.9332 103.308 17.7013 104.404 18.4222C105.5 19.1431 108.739 19.8778 108.739 19.8778C108.957 19.8398 109.181 19.8469 109.396 19.8984C109.611 19.9499 109.814 20.0448 109.991 20.1774C110.619 20.6338 112.625 19.2384 112.625 19.2384Z" fill="#EFB7B9"/>
<path opacity="0.1" d="M84.8045 51.4791C84.9815 52.0603 85.2191 52.6213 85.5133 53.1529C85.8263 52.8695 88.8154 51.8828 88.8154 51.8828L88.4835 51.37L87.9426 50.5351C87.9426 50.5351 85.2779 49.9558 84.8245 50.5351C84.6718 50.7294 84.6993 51.088 84.8045 51.4791Z" fill="black"/>
<path d="M84.6785 51.3537C84.8556 51.935 85.0931 52.496 85.3873 53.0275C85.7004 52.7441 88.6895 51.7574 88.6895 51.7574L88.3576 51.2447L87.8167 50.4097C87.8167 50.4097 85.1519 49.8304 84.6986 50.4097C84.5458 50.604 84.5733 50.9626 84.6785 51.3537Z" fill="#A36468"/>
<path opacity="0.1" d="M109.569 19.8916C109.665 20.1067 109.778 20.3138 109.907 20.5109C110.389 21.2719 111.119 22.1696 111.119 22.1696C111.119 22.1696 113.967 20.8582 113.967 20.8005C113.967 20.7428 113.103 19.38 112.401 18.3056C112.116 17.8718 111.86 17.4882 111.697 17.2637C111.697 17.2637 110.634 19.4904 109.584 19.5054C109.31 19.5092 109.457 19.6195 109.569 19.8916Z" fill="black"/>
<path d="M109.694 20.0169C109.79 20.2321 109.903 20.4392 110.032 20.6363C110.514 21.3973 111.244 22.2949 111.244 22.2949C111.244 22.2949 114.092 20.9836 114.092 20.9259C114.092 20.8682 113.228 19.5054 112.525 18.431C112.241 17.9972 111.985 17.6135 111.822 17.3891C111.822 17.3891 110.759 19.6157 109.709 19.6308C109.435 19.6345 109.582 19.7449 109.694 20.0169Z" fill="#A36468"/>
<path d="M93.636 43.0127L94.0016 41.9157L88.8701 41.5546L90.7872 41.759L93.229 42.283L93.0412 43.0127H93.636Z" fill="#B07473"/>
<path opacity="0.1" d="M84.6785 51.3538C85.2445 51.0867 86.7547 50.5313 88.3575 51.2447L87.8166 50.4097C87.8166 50.4097 85.1519 49.8304 84.6986 50.4097C84.5458 50.604 84.5733 50.9626 84.6785 51.3538Z" fill="black"/>
<path d="M84.3795 44.5799C84.392 44.7617 84.4033 44.9435 84.4146 45.124C84.4459 45.6769 84.4672 46.2248 84.4809 46.7538C84.5435 49.2036 84.4421 51.2246 84.4421 51.2246C84.4421 51.2246 86.383 50.0549 88.4492 51.0366L88.657 47.0723V47.0033L88.8686 45.2694L89.5549 39.669C89.5549 39.669 90.8484 31.896 91.2453 31.6038C91.6423 31.3117 88.3027 25.0218 88.3027 25.0218L86.5909 26.4222L85.5265 33.6098V37.287C85.5265 37.287 84.1491 41.2788 84.3795 44.5799Z" fill="#67647E"/>
<path opacity="0.1" d="M109.633 19.8402L110.034 20.6363C110.516 21.3974 111.246 22.2951 111.246 22.2951C111.246 22.2951 114.093 20.9836 114.093 20.926C114.093 20.8683 113.229 19.5054 112.527 18.431C112.31 18.1802 112.179 18.0423 112.179 18.0423C113.014 20.111 109.633 19.8402 109.633 19.8402Z" fill="black"/>
<path d="M107.211 19.4828L108.38 20.0696C108.38 20.0696 109.821 22.0129 110.237 22.2222C110.654 22.4316 110.864 22.4103 110.864 22.4103L109.633 19.9655C109.633 19.9655 113.014 20.2363 112.178 18.1677C112.178 18.1677 115.956 22.305 116.373 23.9774C116.373 23.9774 118.461 27.4452 117.96 29.1591C117.459 30.8729 115.434 31.2064 113.973 30.6849C112.511 30.1633 108.025 27.864 108.025 27.864L107.211 19.4828Z" fill="#67647E"/>
<path opacity="0.1" d="M111.406 23.5587C111.406 23.5587 114.558 27.0905 114.308 27.5707C114.057 28.0509 111.573 24.2696 111.406 23.5587Z" fill="black"/>
<path opacity="0.2" d="M97.1839 14.0517C97.1839 14.0517 92.7486 12.714 90.2442 17.5408C87.7398 22.3677 87.6559 22.7024 87.7811 22.9318C87.9063 23.1613 92.7686 21.8875 93.0403 22.4517C93.3121 23.0158 90.2855 25.3352 90.2855 25.3352L102.014 34.2366L97.0862 23.7505C96.7548 23.016 96.3131 22.3365 95.7764 21.7358C94.9662 20.8281 93.858 19.4377 94.25 19.0089C94.5956 18.6328 95.149 17.6512 95.8954 16.5216C96.4426 15.6929 97.3116 14.7588 97.1839 14.0517Z" fill="black"/>
<path d="M97.3089 13.9264C97.3089 13.9264 92.8736 12.5886 90.3692 17.4155C87.8648 22.2423 87.7809 22.577 87.9061 22.8065C88.0313 23.0359 92.8936 21.7621 93.1653 22.3263C93.4371 22.8905 90.4105 25.2098 90.4105 25.2098L102.013 34.2366L97.2112 23.6251C96.8798 22.8906 96.4381 22.2111 95.9014 21.6104C95.0912 20.7027 93.983 19.3123 94.375 18.8836C94.7206 18.5075 95.274 17.5258 96.0204 16.3962C96.5676 15.5675 97.4366 14.6335 97.3089 13.9264Z" fill="#67647E"/>
<path opacity="0.1" d="M97.3089 13.9264C97.3089 13.9264 92.8736 12.5886 90.3692 17.4155C87.8648 22.2423 87.7809 22.577 87.9061 22.8065C88.0313 23.0359 92.8936 21.7621 93.1653 22.3263C93.4371 22.8905 90.4105 25.2098 90.4105 25.2098L102.013 34.2366L96.9808 23.1149C96.786 22.6825 96.5221 22.2849 96.1994 21.9376C95.4068 21.0826 93.9317 19.3688 94.375 18.8836C94.7206 18.5075 95.274 17.5258 96.0204 16.3962C96.5676 15.5675 97.4366 14.6335 97.3089 13.9264Z" fill="black"/>
<path d="M96.4013 36.0533C96.9082 36.0533 97.3192 35.6419 97.3192 35.1343C97.3192 34.6268 96.9082 34.2153 96.4013 34.2153C95.8943 34.2153 95.4834 34.6268 95.4834 35.1343C95.4834 35.6419 95.8943 36.0533 96.4013 36.0533Z" fill="#444053"/>
<path d="M96.4013 41.7578C96.9082 41.7578 97.3192 41.3463 97.3192 40.8388C97.3192 40.3312 96.9082 39.9198 96.4013 39.9198C95.8943 39.9198 95.4834 40.3312 95.4834 40.8388C95.4834 41.3463 95.8943 41.7578 96.4013 41.7578Z" fill="#444053"/>
<path d="M84.4812 46.7538C85.0097 46.8792 87.5153 46.8228 88.6548 47.0723V47.0033L88.8664 45.2694C87.5817 45.1089 84.7893 44.8043 84.4111 45.124C83.9215 45.5415 83.8514 46.6096 84.4812 46.7538Z" fill="#67647E"/>
<path opacity="0.1" d="M84.4812 46.8792C85.0097 47.0045 87.5153 46.9481 88.6548 47.1976V47.1287L88.8664 45.3948C87.5817 45.2343 84.7893 44.9296 84.4111 45.2493C83.9215 45.6668 83.8514 46.735 84.4812 46.8792Z" fill="black"/>
<path opacity="0.1" d="M84.4812 46.7538C85.0097 46.8792 87.5153 46.8228 88.6548 47.0723V47.0033L88.8664 45.2694C87.5817 45.1089 84.7893 44.8043 84.4111 45.124C83.9215 45.5415 83.8514 46.6096 84.4812 46.7538Z" fill="black"/>
<path d="M85.0271 46.4705C85.3328 46.4705 85.5806 46.2224 85.5806 45.9163C85.5806 45.6103 85.3328 45.3622 85.0271 45.3622C84.7214 45.3622 84.4736 45.6103 84.4736 45.9163C84.4736 46.2224 84.7214 46.4705 85.0271 46.4705Z" fill="#444053"/>
<path opacity="0.1" d="M95.4825 48.1316L93.1447 56.1141C93.1447 56.1141 92.5186 56.4062 92.5186 55.8847C92.5186 55.3631 95.4825 48.1316 95.4825 48.1316Z" fill="white"/>
<path opacity="0.1" d="M96.3791 15.6063C96.5267 15.7249 96.681 15.835 96.8411 15.9361C97.6363 16.4376 98.3438 17.1196 99.358 17.1196C99.9206 17.1204 100.479 17.0285 101.012 16.8475C101.491 14.9857 102.035 13.3835 102.035 13.3835C102.035 13.3835 95.9145 7.65021 96.359 12.3379C96.5156 13.9903 96.6132 14.7764 96.3791 15.6063Z" fill="black"/>
<path d="M94.2169 11.7211C94.2169 12.7392 94.5184 13.7345 95.0834 14.581C95.6483 15.4276 96.4513 16.0874 97.3908 16.477C98.3303 16.8666 99.3641 16.9686 100.361 16.7699C101.359 16.5713 102.275 16.081 102.994 15.3611C103.713 14.6412 104.203 13.7239 104.401 12.7253C104.6 11.7268 104.498 10.6917 104.109 9.75108C103.719 8.81045 103.06 8.00647 102.215 7.44083C101.369 6.87518 100.375 6.57327 99.3584 6.57327C98.6823 6.57011 98.0123 6.70111 97.3871 6.9587C96.7619 7.21628 96.1938 7.59534 95.7157 8.07399C95.2377 8.55263 94.8591 9.12137 94.6018 9.74736C94.3445 10.3733 94.2137 11.0442 94.2169 11.7211Z" fill="#EFB7B9"/>
<path d="M102.272 16.0301C102.32 16.1479 102.404 16.2469 102.513 16.3122L103.329 16.8137L104.856 17.7427L107.271 19.212C107.328 19.2463 107.385 19.2777 107.444 19.3061C107.727 19.4501 108.039 19.5272 108.357 19.5316C108.674 19.5359 108.989 19.4674 109.276 19.3311C109.493 19.2335 109.683 19.0858 109.832 18.9001C109.98 18.7144 110.083 18.4961 110.131 18.263C110.195 17.9385 110.168 17.6025 110.053 17.2926C109.937 16.9826 109.738 16.7109 109.477 16.5078C109.464 16.4965 109.449 16.4884 109.432 16.4839C108.918 16.3395 108.435 16.1029 108.005 15.7856L106.485 14.7325L105.127 13.49L104.441 13.0149C104.34 12.9451 104.222 12.9056 104.1 12.9012C103.977 12.8967 103.856 12.9275 103.751 12.9898C103.047 13.3973 101.646 14.4454 102.272 16.0301Z" fill="#E1E7EF"/>
<path d="M103.329 16.8062L104.856 17.7353C105.174 16.4514 105.983 15.545 106.685 14.8604L105.127 13.4813C103.943 14.0693 103.472 16.0302 103.329 16.8062Z" fill="#A36468"/>
<path opacity="0.1" d="M107.44 19.2986C107.724 19.4426 108.036 19.5198 108.354 19.5241C108.671 19.5285 108.985 19.4599 109.272 19.3237C109.489 19.226 109.68 19.0783 109.828 18.8926C109.977 18.7069 110.08 18.4886 110.128 18.2555C110.192 17.931 110.165 17.595 110.05 17.285C109.934 16.9751 109.735 16.7034 109.474 16.5002C109.095 16.6609 108.744 16.8814 108.435 17.1534C108.003 17.5275 107.691 18.0201 107.536 18.5702C107.474 18.8082 107.442 19.0528 107.44 19.2986Z" fill="black"/>
<path opacity="0.1" d="M94.2168 11.721C94.2158 12.4708 94.379 13.2116 94.6951 13.8912C95.0053 14.2005 95.2416 14.5759 95.3864 14.9895C95.7345 15.4133 95.871 15.6527 96.3355 15.9461C96.5221 15.7493 96.9429 15.6302 97.0192 15.3756C97.2133 14.7199 97.1031 14.0191 97.0931 13.3358C97.0931 13.0324 97.1357 12.6739 97.4024 12.5284C97.624 12.4031 97.9033 12.4933 98.1212 12.6162C98.3391 12.7391 98.5557 12.8983 98.8061 12.9271C99.1818 12.9698 99.5249 12.7052 99.7353 12.3943C99.9456 12.0834 100.067 11.7198 100.266 11.4013C100.529 10.9814 100.917 10.6591 101.299 10.3457C101.736 9.98464 102.161 9.58471 102.627 9.26125C102.905 9.06692 103.238 8.97665 103.512 8.78107L103.556 8.74847C102.925 7.8565 102.028 7.18844 100.993 6.84097C99.9588 6.49349 98.8406 6.48463 97.8006 6.81566C96.7606 7.14669 95.8528 7.80045 95.2085 8.68232C94.5642 9.56419 94.2169 10.6284 94.2168 11.721Z" fill="black"/>
<path d="M104.348 6.0304C104.239 5.30826 103.642 4.63 102.913 4.61746C102.31 4.60743 101.797 5.01614 101.264 5.29572C100.717 5.57759 100.116 5.735 99.5014 5.75667C98.8872 5.77835 98.2758 5.66375 97.7111 5.4211C97.3843 5.27692 97.0512 5.0851 96.6943 5.11519C96.3374 5.14528 96.0532 5.37847 95.8052 5.61668C95.2199 6.19734 94.7612 6.89317 94.4579 7.66024C94.369 7.88591 94.2876 8.12537 94.1148 8.29588C93.982 8.40499 93.8385 8.50034 93.6865 8.58048C93.4247 8.75448 93.2003 8.97907 93.0263 9.24108C92.8524 9.50308 92.7324 9.79722 92.6735 10.1063C92.5606 10.7278 92.6244 11.3685 92.8576 11.9555C92.9986 12.358 93.2285 12.7235 93.53 13.0249C93.7579 13.2393 94.0309 13.401 94.27 13.6004C94.6595 13.9323 94.9565 14.3595 95.132 14.8405C95.3076 15.3214 95.3557 15.8397 95.2718 16.3448C95.938 16.4977 96.5766 15.901 96.7745 15.2453C96.9723 14.5896 96.8583 13.89 96.8483 13.2055C96.8483 12.9021 96.8909 12.5447 97.1576 12.3993C97.3793 12.2739 97.6585 12.3642 97.8764 12.4871C98.0943 12.6099 98.3097 12.7679 98.5613 12.798C98.937 12.8406 99.2801 12.5761 99.4905 12.2652C99.7008 11.9542 99.8211 11.5907 100.021 11.2722C100.283 10.8522 100.673 10.53 101.054 10.2166C101.491 9.85551 101.916 9.45557 102.381 9.13211C102.66 8.93779 102.993 8.84752 103.267 8.65194C104.091 8.06143 104.348 6.97822 104.348 6.0304Z" fill="#585268"/>
<path opacity="0.1" d="M100.366 14.6372C100.366 14.6372 100.436 14.6535 100.558 14.6873C100.5 14.6538 100.433 14.6365 100.366 14.6372Z" fill="black"/>
<g opacity="0.1">
<path opacity="0.1" d="M96.5178 14.8403C96.7119 14.1846 96.6017 13.4838 96.5917 12.8005C96.5917 12.4971 96.6343 12.1385 96.901 11.9931C97.1226 11.8677 97.4019 11.958 97.6198 12.0809C97.8377 12.2037 98.053 12.363 98.3047 12.3918C98.6804 12.4344 99.0235 12.1711 99.2339 11.859C99.4442 11.5468 99.5644 11.1845 99.7648 10.866C100.027 10.446 100.416 10.1238 100.798 9.81038C101.235 9.45056 101.659 9.04937 102.124 8.72591C102.403 8.53158 102.736 8.44131 103.011 8.24573C103.839 7.65147 104.096 6.56825 104.096 5.62169C104.068 5.44019 104.012 5.2642 103.93 5.10014C104.15 5.35498 104.295 5.66698 104.347 6.00032C104.347 6.94688 104.096 8.03009 103.261 8.62436C102.987 8.81994 102.654 8.9102 102.374 9.10453C101.91 9.42799 101.485 9.82918 101.048 10.189C100.666 10.5024 100.277 10.8246 100.015 11.2446C99.8149 11.5631 99.6959 11.9267 99.4843 12.2376C99.2727 12.5485 98.9283 12.813 98.5552 12.7704C98.3047 12.7416 98.0919 12.5811 97.8702 12.4595C97.6486 12.3379 97.3693 12.2514 97.1514 12.3717C96.8847 12.5172 96.8371 12.8732 96.8421 13.1791C96.8522 13.8624 96.9674 14.5582 96.7683 15.2189C96.5692 15.8796 95.9343 16.4727 95.2656 16.3172C95.2867 16.1995 95.2996 16.0806 95.3044 15.9611C95.8617 15.9135 96.3513 15.4032 96.5178 14.8403Z" fill="black"/>
<path opacity="0.1" d="M93.2786 12.6187C93.5065 12.8331 93.7795 12.9948 94.0187 13.1942C94.282 13.4164 94.5031 13.6844 94.6711 13.9853C94.5518 13.8335 94.4171 13.6944 94.2691 13.5703C94.0287 13.371 93.757 13.2092 93.5291 12.9948C93.3471 12.8198 93.1934 12.6177 93.0732 12.3956C93.1367 12.4744 93.2053 12.5489 93.2786 12.6187Z" fill="black"/>
</g>
<path opacity="0.1" d="M100.196 57.3716C100.288 57.6437 100.418 57.9094 100.436 58.1965C100.466 58.6842 100.168 59.1393 100.146 59.6283C100.121 60.1975 100.467 60.7077 100.798 61.1704C100.406 61.1704 99.9773 61.035 99.7782 60.6977C99.71 60.5679 99.6607 60.429 99.6317 60.2852C99.2774 58.8698 98.933 57.3215 99.5491 56C99.6435 55.7715 99.7818 55.5636 99.956 55.3882C100.06 56.0552 99.9723 56.7109 100.196 57.3716Z" fill="black"/>
<path opacity="0.1" d="M109.991 47.3819L111.032 45.9765C111.282 45.6367 111.541 45.2832 111.632 44.8707C111.729 44.4181 111.615 43.9492 111.6 43.4916C111.6 43.4402 111.6 43.3876 111.6 43.3349C111.586 43.3047 111.57 43.2754 111.553 43.2471C111.42 43.029 111.273 42.5939 111.119 42.0122C110.968 42.1632 110.85 42.3448 110.774 42.5451C110.289 43.7286 110.738 45.1177 110.337 46.3313C110.222 46.6798 110.034 47.0133 109.991 47.3819Z" fill="black"/>
<path opacity="0.1" d="M107.342 89.9257C106.828 90.2946 106.241 90.5491 105.62 90.6722C105 90.7952 104.36 90.7839 103.744 90.6391" fill="black"/>
<path opacity="0.1" d="M98.7195 90.1326C98.4562 90.3795 98.1452 90.5697 97.8055 90.6915C97.4659 90.8132 97.1049 90.8639 96.7449 90.8404C96.385 90.8169 96.0336 90.7197 95.7126 90.5548C95.3917 90.3899 95.1079 90.1609 94.8789 89.8818" fill="black"/>
<path opacity="0.1" d="M104.215 71.2328C104.714 71.3481 105.237 71.2982 105.706 71.0907C106.175 70.8832 106.564 70.5292 106.814 70.0818" fill="black"/>
<path opacity="0.1" d="M98.2792 74.4009C97.4858 74.4591 96.6965 74.2422 96.0439 73.7866L98.2792 74.4009Z" fill="black"/>
<path opacity="0.1" d="M102.33 81.9759C102.998 82.2479 103.592 82.6704 104.242 82.9788C104.892 83.2873 105.645 83.4904 106.333 83.2747" fill="black"/>
<path d="M66.2838 83.8352C72.1704 83.8352 76.9425 82.4571 76.9425 80.7573C76.9425 79.0574 72.1704 77.6794 66.2838 77.6794C60.3971 77.6794 55.625 79.0574 55.625 80.7573C55.625 82.4571 60.3971 83.8352 66.2838 83.8352Z" fill="#5F5D7E"/>
<path opacity="0.1" d="M66.2839 80.3811C67.4617 80.3811 68.4165 80.1055 68.4165 79.7656C68.4165 79.4256 67.4617 79.15 66.2839 79.15C65.1062 79.15 64.1514 79.4256 64.1514 79.7656C64.1514 80.1055 65.1062 80.3811 66.2839 80.3811Z" fill="black"/>
<path d="M67.29 63.5299H65.0986V79.7656H67.29V63.5299Z" fill="#5F5D7E"/>
<path opacity="0.1" d="M67.29 64.3335V66.2141C66.8518 66.0787 65.8512 65.5083 65.0986 65.0594V63.5298H65.5557L67.29 64.3335Z" fill="black"/>
<path d="M62.127 56.4614C62.127 56.4614 69.3622 54.5971 71.1628 53.2017C72.9635 51.8063 80.0347 58.3733 79.1006 60.8494C78.1664 63.3255 74.7654 65.1221 74.7654 65.1221C74.7654 65.1221 65.3589 66.6541 63.7586 63.4584C62.1583 60.2627 62.127 56.4614 62.127 56.4614Z" fill="#474157"/>
<path opacity="0.1" d="M62.127 56.4614C62.127 56.4614 69.3622 54.5971 71.1628 53.2017C72.9635 51.8063 80.0347 58.3733 79.1006 60.8494C78.1664 63.3255 74.7654 65.1221 74.7654 65.1221C74.7654 65.1221 65.3589 66.6541 63.7586 63.4584C62.1583 60.2627 62.127 56.4614 62.127 56.4614Z" fill="black"/>
<path d="M61.501 55.7091C61.501 55.7091 68.7362 53.8449 70.5369 52.4495C72.3376 51.0541 79.4088 57.6211 78.4747 60.0972C77.5405 62.5733 74.1395 64.3699 74.1395 64.3699C74.1395 64.3699 64.7329 65.9019 63.1326 62.7062C61.5323 59.5104 61.501 55.7091 61.501 55.7091Z" fill="#474157"/>
<path opacity="0.1" d="M76.3716 42.9323C76.3442 42.9323 76.3181 42.9261 76.292 42.9212C76.319 42.9183 76.3464 42.9221 76.3716 42.9323Z" fill="black"/>
<path d="M54.9371 50.1577C54.2146 49.9809 52.2223 49.8179 51.2744 53.0011C51.0537 53.7405 50.7727 54.4605 50.4342 55.1537C49.5238 57.023 48.3505 60.8657 53.5158 61.712L65.9126 64.5328C65.9126 64.5328 72.5493 65.3477 72.9876 65.0343C73.4258 64.7209 73.3632 64.0313 73.3632 64.0313C73.3632 64.0313 66.0378 64.0313 64.5978 61.7746C63.1578 59.5179 63.0952 56.4463 63.0952 56.4463C63.0952 56.4463 63.2755 51.7035 55.7072 50.3257C55.4517 50.2793 55.1938 50.2203 54.9371 50.1577Z" fill="#474157"/>
<path opacity="0.1" d="M54.9371 50.179C54.2146 50.0022 52.2223 49.8392 51.2744 53.0224C51.0535 53.7621 50.7725 54.4825 50.4342 55.1763C49.5238 57.0444 48.3505 60.8883 53.5158 61.7345L65.9126 64.5554C65.9126 64.5554 72.5493 65.3703 72.9876 65.0569C73.4258 64.7435 73.3632 64.0539 73.3632 64.0539C73.3632 64.0539 66.0378 64.0539 64.5978 61.7972C63.1578 59.5405 63.0952 56.4689 63.0952 56.4689C63.0952 56.4689 63.2755 51.7261 55.7072 50.3482C55.4517 50.3006 55.1938 50.2417 54.9371 50.179Z" fill="black"/>
<path d="M80.9233 46.9143C80.8516 46.4553 80.6159 46.0381 80.2601 45.7399C79.9043 45.4418 79.4525 45.2831 78.9887 45.2932C77.3971 45.3233 72.8529 45.5164 70.083 46.7425C69.4744 47.0121 68.8646 47.2741 68.2385 47.4947C67.6725 47.6966 66.9976 48.0188 66.6633 48.4814C66.3289 48.9441 58.4613 55.0008 69.7938 60.8306C69.7938 60.8306 75.8669 62.562 78.2461 58.4999C78.2461 58.4999 79.9366 54.1357 79.8114 52.625C79.6862 51.1142 80.9384 47.0396 80.9384 47.0396C80.9384 47.0396 80.9359 46.997 80.9233 46.9143Z" fill="#474157"/>
<path opacity="0.1" d="M80.9237 48.0125C80.781 47.1349 79.947 46.5005 78.9891 46.5168C77.206 46.5469 71.7176 46.7676 69.1681 48.3059C69.1681 48.3059 67.2272 49.4631 66.6637 49.4631C66.1002 49.4631 58.4617 55.481 69.7942 60.8632C69.7942 60.8632 75.8673 62.4604 78.2465 58.7105C78.2465 58.7105 79.937 54.6823 79.8118 53.2882C79.6866 51.8941 80.9388 48.1316 80.9388 48.1316C80.9388 48.1316 80.9363 48.0878 80.9237 48.0125Z" fill="black"/>
<path d="M74.8659 60.8344H72.8623V65.1059H74.8659V60.8344Z" fill="#5F5D7E"/>
<defs>
<linearGradient id="paint0_linear_47_2269" x1="100.348" y1="94.6247" x2="100.348" y2="4.22378" gradientUnits="userSpaceOnUse">
<stop stop-color="#808080" stop-opacity="0.25"/>
<stop offset="0.54" stop-color="#808080" stop-opacity="0.12"/>
<stop offset="1" stop-color="#808080" stop-opacity="0.1"/>
</linearGradient>
</defs>
</svg>
