<svg width="95" height="113" viewBox="0 0 95 113" fill="none" xmlns="http://www.w3.org/2000/svg">
<g clip-path="url(#clip0_47_2539)">
<path d="M36.7945 92.7461C34.9042 90.8003 32.1649 89.6843 29.279 89.6843L29.1677 89.6846C27.2668 89.6854 25.3998 89.1821 23.7577 88.2264L23.5868 88.127L23.7245 87.9855C24.4696 87.216 25.0917 86.3369 25.5691 85.3787C25.2301 85.6943 24.8256 85.9315 24.3845 86.0738C23.9434 86.216 23.4763 86.2597 23.0164 86.2018C22.5308 86.1441 22.0647 85.9773 21.6529 85.714C21.2411 85.4508 20.8944 85.0979 20.6387 84.6818C19.6301 83.0483 18.4277 80.7305 18.4277 78.9648C18.4293 77.4723 18.7424 75.9965 19.347 74.6315C19.9517 73.2665 20.8346 72.0422 21.9396 71.0366C22.6391 70.4071 23.1979 69.6374 23.5794 68.7778C23.961 67.9183 24.1567 66.9881 24.1539 66.048L24.1534 65.9142C24.1532 64.6764 24.3047 63.4433 24.6046 62.2423L24.6351 62.121L24.7601 62.1254C25.5663 62.1528 26.3729 62.0853 27.1633 61.9244C26.4219 61.8337 25.6966 61.6411 25.008 61.3523L24.8735 61.298L24.9192 61.1604C28.0655 59.216 35.1676 60.2229 39.2899 50.8091C42.6326 43.1758 54.4265 57.5852 54.4265 65.9142C54.4265 66.7641 53.5838 67.8871 54.2146 68.4489C61.0339 74.5211 56.3287 78.4204 54.8452 82.3439C54.4933 83.2749 55.2564 84.2968 55.2564 85.304C55.2564 85.4748 55.2521 85.6513 55.2434 85.8283L55.2303 86.1004L55.0029 85.9494C54.5531 85.6553 54.1362 85.3139 53.7592 84.9312C54.1503 85.8294 54.3346 86.8038 54.2986 87.7825C54.2626 88.7612 54.0071 89.7194 53.5511 90.5866C52.8364 91.9329 52.1451 92.8967 51.4962 93.4511C49.4175 95.2266 46.7379 96.1424 44.0052 96.0113C41.2724 95.8803 38.6931 94.7123 36.7945 92.7461H36.7945Z" fill="#E6E6E6"/>
<path d="M48.2115 113C48.2579 113 48.3028 112.983 48.3379 112.953C48.373 112.922 48.3959 112.88 48.4024 112.834C48.4107 112.777 49.2144 106.991 48.4925 99.3012C47.8259 92.1995 45.685 81.9706 39.2717 73.5697C39.2564 73.5496 39.2372 73.5326 39.2152 73.5199C39.1933 73.5071 39.1691 73.4988 39.1439 73.4954C39.1188 73.492 39.0932 73.4935 39.0686 73.5C39.0441 73.5065 39.0211 73.5177 39.0009 73.5331C38.9807 73.5484 38.9637 73.5676 38.951 73.5895C38.9382 73.6114 38.9299 73.6356 38.9265 73.6607C38.9231 73.6858 38.9248 73.7114 38.9313 73.7359C38.9378 73.7603 38.9491 73.7833 38.9645 73.8034C45.3223 82.1317 47.446 92.2856 48.1079 99.3371C48.8256 106.982 48.0281 112.723 48.02 112.78C48.0161 112.807 48.0182 112.835 48.026 112.862C48.0339 112.888 48.0473 112.913 48.0655 112.934C48.0836 112.954 48.1061 112.971 48.1313 112.983C48.1564 112.994 48.1838 113 48.2115 113V113Z" fill="#3F3D56"/>
<path d="M42.9771 85.4195C43.0179 85.4195 43.0577 85.4067 43.0907 85.3827C43.1237 85.3588 43.1483 85.3251 43.1609 85.2864C43.1736 85.2476 43.1736 85.2059 43.161 85.1672C43.1484 85.1285 43.1238 85.0947 43.0908 85.0708C41.2634 83.8361 39.2893 82.8331 37.2139 82.0847C33.9715 80.8999 29.041 79.8258 23.9651 81.4382C23.9408 81.4459 23.9184 81.4582 23.8989 81.4745C23.8795 81.4908 23.8635 81.5108 23.8518 81.5333C23.8401 81.5558 23.8329 81.5804 23.8308 81.6057C23.8286 81.6309 23.8315 81.6563 23.8392 81.6805C23.8469 81.7047 23.8593 81.7271 23.8757 81.7464C23.8921 81.7658 23.9121 81.7818 23.9347 81.7934C23.9573 81.805 23.9819 81.8121 24.0072 81.8142C24.0325 81.8163 24.058 81.8133 24.0822 81.8056C29.0541 80.2263 33.8953 81.2827 37.0811 82.4468C39.1231 83.1824 41.0656 84.1686 42.8637 85.3827C42.8967 85.4066 42.9364 85.4195 42.9771 85.4195Z" fill="#3F3D56"/>
<path d="M51.8178 63.4437C51.8208 63.4031 51.8108 63.3626 51.7893 63.328C51.7677 63.2934 51.7358 63.2665 51.698 63.2512C51.6602 63.2358 51.6185 63.2328 51.5789 63.2425C51.5393 63.2523 51.5038 63.2743 51.4775 63.3054C50.1122 65.0357 48.9677 66.9288 48.0704 68.941C46.6529 72.0836 45.2245 76.9147 46.4702 82.084C46.4761 82.1086 46.4868 82.1319 46.5017 82.1524C46.5167 82.1729 46.5355 82.1902 46.5571 82.2035C46.5787 82.2167 46.6028 82.2256 46.6279 82.2296C46.6529 82.2335 46.6785 82.2325 46.7032 82.2266C46.7279 82.2207 46.7512 82.2099 46.7717 82.195C46.7922 82.1801 46.8096 82.1613 46.8228 82.1397C46.8361 82.1181 46.8449 82.0941 46.8488 82.069C46.8528 82.044 46.8517 82.0185 46.8458 81.9938C45.6256 76.9304 47.0299 72.187 48.4227 69.0993C49.3047 67.1194 50.4301 65.2566 51.7728 63.554C51.7991 63.5229 51.8149 63.4843 51.8178 63.4437Z" fill="#3F3D56"/>
<path d="M89.0724 112.796H73.6966L73.6305 112.676C73.4339 112.32 73.2441 111.943 73.0667 111.556C71.4829 108.171 70.8135 104.301 70.2228 100.886L69.778 98.3115C69.7242 97.9998 69.7648 97.6791 69.8946 97.3905C70.0244 97.1019 70.2375 96.8585 70.5067 96.6915C70.7759 96.5245 71.0889 96.4415 71.4057 96.4531C71.7224 96.4647 72.0285 96.5704 72.2847 96.7566C74.6214 98.4538 76.959 100.149 79.2975 101.843C80.183 102.486 81.1942 103.23 82.1627 104.035C82.2562 103.582 82.3539 103.127 82.4516 102.679C82.519 102.37 82.6773 102.088 82.9064 101.869C83.1354 101.65 83.4247 101.504 83.7372 101.45C84.0497 101.396 84.3712 101.437 84.6606 101.566C84.95 101.696 85.1941 101.909 85.3616 102.177L87.1606 105.062C88.4727 107.169 89.6308 109.245 89.3948 111.484C89.396 111.511 89.3939 111.538 89.3887 111.565C89.3415 111.933 89.2539 112.295 89.1276 112.643L89.0724 112.796Z" fill="#F0F0F0"/>
<path d="M81.9092 52.4613L78.9418 41.4987C78.8147 41.0346 78.5099 40.639 78.0931 40.3973C77.6764 40.1555 77.1811 40.087 76.7142 40.2065C76.4727 40.2683 76.2463 40.3786 76.0488 40.5306C75.8514 40.6826 75.687 40.8732 75.5657 41.0907C75.4445 41.3081 75.3689 41.548 75.3435 41.7956C75.3181 42.0432 75.3436 42.2933 75.4182 42.5308L78.8504 53.824L80.6462 60.7739C80.3846 60.9732 80.1909 61.2481 80.0913 61.5611C79.9917 61.8741 79.9911 62.2102 80.0895 62.5236C80.188 62.837 80.3807 63.1125 80.6415 63.3128C80.9023 63.5131 81.2185 63.6284 81.5472 63.643C81.876 63.6577 82.2012 63.571 82.4789 63.3947C82.7565 63.2184 82.973 62.961 83.099 62.6576C83.225 62.3542 83.2544 62.0194 83.1832 61.6988C83.1119 61.3782 82.9435 61.0872 82.7008 60.8654L81.9092 52.4613Z" fill="#A0616A"/>
<path d="M56.9395 50.1003L65.9556 43.1745C66.3368 42.88 66.5866 42.4477 66.6512 41.9709C66.7158 41.4941 66.59 41.0111 66.3009 40.6261C66.1514 40.427 65.9628 40.2603 65.7466 40.1362C65.5304 40.0122 65.2912 39.9334 65.0435 39.9046C64.7958 39.8759 64.5448 39.8978 64.3059 39.969C64.067 40.0402 63.8451 40.1592 63.6537 40.3188L54.5091 47.7996L48.7605 52.1114C48.476 51.9463 48.1475 51.8726 47.8196 51.9004C47.4918 51.9281 47.1804 52.056 46.9278 52.2665C46.6753 52.477 46.4938 52.7601 46.408 53.0771C46.3222 53.3942 46.3363 53.73 46.4483 54.0388C46.5603 54.3476 46.7649 54.6145 47.0342 54.8032C47.3036 54.9919 47.6245 55.0933 47.9536 55.0936C48.2827 55.0939 48.6038 54.9931 48.8735 54.8049C49.1431 54.6166 49.3482 54.3501 49.4608 54.0415L56.9395 50.1003Z" fill="#A0616A"/>
<path d="M64.288 51.6924L63.8906 60.5517L76.3693 57.8447C75.3071 54.2848 74.5849 53.6776 75.3831 51.2002L64.288 51.6924Z" fill="#A0616A"/>
<path d="M71.9603 35.4508H67.8024L66.0168 38.5006L65.1659 38.4537C64.7498 38.4308 64.3333 38.4928 63.942 38.636C63.5507 38.7792 63.1928 39.0005 62.89 39.2864C62.5873 39.5723 62.3462 39.9169 62.1814 40.299C62.0166 40.681 61.9316 41.0927 61.9316 41.5087L62.98 43.1304C62.98 43.1304 61.1051 46.3917 63.8058 47.9962C63.8058 47.9962 63.3241 51.0191 63.8058 50.9866C64.2875 50.9541 65.397 50.3389 64.2875 50.9541C63.178 51.5693 63.2608 51.652 63.4043 51.7952L63.5478 51.9385L75.2143 53.8937C75.2143 53.8937 75.5555 51.6363 75.5923 51.2337C75.6291 50.8311 75.3825 51.8154 75.6291 50.8311C75.8756 49.8467 76.2455 50.2158 75.8756 49.8467C75.5058 49.4775 78.2719 44.9043 77.1354 43.1304L78.9576 41.3565C78.9576 39.6549 76.2195 38.2755 74.5147 38.2755H74.2963L71.9603 35.4508Z" fill="#E6E6E6"/>
<path d="M61.9426 109.38H60.2596L59.459 102.901L61.9428 102.902L61.9426 109.38Z" fill="#A0616A"/>
<path d="M56.8633 111.859C56.8641 112.047 56.9393 112.227 57.0725 112.361C57.2056 112.494 57.3861 112.569 57.5746 112.57H60.7426L60.8408 112.367L61.2889 111.444L61.4625 112.367L61.5009 112.57H62.6958L62.6787 112.366L62.3601 108.552L61.9433 108.526L60.1423 108.42L59.6999 108.393V109.532C59.3642 109.888 56.7296 111.236 56.8633 111.859Z" fill="#2F2E41"/>
<path d="M86.9532 104.981L85.5379 105.889L81.3525 100.873L83.4416 99.5318L86.9532 104.981Z" fill="#A0616A"/>
<path d="M84.0252 109.808C84.1279 109.966 84.2888 110.077 84.473 110.117C84.6572 110.157 84.8498 110.123 85.009 110.022L87.6734 108.311L87.6459 108.088L87.5225 107.069L88.1687 107.752L88.311 107.902L89.316 107.257L89.1908 107.094L86.8555 104.059L86.4912 104.262L84.9188 105.145L84.5321 105.361L85.1494 106.319C85.0602 106.8 83.5749 109.356 84.0252 109.808Z" fill="#2F2E41"/>
<path d="M94.8042 112.914L42.6928 112.965C42.6408 112.965 42.591 112.944 42.5543 112.907C42.5177 112.87 42.4971 112.82 42.4971 112.769C42.4971 112.717 42.5177 112.667 42.5543 112.63C42.591 112.593 42.6408 112.572 42.6928 112.572L94.8042 112.521C94.8562 112.522 94.906 112.543 94.9427 112.579C94.9793 112.616 94.9999 112.666 94.9999 112.718C94.9999 112.77 94.9793 112.82 94.9427 112.856C94.906 112.893 94.8562 112.914 94.8042 112.914Z" fill="#CACACA"/>
<path d="M76.1737 56.8439C76.1737 56.8439 68.1971 61.0552 63.9781 58.182C63.9781 58.182 63.0552 62.6435 62.6854 63.0126C62.3156 63.3817 61.7264 63.5426 62.1442 63.9543C62.5621 64.3661 62.7948 64.9222 62.0004 65.6285C61.2061 66.3348 60.414 66.1107 61.1799 66.838C61.9457 67.5653 58.8638 85.4069 58.8638 85.4069C58.8638 85.4069 59.3569 101.999 58.8638 102.501C58.3707 103.002 57.7116 103.115 58.3493 103.735C58.9871 104.356 58.9871 103.875 58.9871 104.731V105.586L59.2789 106.437H63.2816C63.2816 106.437 64.2475 105.317 63.2816 104.344C62.3156 103.372 63.5755 103.105 63.8701 102.193C64.1648 101.28 64.6579 102.264 64.1647 101.28C63.6716 100.295 63.4348 100.483 63.4299 99.8354C63.4251 99.188 70.6985 73.8406 70.6985 73.8406L71.5794 87.8701L82.1758 103.235L85.2948 100.9C85.2948 100.9 83.0239 97.7092 83.5549 97.2705C84.086 96.8319 81.9899 96.2817 82.6508 95.7869C83.3118 95.2921 81.7207 94.7935 82.3203 94.1376C82.92 93.4817 81.4941 91.8285 80.6679 91.8285C79.8417 91.8285 78.6821 89.0727 78.6821 89.0727L80.4131 67.3027L76.1737 56.8439Z" fill="#2F2E41"/>
<path d="M67.7192 26.4959C67.6628 26.5698 67.213 26.53 66.6722 26.4512C65.6029 26.2953 65.4571 26.4805 64.6577 27.2063C63.4998 28.2576 64.1582 34.67 63.5891 36.0594L63.4053 36.1946C63.7699 36.1251 64.128 36.0251 64.4758 35.8956C64.6723 35.2768 64.8693 34.6561 65.0677 34.0378C65.2549 34.5189 65.3726 35.024 65.4172 35.5382C65.6925 35.4299 65.9662 35.165 67.1163 34.8098C67.6955 34.4176 71.8856 34.0233 72.4243 33.8507C73.7913 29.2081 71.5882 27.3306 67.7192 26.4959Z" fill="#2F2E41"/>
<path d="M69.134 33.655C71.3454 33.655 73.1381 31.8656 73.1381 29.6584C73.1381 27.4512 71.3454 25.6619 69.134 25.6619C66.9226 25.6619 65.1299 27.4512 65.1299 29.6584C65.1299 31.8656 66.9226 33.655 69.134 33.655Z" fill="#A0616A"/>
<path d="M71.6545 26.1436C71.4288 26.1104 71.2116 26.0344 71.0146 25.9197C70.9169 25.8608 70.8378 25.7757 70.7863 25.6741C70.7347 25.5725 70.7129 25.4584 70.7232 25.345C70.7725 25.061 71.0942 24.8915 71.3824 24.9088C71.6694 24.95 71.942 25.0602 72.177 25.2297C72.1512 24.9553 72.0337 24.6975 71.8435 24.4977C71.6532 24.2979 71.4012 24.1678 71.1279 24.1281C71.507 24.1077 71.9011 24.0898 72.2516 24.2353C72.6021 24.3808 72.8943 24.7411 72.831 25.1148C73.4204 25.039 74.0015 25.4488 74.2448 25.9899C74.4881 26.531 74.4399 27.1664 74.2455 27.7269C74.2263 27.8127 74.1889 27.8934 74.1358 27.9635C74.0826 28.0336 74.015 28.0915 73.9374 28.1333C73.7391 28.2084 73.5257 28.0824 73.3538 27.9583C72.4561 27.3095 71.6391 26.5563 70.9199 25.7146" fill="#2F2E41"/>
<path d="M73.4002 33.9074C73.2304 33.9871 73.3188 34.2839 73.1869 34.4168C73.1296 34.4731 73.0606 34.5159 72.9847 34.5423C72.9649 34.2946 72.9071 34.0514 72.8133 33.8212C72.7961 33.7794 72.7677 33.7326 72.7234 33.7363C72.6716 33.7425 72.658 33.8102 72.6568 33.8606C72.6463 34.1109 72.5908 34.3572 72.4928 34.5878C72.4916 34.5903 72.4903 34.594 72.4891 34.5964C72.4509 34.5952 72.4115 34.594 72.3745 34.5927C72.0885 34.5817 71.4548 33.8483 71.3143 34.0969C71.8099 33.2196 72.4139 31.9005 72.5064 30.8977C72.5384 30.6877 72.5228 30.4733 72.4608 30.2701C72.4284 30.1691 72.3676 30.0794 72.2856 30.0118C72.2037 29.9442 72.104 29.9015 71.9985 29.8887C71.9464 29.8863 71.8945 29.8955 71.8464 29.9155C71.7982 29.9355 71.7552 29.9659 71.7202 30.0044C71.6852 30.043 71.6592 30.0888 71.644 30.1385C71.6288 30.1883 71.6248 30.2408 71.6323 30.2923L71.5608 30.2825C70.8976 29.7435 71.4696 28.8071 70.6979 28.4368C70.4366 28.3113 68.8364 28.7308 68.5541 28.657C68.548 28.3602 68.4875 28.067 68.3753 27.792C68.3581 27.7502 68.3297 27.7034 68.2853 27.7071C68.2336 27.7133 68.22 27.7809 68.2188 27.8314C68.2083 28.0816 68.1528 28.328 68.0548 28.5586C67.6637 28.5032 67.2656 28.5241 66.8824 28.6201C66.5447 28.7087 66.2241 28.8613 65.8851 28.9425C65.7175 28.9937 65.5412 29.0104 65.367 28.9913C65.1928 28.9723 65.0243 28.918 64.8718 28.8317C64.4415 28.5438 64.3663 27.9064 64.5808 27.4364C64.7361 27.1348 64.9459 26.8645 65.1997 26.6391C65.3932 26.452 65.5942 26.2724 65.7951 26.0927C65.9751 25.9315 66.1551 25.7704 66.3351 25.6092C66.5617 25.3963 66.8031 25.1998 67.0575 25.021C67.4637 24.7552 67.92 24.5751 68.3985 24.4918C68.877 24.4084 69.3675 24.4235 69.8399 24.5362C70.407 24.6715 71.1651 24.4808 71.6841 24.7454C71.9553 24.8844 72.5557 25.4172 72.7936 25.6067C73.4026 26.0903 72.9905 25.6962 73.6566 25.9758C75.2448 26.6425 74.5425 33.3706 73.4002 33.9074Z" fill="#2F2E41"/>
<path d="M29.0662 63.0777C42.7804 63.0777 53.898 51.9811 53.898 38.2927C53.898 24.6043 42.7804 13.5077 29.0662 13.5077C15.352 13.5077 4.23438 24.6043 4.23438 38.2927C4.23438 51.9811 15.352 63.0777 29.0662 63.0777Z" fill="white"/>
<path d="M29.066 63.3251C15.237 63.3251 3.98633 52.0955 3.98633 38.2927C3.98633 24.4898 15.237 13.2603 29.066 13.2603C42.8949 13.2603 54.1457 24.4898 54.1457 38.2927C54.1457 52.0955 42.895 63.3251 29.066 63.3251ZM29.066 13.7551C15.5104 13.7551 4.48206 24.7626 4.48206 38.2927C4.48206 51.8227 15.5104 62.8303 29.066 62.8303C42.6216 62.8303 53.6499 51.8227 53.6499 38.2927C53.6499 24.7626 42.6216 13.7551 29.066 13.7551Z" fill="#2A3042"/>
<path d="M25.678 51.1921C25.2492 51.1921 24.8263 51.0925 24.4428 50.901C24.0592 50.7096 23.7257 50.4316 23.4685 50.0891L16.694 41.0733C16.4763 40.7837 16.318 40.4541 16.228 40.1034C16.138 39.7527 16.1181 39.3877 16.1694 39.0293C16.2207 38.6709 16.3422 38.3261 16.527 38.0145C16.7119 37.703 16.9563 37.4309 17.2465 37.2137C17.5367 36.9964 17.8669 36.8384 18.2183 36.7486C18.5697 36.6587 18.9354 36.6388 19.2945 36.69C19.6535 36.7413 19.999 36.8626 20.3111 37.047C20.6232 37.2315 20.8959 37.4755 21.1135 37.7652L25.5456 43.6631L36.9289 26.6205C37.3355 26.0126 37.9673 25.5907 38.6854 25.4476C39.4035 25.3045 40.1492 25.4518 40.7585 25.8573C41.3678 26.2627 41.7909 26.8931 41.9347 27.6097C42.0786 28.3264 41.9314 29.0708 41.5256 29.6792L27.9766 49.9644C27.7315 50.3312 27.4018 50.6341 27.0153 50.8476C26.6287 51.061 26.1965 51.1789 25.7549 51.1912C25.7293 51.1917 25.7036 51.1921 25.678 51.1921Z" fill="#2A3042"/>
<path d="M54.6502 15.0562C54.7192 14.5824 54.222 14.1179 53.5395 14.0188C52.8571 13.9197 52.2479 14.2235 52.1788 14.6973C52.1097 15.1712 52.6069 15.6357 53.2894 15.7348C53.9719 15.8339 54.5811 15.5301 54.6502 15.0562Z" fill="#E6E6E6"/>
<path d="M62.7752 14.2649C62.8442 13.7911 62.347 13.3266 61.6645 13.2275C60.9821 13.1284 60.3729 13.4322 60.3038 13.906C60.2347 14.3799 60.7319 14.8443 61.4144 14.9435C62.0969 15.0426 62.7061 14.7388 62.7752 14.2649Z" fill="#3F3D56"/>
<path d="M52.4246 8.49056C52.4937 8.0167 51.9964 7.55223 51.314 7.45312C50.6315 7.35402 50.0223 7.6578 49.9532 8.13166C49.8841 8.60551 50.3814 9.07 51.0638 9.1691C51.7463 9.26821 52.3555 8.96441 52.4246 8.49056Z" fill="#FF6584"/>
<path d="M48.8949 5.80112C48.8982 5.3661 48.6551 5.0116 48.3519 5.00931C48.0487 5.00702 47.8003 5.35782 47.797 5.79283C47.7937 6.22785 48.0368 6.58236 48.34 6.58465C48.6432 6.58694 48.8916 6.23614 48.8949 5.80112Z" fill="#E6E6E6"/>
<path d="M47.6967 0.791828C47.7 0.35681 47.4569 0.00230187 47.1537 1.35125e-05C46.8505 -0.00227484 46.602 0.348523 46.5987 0.783541C46.5954 1.21856 46.8386 1.57307 47.1417 1.57536C47.4449 1.57764 47.6934 1.22685 47.6967 0.791828Z" fill="#3F3D56"/>
<path d="M57.0083 9.60786C57.0115 9.17284 56.7684 8.81833 56.4652 8.81604C56.162 8.81376 55.9136 9.16455 55.9103 9.59957C55.907 10.0346 56.1501 10.3891 56.4533 10.3914C56.7565 10.3937 57.005 10.0429 57.0083 9.60786Z" fill="#E6E6E6"/>
<path d="M53.0814 11.5646C53.0847 11.1296 52.8416 10.7751 52.5384 10.7728C52.2353 10.7705 51.9868 11.1213 51.9835 11.5563C51.9802 11.9914 52.2233 12.3458 52.5265 12.3481C52.8297 12.3504 53.0782 11.9996 53.0814 11.5646Z" fill="#FF6584"/>
<path d="M58.5473 15.1813C58.5506 14.7462 58.3075 14.3917 58.0043 14.3894C57.7011 14.3872 57.4526 14.738 57.4493 15.173C57.446 15.608 57.6891 15.9625 57.9923 15.9648C58.2955 15.9671 58.544 15.6163 58.5473 15.1813Z" fill="#3F3D56"/>
<path d="M8.05056 73.7727C8.11963 73.2989 7.62238 72.8344 6.93993 72.7353C6.25748 72.6362 5.64825 72.94 5.57917 73.4138C5.5101 73.8877 6.00734 74.3521 6.68979 74.4512C7.37224 74.5503 7.98148 74.2466 8.05056 73.7727Z" fill="#E6E6E6"/>
<path d="M16.1765 72.9813C16.2456 72.5074 15.7484 72.043 15.0659 71.9438C14.3835 71.8447 13.7742 72.1485 13.7051 72.6224C13.6361 73.0963 14.1333 73.5608 14.8158 73.6599C15.4982 73.759 16.1074 73.4552 16.1765 72.9813Z" fill="#3F3D56"/>
<path d="M5.82595 67.207C5.89502 66.7331 5.39778 66.2686 4.71533 66.1695C4.03287 66.0704 3.42364 66.3742 3.35456 66.8481C3.28549 67.3219 3.78273 67.7864 4.46519 67.8855C5.14764 67.9846 5.75687 67.6808 5.82595 67.207Z" fill="#FF6584"/>
<path d="M2.29533 64.5176C2.29863 64.0825 2.05552 63.728 1.75232 63.7257C1.44913 63.7235 1.20067 64.0743 1.19737 64.5093C1.19408 64.9443 1.4372 65.2988 1.74039 65.3011C2.04358 65.3034 2.29204 64.9526 2.29533 64.5176Z" fill="#E6E6E6"/>
<path d="M1.09806 59.5082C1.10136 59.0732 0.858246 58.7187 0.555053 58.7164C0.251861 58.7142 0.00340379 59.0649 0.000108068 59.5C-0.00318765 59.935 0.239926 60.2895 0.543118 60.2918C0.846311 60.294 1.09477 59.9433 1.09806 59.5082Z" fill="#3F3D56"/>
<path d="M10.4086 68.3243C10.4119 67.8893 10.1688 67.5347 9.86559 67.5325C9.5624 67.5302 9.31395 67.881 9.31065 68.316C9.30736 68.751 9.55047 69.1055 9.85366 69.1078C10.1569 69.1101 10.4053 68.7593 10.4086 68.3243Z" fill="#E6E6E6"/>
<path d="M6.48187 70.281C6.48516 69.846 6.24204 69.4915 5.93885 69.4892C5.63566 69.4869 5.38719 69.8377 5.3839 70.2728C5.3806 70.7078 5.62372 71.0623 5.92691 71.0646C6.23011 71.0669 6.47857 70.7161 6.48187 70.281Z" fill="#FF6584"/>
<path d="M11.9477 73.8977C11.951 73.4627 11.7078 73.1081 11.4047 73.1059C11.1015 73.1036 10.853 73.4544 10.8497 73.8894C10.8464 74.3244 11.0895 74.6789 11.3927 74.6812C11.6959 74.6835 11.9444 74.3327 11.9477 73.8977Z" fill="#3F3D56"/>
</g>
<defs>
<clipPath id="clip0_47_2539">
<rect width="95" height="113" fill="white"/>
</clipPath>
</defs>
</svg>
