<svg width="27" height="27" viewBox="0 0 27 27" fill="none" xmlns="http://www.w3.org/2000/svg">
<path d="M13.5004 6.43359C18.1458 6.43359 21.9115 10.1994 21.9115 14.8447V20.9883C21.9115 21.2121 21.8226 21.4267 21.6644 21.5849C21.5062 21.7431 21.2915 21.832 21.0678 21.832H5.933C5.70923 21.832 5.49462 21.7431 5.33638 21.5849C5.17815 21.4267 5.08925 21.2121 5.08925 20.9883V14.8447C5.08925 10.1994 8.85501 6.43359 13.5004 6.43359ZM12.7621 1.79297H14.2387C14.2946 1.79297 14.3483 1.81519 14.3878 1.85475C14.4274 1.89431 14.4496 1.94796 14.4496 2.00391V4.53516C14.4496 4.5911 14.4274 4.64475 14.3878 4.68431C14.3483 4.72387 14.2946 4.74609 14.2387 4.74609H12.7621C12.7062 4.74609 12.6525 4.72387 12.6129 4.68431C12.5734 4.64475 12.5512 4.5911 12.5512 4.53516V2.00391C12.5512 1.94796 12.5734 1.89431 12.6129 1.85475C12.6525 1.81519 12.7062 1.79297 12.7621 1.79297ZM4.67397 5.05354C4.69356 5.03392 4.71682 5.01836 4.74243 5.00775C4.76804 4.99713 4.79549 4.99167 4.82321 4.99167C4.85093 4.99167 4.87838 4.99713 4.90398 5.00775C4.92959 5.01836 4.95286 5.03392 4.97245 5.05354L6.76225 6.84334C6.80178 6.88289 6.82398 6.93653 6.82398 6.99245C6.82398 7.04837 6.80178 7.102 6.76225 7.14155L5.71811 8.18569C5.67856 8.22522 5.62492 8.24743 5.569 8.24743C5.51308 8.24743 5.45945 8.22522 5.4199 8.18569L3.63009 6.39589C3.59056 6.35633 3.56836 6.3027 3.56836 6.24678C3.56836 6.19086 3.59056 6.13723 3.63009 6.09768L4.67423 5.05354H4.67397ZM22.3294 5.05354L23.3736 6.09768C23.413 6.13722 23.4352 6.19079 23.4352 6.24665C23.4352 6.30251 23.413 6.35608 23.3736 6.39562L21.5838 8.18596C21.5642 8.20557 21.5409 8.22113 21.5153 8.23174C21.4897 8.24236 21.4623 8.24782 21.4345 8.24782C21.4068 8.24782 21.3794 8.24236 21.3538 8.23174C21.3282 8.22113 21.3049 8.20557 21.2853 8.18596L20.2412 7.14182C20.2215 7.12223 20.206 7.09896 20.1954 7.07335C20.1848 7.04775 20.1793 7.0203 20.1793 6.99258C20.1793 6.96486 20.1848 6.93741 20.1954 6.9118C20.206 6.88619 20.2215 6.86293 20.2412 6.84334L22.0312 5.05354C22.0708 5.01401 22.1244 4.9918 22.1803 4.9918C22.2363 4.9918 22.2899 5.01401 22.3294 5.05354V5.05354ZM5.06289 23.5195H21.9379C22.1617 23.5195 22.3763 23.6084 22.5345 23.7667C22.6927 23.9249 22.7816 24.1395 22.7816 24.3633V24.9961C22.7816 25.052 22.7594 25.1057 22.7199 25.1452C22.6803 25.1848 22.6266 25.207 22.5707 25.207H4.43007C4.37413 25.207 4.32048 25.1848 4.28092 25.1452C4.24136 25.1057 4.21914 25.052 4.21914 24.9961V24.3633C4.21914 24.1395 4.30803 23.9249 4.46626 23.7667C4.6245 23.6084 4.83911 23.5195 5.06289 23.5195ZM8.96523 15.1611V21.832H10.6527V15.1611H8.96523Z" fill="#556EE6"/>
</svg>
