<svg width="40" height="40" viewBox="0 0 40 40" fill="none" xmlns="http://www.w3.org/2000/svg">
<path d="M38.443 12.25C37.4393 9.85952 35.9791 7.68671 34.1438 5.85271C32.314 4.01552 30.1404 2.55484 27.7464 1.55361C25.2939 0.522949 22.659 -0.00536763 19.9979 4.1113e-05H19.9084C17.2018 0.013434 14.5847 0.549148 12.1197 1.60272C9.74625 2.61421 7.59305 4.07748 5.78044 5.91075C3.9629 7.74063 2.51942 9.90584 1.53041 12.2857C0.503757 14.7606 -0.0164513 17.4153 0.000396512 20.0938C0.0138177 23.192 0.756454 26.2679 2.14331 29.0179V35.8036C2.14331 36.9375 3.06489 37.8571 4.19674 37.8571H10.9878C13.7565 39.2513 16.8118 39.9848 19.9129 40H20.0069C22.6821 40 25.2724 39.4821 27.7151 38.4688C30.0969 37.4795 32.2624 36.0358 34.0901 34.2188C35.9333 32.3929 37.3828 30.2589 38.3983 27.8795C39.4496 25.4152 39.9865 22.7947 39.9999 20.0893C40.0088 17.3706 39.4809 14.7322 38.443 12.25ZM11.0684 22.1429C9.88731 22.1429 8.92546 21.1831 8.92546 20C8.92546 18.817 9.88731 17.8572 11.0684 17.8572C12.2494 17.8572 13.2113 18.817 13.2113 20C13.2113 21.1831 12.2539 22.1429 11.0684 22.1429ZM19.9979 22.1429C18.8168 22.1429 17.855 21.1831 17.855 20C17.855 18.817 18.8168 17.8572 19.9979 17.8572C21.179 17.8572 22.1408 18.817 22.1408 20C22.1408 21.1831 21.179 22.1429 19.9979 22.1429ZM28.9274 22.1429C27.7464 22.1429 26.7845 21.1831 26.7845 20C26.7845 18.817 27.7464 17.8572 28.9274 17.8572C30.1085 17.8572 31.0704 18.817 31.0704 20C31.0704 21.1831 30.1085 22.1429 28.9274 22.1429Z" fill="#556EE6"/>
</svg>
