<svg width="27" height="27" viewBox="0 0 27 27" fill="none" xmlns="http://www.w3.org/2000/svg">
<path d="M17.7188 24.8181L13.5 20.5985L14.6922 19.4062L17.7188 22.4319L24.1186 16.0312L25.3125 17.2252L17.7188 24.8181Z" fill="#34C38F"/>
<path d="M16.875 11.8125V10.125H12.6562V8.4375H15.1875V6.75H12.6562V5.0625H10.9688V6.75H8.4375V8.4375H10.9688V10.125H6.75V11.8125H10.9688V13.5H6.75V15.1875H10.9688V16.875H8.4375V18.5625H12.6562V15.1875H15.1875V13.5H12.6562V11.8125H16.875Z" fill="#34C38F"/>
<path d="M10.9688 20.25H3.375V3.375H20.25V13.5H21.9375V3.375C21.9375 2.92745 21.7597 2.49822 21.4432 2.18176C21.1268 1.86529 20.6976 1.6875 20.25 1.6875H3.375C2.92745 1.6875 2.49822 1.86529 2.18176 2.18176C1.86529 2.49822 1.6875 2.92745 1.6875 3.375V20.25C1.6875 20.6976 1.86529 21.1268 2.18176 21.4432C2.49822 21.7597 2.92745 21.9375 3.375 21.9375H10.9688V20.25Z" fill="#34C38F"/>
</svg>
