<svg width="11" height="16" viewBox="0 0 11 16" fill="none" xmlns="http://www.w3.org/2000/svg">
<path d="M10.7233 3.96522C10.7002 3.89565 10.6599 3.78551 10.6022 3.63478C10.5445 3.48406 10.5042 3.38551 10.4811 3.33913C9.99685 2.2029 9.28774 1.36232 8.35377 0.817391C7.41981 0.272464 6.44549 0 5.43082 0C4.11635 0 2.92872 0.434783 1.86792 1.30435C0.807128 2.17391 0.184486 3.3971 0 4.97391V5.63478L0.0345912 5.8087V6.05217C0.0807128 6.42319 0.201782 6.84638 0.397799 7.32174C0.593816 7.7971 0.772537 8.17971 0.933962 8.46956C1.09539 8.75942 1.35482 9.2 1.71226 9.7913C2.06971 10.3826 2.30608 10.771 2.42138 10.9565C3.09015 12.0928 4.11635 13.7739 5.5 16C5.68449 15.6986 6.31866 14.6087 7.40252 12.7304C7.44864 12.6609 7.53512 12.5217 7.66195 12.313C7.78878 12.1043 7.87526 11.942 7.92138 11.8261C7.9675 11.7565 8.04245 11.658 8.14623 11.5304C8.25 11.4029 8.32495 11.3043 8.37107 11.2348C8.53249 10.9333 8.88417 10.3594 9.4261 9.51304C9.96803 8.66667 10.3658 7.95362 10.6195 7.37391C10.8732 6.7942 11 6.22609 11 5.66956V4.90435C11 4.64928 10.9078 4.33623 10.7233 3.96522ZM5.46541 7.4087C4.56604 7.4087 3.9434 6.96812 3.59748 6.08696C3.57442 5.97101 3.56289 5.7971 3.56289 5.56522V5.11304C3.56289 4.53333 3.75891 4.08696 4.15094 3.77391C4.54298 3.46087 5.00419 3.30435 5.53459 3.30435C6.11111 3.30435 6.58962 3.50145 6.97013 3.89565C7.35063 4.28986 7.54088 4.77681 7.54088 5.35652C7.54088 5.93623 7.3391 6.42319 6.93553 6.81739C6.53197 7.21159 6.04193 7.4087 5.46541 7.4087Z" fill="#495057"/>
</svg>
