<svg width="284" height="264" viewBox="0 0 284 264" fill="none" xmlns="http://www.w3.org/2000/svg">
<path d="M283.465 238.452H0V264H283.465V238.452Z" fill="#E6E6E6"/>
<path d="M208.429 98.6441V174.508H10.6431V98.6441C10.6428 73.4677 20.2932 49.2439 37.6176 30.9346C54.9419 12.6254 78.6289 1.61641 103.827 0.162723C105.715 0.0529115 107.618 -0.00132125 109.536 2.44366e-05C110.629 2.44366e-05 111.718 0.0162852 112.799 0.0569659C137.891 0.849007 161.734 11.1629 179.463 28.8936C179.997 29.4264 180.523 29.9634 181.049 30.5085C198.628 48.8579 208.436 73.2633 208.429 98.6441Z" fill="#E6E6E6"/>
<path d="M112.799 0.0569839V174.508H103.827V0.162723C105.715 0.0529115 107.618 -0.00132125 109.536 2.44366e-05C110.629 2.44366e-05 111.718 0.0162875 112.799 0.0569839Z" fill="white"/>
<path d="M188.655 39.4577H30.4176C32.7731 36.3272 35.3128 33.3389 38.0232 30.5085H181.049C183.759 33.3389 186.299 36.3272 188.655 39.4577Z" fill="white"/>
<path d="M193.377 65.0848H123.279V183.458H193.377V65.0848Z" fill="white"/>
<path d="M147.724 85.0828H137.121V95.6593H147.724V85.0828Z" fill="#E6E6E6"/>
<path d="M164.807 85.0828H154.204V95.6593H164.807V85.0828Z" fill="#E6E6E6"/>
<path d="M181.89 85.0828H171.287V95.6593H181.89V85.0828Z" fill="#E6E6E6"/>
<path d="M148.019 109.174H137.415V119.75H148.019V109.174Z" fill="#E6E6E6"/>
<path d="M165.102 109.174H154.498V119.75H165.102V109.174Z" fill="#E6E6E6"/>
<path d="M182.185 109.174H171.581V119.75H182.185V109.174Z" fill="#E6E6E6"/>
<path d="M148.313 133.265H137.71V143.841H148.313V133.265Z" fill="#E6E6E6"/>
<path d="M165.396 133.265H154.793V143.841H165.396V133.265Z" fill="#E6E6E6"/>
<path d="M182.479 133.265H171.876V143.841H182.479V133.265Z" fill="#E6E6E6"/>
<path d="M148.608 157.356H138.005V167.932H148.608V157.356Z" fill="#E6E6E6"/>
<path d="M165.691 157.356H155.087V167.932H165.691V157.356Z" fill="#E6E6E6"/>
<path d="M182.774 157.356H172.17V167.932H182.774V157.356Z" fill="#E6E6E6"/>
<path d="M148.608 157.356H138.005V167.932H148.608V157.356Z" fill="#E6E6E6"/>
<path d="M165.691 157.356H155.087V167.932H165.691V157.356Z" fill="#E6E6E6"/>
<path d="M182.774 157.356H172.17V167.932H182.774V157.356Z" fill="#E6E6E6"/>
<path d="M34.1536 150.439C42.2246 150.439 48.7675 143.913 48.7675 135.862C48.7675 127.812 42.2246 121.285 34.1536 121.285C26.0826 121.285 19.5398 127.812 19.5398 135.862C19.5398 143.913 26.0826 150.439 34.1536 150.439Z" fill="white"/>
<path d="M34.1938 135.862H34.2339L34.9567 177.191H33.4312L34.1938 135.862Z" fill="white"/>
<path d="M36.8547 158.374L36.518 157.736L34.1023 159.004L34.439 159.642L36.8547 158.374Z" fill="white"/>
<path d="M77.118 136.511C89.3914 136.511 99.3409 126.586 99.3409 114.344C99.3409 102.101 89.3914 92.1765 77.118 92.1765C64.8446 92.1765 54.8951 102.101 54.8951 114.344C54.8951 126.586 64.8446 136.511 77.118 136.511Z" fill="white"/>
<path d="M77.1791 114.344H77.2401L78.3389 177.191H76.0192L77.1791 114.344Z" fill="white"/>
<path d="M81.2255 148.576L80.7135 147.606L77.04 149.535L77.5519 150.505L81.2255 148.576Z" fill="white"/>
<path d="M31.2823 93.1768L35.0364 90.1817C32.12 89.8608 30.9217 91.4473 30.4313 92.7031C28.1528 91.7594 25.6725 92.9962 25.6725 92.9962L33.1838 95.7162C32.8049 94.7066 32.1453 93.8257 31.2823 93.1768Z" fill="white"/>
<path d="M70.8395 68.77L74.5936 65.7749C71.6772 65.454 70.4789 67.0405 69.9885 68.2963C67.7101 67.3526 65.2297 68.5894 65.2297 68.5894L72.741 71.3094C72.3621 70.2998 71.7025 69.4189 70.8395 68.77Z" fill="white"/>
<path d="M55.7507 91.9564L59.5048 88.9614C56.5884 88.6404 55.3901 90.227 54.8996 91.4828C52.6212 90.5391 50.1409 91.7758 50.1409 91.7758L57.6522 94.4959C57.2733 93.4863 56.6136 92.6054 55.7507 91.9564Z" fill="white"/>
<path d="M218.828 165.559H0.244043V183.458H218.828V165.559Z" fill="#E6E6E6"/>
<path d="M263.432 212.15C263.432 212.15 219.217 191.847 234.75 177.767C250.282 163.688 263.432 212.15 263.432 212.15Z" fill="#E6E6E6"/>
<path d="M262.662 216.887C262.662 216.887 242.34 150.281 272.266 153.467C302.192 156.652 262.662 216.887 262.662 216.887Z" fill="#E6E6E6"/>
<path d="M247.845 210.98L248.698 222.122L248.711 222.314C248.71 224.054 248.799 225.793 248.975 227.524C250.133 238.889 255.109 244.068 260.924 244.068C266.739 244.068 271.498 238.889 272.655 227.524C272.832 225.793 272.92 224.054 272.919 222.314L272.926 222.159L272.93 222.122L273.786 210.98H247.845Z" fill="#E6E6E6"/>
<path d="M272.93 222.122L272.926 222.159L272.919 222.314C272.92 224.054 272.832 225.793 272.655 227.524H248.975C248.799 225.793 248.71 224.054 248.711 222.314L248.698 222.122H272.93Z" fill="white"/>
<path d="M204.726 252.485L201.827 252.825C199.537 254.202 196.85 254.72 193.873 254.615C193.458 254.602 193.053 254.482 192.699 254.265C192.344 254.048 192.053 253.743 191.853 253.379C191.68 253.06 191.582 252.706 191.569 252.343C191.556 251.981 191.626 251.62 191.776 251.289C191.925 250.958 192.149 250.666 192.429 250.436C192.71 250.205 193.041 250.042 193.395 249.96L195.598 249.448L200.913 244.263L204.119 238.475L208.776 239.008L209.746 246.36C209.869 247.831 209.414 249.292 208.477 250.435C207.541 251.578 206.196 252.313 204.726 252.485Z" fill="#FFB8B8"/>
<path d="M159.579 248.765L156.737 249.432C154.62 251.061 152.009 251.881 149.04 252.114C148.626 252.149 148.21 252.076 147.833 251.901C147.456 251.726 147.132 251.456 146.892 251.117C146.683 250.82 146.546 250.479 146.491 250.12C146.437 249.761 146.466 249.395 146.576 249.049C146.686 248.703 146.875 248.388 147.128 248.127C147.381 247.866 147.691 247.667 148.033 247.544L150.163 246.786L154.851 241.03L157.375 234.915H162.063L163.866 242.109C164.157 243.557 163.872 245.06 163.072 246.302C162.272 247.544 161.019 248.427 159.579 248.765Z" fill="#FFB8B8"/>
<path d="M157.249 235.322L162.551 236.136L170.911 194.034L185.388 169.424L202.924 241.017L209.449 242.237C208.717 201.92 212.288 151.163 204.147 145.017L168.668 149.085L153.171 190.576L157.249 235.322Z" fill="#2F2E41"/>
<path d="M182.941 82.3729C189.698 82.3729 195.175 76.9093 195.175 70.1695C195.175 63.4298 189.698 57.9661 182.941 57.9661C176.184 57.9661 170.707 63.4298 170.707 70.1695C170.707 76.9093 176.184 82.3729 182.941 82.3729Z" fill="#FFB8B8"/>
<path d="M200.069 88.8814L185.388 91.3221L181.718 78.305L192.321 75.051L200.069 88.8814Z" fill="#FFB8B8"/>
<path d="M206.186 146.644L167.037 150.305C170.175 139.419 173.051 128.571 170.707 117.763C167.731 108.113 170.603 102.375 178.455 97.8305L183.757 86.0339L198.03 84.4068C201.81 90.4688 203.356 97.6543 202.403 104.73C200.369 120.115 200.919 134.392 206.186 146.644Z" fill="#2A3042"/>
<path d="M182.666 55.7566C178.583 56.6871 173.936 58.0055 173.675 59.231C169.475 60.2867 166.305 62.8155 165.657 66.6707C165.603 67.0039 165.623 67.3449 165.715 67.6696C165.808 67.9944 165.97 68.295 166.192 68.5502C166.413 68.8055 166.688 69.0093 166.997 69.1472C167.306 69.285 167.641 69.3537 167.979 69.3483C170.264 69.3189 173.693 69.1007 175.957 68.1574C182.534 72.3848 183.638 83.3799 180.766 90.8641L185.286 90.4508L189.962 76.7957L191.157 89.9141L201.472 88.5537L200.143 71.8254C199.735 67.8826 198.39 64.0939 196.219 60.7737C195.994 60.4402 195.747 60.1216 195.481 59.8196C193.912 58.0512 191.892 56.7397 189.635 56.0244C187.379 55.309 184.971 55.2165 182.666 55.7566Z" fill="#2F2E41"/>
<path d="M148.436 255.603C148.405 255.884 148.433 256.169 148.519 256.439C148.604 256.708 148.745 256.957 148.932 257.169C149.119 257.381 149.349 257.551 149.606 257.668C149.863 257.786 150.142 257.848 150.424 257.851L156.876 257.917C157.224 257.893 157.549 257.737 157.787 257.482C158.025 257.227 158.157 256.891 158.157 256.542C158.157 256.267 158.074 255.998 157.92 255.77C157.766 255.541 157.547 255.365 157.292 255.263L155.388 254.5L152.619 250.618H150.404C149.317 252.07 148.638 253.788 148.438 255.592L148.436 255.603H148.436Z" fill="#FFB8B8"/>
<path d="M148.436 255.603C148.405 255.884 148.433 256.169 148.519 256.439C148.604 256.708 148.745 256.957 148.932 257.169C149.119 257.381 149.349 257.551 149.606 257.668C149.863 257.786 150.142 257.848 150.424 257.851L156.876 257.917C157.224 257.893 157.549 257.737 157.787 257.482C158.025 257.227 158.157 256.891 158.157 256.542C158.157 256.267 158.074 255.998 157.92 255.77C157.766 255.541 157.547 255.365 157.292 255.263L155.388 254.5L152.619 250.618H150.404C149.317 252.07 148.638 253.788 148.438 255.592L148.436 255.603H148.436Z" fill="#FFB8B8"/>
<path d="M131.379 255.603C131.411 255.884 131.383 256.169 131.297 256.439C131.212 256.708 131.071 256.957 130.884 257.169C130.696 257.381 130.467 257.551 130.21 257.668C129.953 257.786 129.674 257.848 129.392 257.851L122.939 257.917C122.592 257.893 122.266 257.737 122.029 257.482C121.791 257.227 121.659 256.891 121.659 256.542C121.659 256.267 121.741 255.998 121.896 255.77C122.05 255.541 122.269 255.365 122.524 255.263L124.428 254.5L127.196 250.618H129.411C130.499 252.07 131.178 253.788 131.378 255.592L131.379 255.603Z" fill="#FFB8B8"/>
<path d="M131.379 255.603C131.411 255.884 131.383 256.169 131.297 256.439C131.212 256.708 131.071 256.957 130.884 257.169C130.696 257.381 130.467 257.551 130.21 257.668C129.953 257.786 129.674 257.848 129.392 257.851L122.939 257.917C122.592 257.893 122.266 257.737 122.029 257.482C121.791 257.227 121.659 256.891 121.659 256.542C121.659 256.267 121.741 255.998 121.896 255.77C122.05 255.541 122.269 255.365 122.524 255.263L124.428 254.5L127.196 250.618H129.411C130.499 252.07 131.178 253.788 131.378 255.592L131.379 255.603Z" fill="#FFB8B8"/>
<path d="M126.525 251.251H130.008L142.196 198.222L148.58 251.834H152.643L158.157 182.78L130.008 182.488L126.525 251.251Z" fill="#3F3D56"/>
<path d="M126.525 251.251H130.008L142.196 198.222L148.58 251.834H152.643L158.157 182.78L130.008 182.488L126.525 251.251Z" fill="#3F3D56"/>
<path d="M110.71 154.507H115.404V143.77L116.472 141.714C116.686 141.301 116.796 140.845 116.793 140.384C116.789 139.922 116.673 139.468 116.453 139.058C116.233 138.648 115.915 138.294 115.526 138.025C115.137 137.756 114.687 137.579 114.214 137.509C113.78 137.445 113.337 137.471 112.916 137.587C112.494 137.703 112.104 137.906 111.771 138.181C111.438 138.456 111.171 138.797 110.988 139.18C110.805 139.564 110.71 139.981 110.71 140.404V154.507Z" fill="#FFB8B8"/>
<path d="M110.71 154.507H115.404V143.77L116.472 141.714C116.686 141.301 116.796 140.845 116.793 140.384C116.789 139.922 116.673 139.468 116.453 139.058C116.233 138.648 115.915 138.294 115.526 138.025C115.137 137.756 114.687 137.579 114.214 137.509C113.78 137.445 113.337 137.471 112.916 137.587C112.494 137.703 112.104 137.906 111.771 138.181C111.438 138.456 111.171 138.797 110.988 139.18C110.805 139.564 110.71 139.981 110.71 140.404V154.507Z" fill="#FFB8B8"/>
<path d="M138.691 127.742C144.738 127.742 149.641 122.84 149.641 116.793C149.641 110.746 144.738 105.843 138.691 105.843C132.644 105.843 127.742 110.746 127.742 116.793C127.742 122.84 132.644 127.742 138.691 127.742Z" fill="#FFB8B8"/>
<path d="M138.691 127.742C144.738 127.742 149.641 122.84 149.641 116.793C149.641 110.746 144.738 105.843 138.691 105.843C132.644 105.843 127.742 110.746 127.742 116.793C127.742 122.84 132.644 127.742 138.691 127.742Z" fill="#FFB8B8"/>
<path d="M133.825 135.042H144.774V122.876H133.825V135.042Z" fill="#FFB8B8"/>
<path d="M133.825 135.042H144.774V122.876H133.825V135.042Z" fill="#FFB8B8"/>
<path d="M129.357 184.289C138.882 190.193 148.952 189.615 159.373 184.858L157.108 131.961L145.215 131.392L132.755 133.098L126.525 138.217L129.357 184.289Z" fill="#2A3042"/>
<path d="M129.357 184.289C138.882 190.193 148.952 189.615 159.373 184.858L157.108 131.961L145.215 131.392L132.755 133.098L126.525 138.217L129.357 184.289Z" fill="#2A3042"/>
<path d="M117.536 165.456L130.175 155.546L126.154 137.475L118.685 151.465L116.387 149.134L109.493 154.38L117.536 165.456Z" fill="#2A3042"/>
<path d="M117.536 165.456L130.175 155.546L126.154 137.475L118.685 151.465L116.387 149.134L109.493 154.38L117.536 165.456Z" fill="#2A3042"/>
<path d="M173.972 132.714L170.07 135.041L164.934 125.067L163.062 123.686C162.687 123.409 162.377 123.04 162.159 122.61C161.941 122.18 161.821 121.7 161.808 121.21C161.795 120.72 161.889 120.234 162.084 119.791C162.278 119.348 162.568 118.96 162.928 118.66C163.257 118.386 163.638 118.191 164.044 118.09C164.45 117.988 164.872 117.983 165.28 118.073C165.688 118.164 166.073 118.348 166.409 118.614C166.745 118.879 167.023 119.22 167.225 119.612L168.836 122.74L173.972 132.714Z" fill="#FFB8B8"/>
<path d="M173.972 132.714L170.07 135.041L164.934 125.067L163.062 123.686C162.687 123.409 162.377 123.04 162.159 122.61C161.941 122.18 161.821 121.7 161.808 121.21C161.795 120.72 161.889 120.234 162.084 119.791C162.278 119.348 162.568 118.96 162.928 118.66C163.257 118.386 163.638 118.191 164.044 118.09C164.45 117.988 164.872 117.983 165.28 118.073C165.688 118.164 166.073 118.348 166.409 118.614C166.745 118.879 167.023 119.22 167.225 119.612L168.836 122.74L173.972 132.714Z" fill="#FFB8B8"/>
<path d="M150.857 148.424L166.818 140.354L175.203 136.115L176.406 129.245L170.995 124.092L164.383 128.1L164.984 132.68L157.169 131.535L150.857 148.424Z" fill="#2A3042"/>
<path d="M150.857 148.424L166.818 140.354L175.203 136.115L176.406 129.245L170.995 124.092L164.383 128.1L164.984 132.68L157.169 131.535L150.857 148.424Z" fill="#2A3042"/>
<path d="M140.516 125.309C147.571 125.309 153.29 119.59 153.29 112.535C153.29 105.48 147.571 99.7604 140.516 99.7604C133.461 99.7604 127.742 105.48 127.742 112.535C127.742 119.59 133.461 125.309 140.516 125.309Z" fill="#2F2E41"/>
<path d="M140.516 125.309C147.571 125.309 153.29 119.59 153.29 112.535C153.29 105.48 147.571 99.7604 140.516 99.7604C133.461 99.7604 127.742 105.48 127.742 112.535C127.742 119.59 133.461 125.309 140.516 125.309Z" fill="#2F2E41"/>
<path d="M147.816 104.627C150.839 104.627 153.29 101.903 153.29 98.5438C153.29 95.1843 150.839 92.4609 147.816 92.4609C144.792 92.4609 142.341 95.1843 142.341 98.5438C142.341 101.903 144.792 104.627 147.816 104.627Z" fill="#2F2E41"/>
<path d="M147.816 104.627C150.839 104.627 153.29 101.903 153.29 98.5438C153.29 95.1843 150.839 92.4609 147.816 92.4609C144.792 92.4609 142.341 95.1843 142.341 98.5438C142.341 101.903 144.792 104.627 147.816 104.627Z" fill="#2F2E41"/>
<path d="M147.948 102.781C149.008 103.341 150.223 103.525 151.398 103.304C152.574 103.083 153.642 102.469 154.432 101.56C155.222 100.652 155.689 99.5017 155.757 98.2932C155.826 97.0847 155.492 95.8879 154.809 94.894C155.427 95.3649 155.937 95.966 156.303 96.6558C156.67 97.3457 156.883 98.1078 156.93 98.8896C156.977 99.6714 156.856 100.454 156.575 101.184C156.293 101.913 155.859 102.572 155.302 103.115C154.744 103.658 154.077 104.072 153.346 104.329C152.615 104.585 151.838 104.678 151.069 104.6C150.299 104.523 149.555 104.277 148.888 103.88C148.222 103.483 147.648 102.944 147.207 102.3C147.441 102.481 147.689 102.641 147.948 102.781Z" fill="#2F2E41"/>
<path d="M147.948 102.781C149.008 103.341 150.223 103.525 151.398 103.304C152.574 103.083 153.642 102.469 154.432 101.56C155.222 100.652 155.689 99.5017 155.757 98.2932C155.826 97.0847 155.492 95.8879 154.809 94.894C155.427 95.3649 155.937 95.966 156.303 96.6558C156.67 97.3457 156.883 98.1078 156.93 98.8896C156.977 99.6714 156.856 100.454 156.575 101.184C156.293 101.913 155.859 102.572 155.302 103.115C154.744 103.658 154.077 104.072 153.346 104.329C152.615 104.585 151.838 104.678 151.069 104.6C150.299 104.523 149.555 104.277 148.888 103.88C148.222 103.483 147.648 102.944 147.207 102.3C147.441 102.481 147.689 102.641 147.948 102.781Z" fill="#2F2E41"/>
<path d="M180.902 158.847L181.173 168.291C181.21 169.593 180.751 170.861 179.889 171.839C179.027 172.817 177.825 173.432 176.526 173.562C175.694 173.645 174.854 173.525 174.079 173.213C173.304 172.9 172.616 172.405 172.075 171.768C171.535 171.132 171.157 170.374 170.975 169.56C170.792 168.746 170.811 167.9 171.029 167.095L173.154 159.254L179.271 125.898L178.863 106.373L191.913 105.966L189.466 127.932L180.902 158.847Z" fill="#FFB8B8"/>
<path d="M192.729 108C188.001 106.204 182.776 106.204 178.048 108L178.863 91.7288C178.863 90.0027 179.551 88.3472 180.774 87.1266C181.998 85.9061 183.658 85.2204 185.388 85.2204C187.119 85.2204 188.778 85.9061 190.002 87.1266C191.226 88.3472 191.913 90.0027 191.913 91.7288L192.729 108Z" fill="#2A3042"/>
</svg>
