<svg width="289" height="331" viewBox="0 0 289 331" fill="none" xmlns="http://www.w3.org/2000/svg">
<path d="M248.551 313.65C219.777 320.015 182.123 318.812 141.719 313.697C108.67 309.513 71.3999 299.05 41.1501 286.868C44.2732 283.707 48.361 281.68 52.7658 281.107C52.8892 281.088 53.0166 281.07 53.1435 281.056C55.3738 280.789 57.6279 280.789 59.858 281.057C88.1074 284.23 82.9229 299.702 121.031 282.35C144.731 271.558 170.224 270.04 187.056 273.705C187.366 273.772 187.672 273.841 187.978 273.912C197.714 276.185 204.373 280.233 205.813 285.22C209.742 298.821 192.154 307.078 222.343 307.674C230.72 307.839 240.104 311.581 248.551 313.65Z" fill="#3F3D56"/>
<path d="M244.044 321.503C236.762 320.63 273.888 327.349 266.647 325.954C256.437 323.989 246.233 321.963 236.035 319.877C215.817 315.775 195.612 311.543 175.401 307.372C155.048 303.173 134.69 299.034 114.326 294.956C95.45 291.174 76.5664 287.475 57.6752 283.859C43.4951 281.176 29.3057 278.583 15.0804 276.483C13.9879 276.321 12.8953 276.161 11.8026 276.003C11.3181 275.933 11.3214 277.056 11.8026 277.125C25.0502 279.051 38.2673 281.354 51.4742 283.816C70.3217 287.33 89.1518 291.051 107.978 294.809C128.342 298.874 148.701 303.001 169.055 307.189C189.18 311.328 209.298 315.546 229.426 319.656C248.098 323.468 266.775 327.425 285.505 330.554C286.481 330.717 287.457 330.882 288.436 331C288.922 331.058 244.527 321.561 244.044 321.503Z" fill="#3F3D56"/>
<path d="M89.124 161.435C89.124 161.435 83.4268 187.865 91.1958 187.347C98.9648 186.828 95.3392 162.989 95.3392 162.989L89.124 161.435Z" fill="#A0616A"/>
<path d="M120.2 287.367L123.825 306.541L132.112 305.505L129.523 284.775L120.2 287.367Z" fill="#A0616A"/>
<path d="M162.153 268.71L164.224 282.702H175.101L173.029 269.747L162.153 268.71Z" fill="#A0616A"/>
<path d="M111.913 148.479C111.913 148.479 103.108 165.581 106.216 208.076C109.323 250.572 109.323 290.994 109.323 290.994L131.594 289.44L137.81 183.719L162.152 275.447L178.208 273.892L174.065 184.237L161.117 141.223L111.913 148.479Z" fill="#2F2E41"/>
<path d="M126.933 297.731C126.933 297.731 128.487 293.067 125.897 293.067H120.2C120.2 293.067 113.985 304.469 110.359 305.505C106.734 306.541 95.3392 316.388 106.216 317.424C117.092 318.461 133.666 312.76 133.666 310.687C133.666 308.614 132.112 299.804 132.112 299.804L126.933 297.731Z" fill="#2F2E41"/>
<path d="M172.511 279.593C172.511 279.593 162.99 276.958 163.607 278.535C164.224 280.111 162.152 284.775 162.152 284.775C162.152 284.775 156.973 314.315 172.511 311.724C188.049 309.133 176.654 286.848 176.654 286.848L174.354 278.032L172.511 279.593Z" fill="#2F2E41"/>
<path d="M129.005 36.5392C137.586 36.5392 144.543 29.5785 144.543 20.992C144.543 12.4056 137.586 5.44485 129.005 5.44485C120.423 5.44485 113.467 12.4056 113.467 20.992C113.467 29.5785 120.423 36.5392 129.005 36.5392Z" fill="#A0616A"/>
<path d="M118.646 29.2838C118.646 29.2838 121.236 44.3127 119.682 47.4222C118.128 50.5316 132.112 56.7505 132.112 56.7505L139.363 39.1303V29.2838L118.646 29.2838Z" fill="#A0616A"/>
<path d="M126.933 46.9039C126.933 46.9039 122.218 47.5978 120.173 44.1414C118.128 40.6851 113.467 68.1517 113.467 68.1517C113.467 68.1517 115.539 104.428 112.949 112.72C110.359 121.012 110.877 124.121 111.913 125.676C112.949 127.231 116.057 125.158 113.467 129.304C110.877 133.45 110.877 130.859 110.877 135.004C110.877 139.15 109.841 154.179 109.841 154.179L165.778 150.033L139.363 36.5392C139.363 36.5392 130.559 47.4222 126.933 46.9039Z" fill="#3F3D56"/>
<path d="M148.686 42.2398C148.686 42.2398 169.921 45.3492 170.957 50.0134C171.993 54.6775 192.71 184.237 181.834 190.974C170.957 197.711 135.738 202.894 134.184 196.157C132.63 189.42 124.343 52.0863 139.363 36.5392L148.686 42.2398Z" fill="#D0CDE1"/>
<path d="M178.598 178.754H174.249C174.249 178.754 175.587 163.021 174.249 161.571C174.249 161.571 162.094 160.232 149.828 173.621C149.828 173.621 151.947 159.004 167.781 158.223C172.857 157.973 175.791 159.993 177.433 162.854C180.914 168.917 178.598 178.754 178.598 178.754Z" fill="#3F3D56"/>
<path opacity="0.15" d="M178.598 178.754H174.249C174.249 178.754 175.587 163.021 174.249 161.571L177.433 162.854C180.914 168.917 178.598 178.754 178.598 178.754Z" fill="black"/>
<path d="M153.062 168.489L147.04 178.754H149.828C149.828 178.754 150.274 171.166 153.062 168.489Z" fill="#3F3D56"/>
<path opacity="0.15" d="M153.062 168.489L147.04 178.754H149.828C149.828 178.754 150.274 171.166 153.062 168.489Z" fill="black"/>
<path d="M204.469 222.158C204.551 223.882 204.214 225.6 203.485 227.165C202.757 228.73 201.659 230.094 200.287 231.14C200.287 231.14 144.865 244.306 138.732 243.191C137.978 243.049 137.246 242.809 136.554 242.477C131.666 240.156 128.585 233.818 128.585 233.818C128.585 233.818 128.492 232.18 128.355 229.511C128.092 224.349 127.666 215.331 127.43 206.84C127.198 198.452 127.153 190.581 127.637 187.457C128.863 179.535 137.338 178.865 137.338 178.865L193.764 176.411C195.617 176.392 197.464 176.634 199.25 177.129C205.35 178.962 204.469 183.663 204.469 183.663C204.469 183.663 204.246 216.133 204.469 222.158Z" fill="#575A89"/>
<path d="M199.25 177.129C195.792 178.207 187.479 180.584 184.508 179.535C180.717 178.196 151.389 179.089 140.684 180.316C129.978 181.543 133.77 210.554 133.77 210.554L127.43 206.84C127.198 198.452 127.153 190.581 127.637 187.457C128.863 179.535 137.338 178.865 137.338 178.865L193.764 176.411C195.617 176.392 197.464 176.634 199.25 177.129Z" fill="#3F3D56"/>
<path d="M158.749 197.945C158.749 197.945 153.378 167.906 163.256 163.79L164.548 163.802C164.548 163.802 161.425 167.931 162.652 175.518C163.878 183.105 163.209 200.4 163.209 200.4C163.209 200.4 159.418 202.632 158.749 197.945Z" fill="#2F2E41"/>
<path d="M162.652 164.806C162.652 164.806 168.562 155.322 179.379 160.566C190.196 165.811 191.199 177.75 191.199 177.75C191.199 177.75 183.728 155.88 162.652 164.806Z" fill="#2F2E41"/>
<path d="M191.98 199.173L190.195 187.68L191.088 176.919L193.318 188.015L194.321 199.173H191.98Z" fill="#2F2E41"/>
<path d="M171.907 197.834L178.152 196.272L184.508 197.053V199.842L178.71 201.628L171.907 200.958V197.834Z" fill="#2F2E41"/>
<path d="M135.554 238.225C135.708 239.679 136.044 241.107 136.554 242.477C131.666 240.156 128.585 233.818 128.585 233.818C128.585 233.818 128.492 232.18 128.355 229.511L132.432 231.196L135.554 238.225Z" fill="#3F3D56"/>
<path d="M138.23 244.362C137.944 244.295 137.683 244.149 137.475 243.941C138.312 244.278 138.664 244.454 138.23 244.362Z" fill="#2F2E41"/>
<path d="M120.17 43.0172L100.001 62.9693L107.252 127.749C107.252 127.749 92.7495 204.448 101.036 204.448C109.323 204.448 108.287 205.485 109.841 199.784C111.395 194.084 120.17 43.0172 120.17 43.0172Z" fill="#D0CDE1"/>
<path d="M105.18 61.4146L100.001 62.9693C100.001 62.9693 95.3392 66.597 95.8571 74.3706C96.375 82.1441 95.3392 104.428 95.3392 104.428C95.3392 104.428 92.2316 109.093 93.7854 114.793L86.5344 164.544L102.59 167.135L108.288 141.223L105.18 61.4146Z" fill="#D0CDE1"/>
<path d="M169.403 143.815C169.403 143.815 163.188 176.464 169.403 174.391C175.619 172.318 183.388 149.515 178.208 145.888C173.029 142.26 169.403 143.815 169.403 143.815Z" fill="#A0616A"/>
<path d="M113.43 22.8152C113.43 22.8152 111.844 20.4344 112.454 17.8704C112.818 16.4147 112.962 14.9124 112.881 13.4139C112.881 13.4139 114.162 9.26267 115.443 6.94287C116.725 4.62306 116.115 3.6463 120.141 2.91373C124.168 2.18116 122.521 -3.06892 133.137 2.6085C133.495 3.10887 133.993 3.49188 134.569 3.70917C135.144 3.92647 135.771 3.96832 136.37 3.82945C138.567 3.40211 139.36 6.45449 139.36 6.45449C139.36 6.45449 140.824 5.59983 141.373 6.82077C141.922 8.04172 145.838 6.08798 145.838 14.3294C145.838 22.5708 141.382 29.9325 141.382 29.9325C141.382 29.9325 141.709 16.0695 134.448 14.6654C127.188 13.2613 119.379 9.1711 117.487 14.4212C116.466 17.3678 115.105 20.1849 113.43 22.8152Z" fill="#2F2E41"/>
<path d="M25.9448 194.597C22.5047 197.454 16.4404 211.499 16.4404 211.499C18.381 211.704 20.334 211.766 22.2836 211.684L21.6011 207.955L24.1377 211.535C25.1273 211.429 26.1049 211.231 27.0578 210.944L26.0075 205.204L29.287 209.833C29.3113 209.814 29.3363 209.795 29.36 209.776C32.8001 206.918 34.8243 201.204 33.8812 197.012C32.9382 192.821 29.3849 191.739 25.9448 194.597Z" fill="#2A3042"/>
<path d="M106.319 256.273C102.879 259.13 96.8143 273.175 96.8143 273.175C98.7549 273.381 100.708 273.442 102.657 273.36L101.975 269.631L104.512 273.211C105.501 273.105 106.479 272.907 107.432 272.62L106.381 266.881L109.661 271.51C109.685 271.49 109.71 271.472 109.734 271.452C113.174 268.595 115.198 262.88 114.255 258.689C113.312 254.497 109.759 253.415 106.319 256.273Z" fill="#2A3042"/>
<path d="M92.8547 125.033C89.9248 128.087 84.0035 142.188 84.0035 142.188C85.5276 142.222 87.0517 142.117 88.5568 141.875L88.3364 138.324L90.0191 141.575C90.8224 141.382 91.604 141.108 92.352 140.757L92.0128 135.292L94.1884 139.496C94.209 139.475 94.2301 139.455 94.2503 139.434C97.1801 136.379 99.2428 130.68 98.8574 126.703C98.472 122.727 95.7845 121.979 92.8547 125.033Z" fill="#2A3042"/>
<path d="M19.2902 303.599C15.2103 302.478 0 303.991 0 303.991C0.696262 305.349 1.51467 306.639 2.44506 307.848L5.45967 305.961L3.4057 308.991C3.95822 309.605 4.57156 310.162 5.23634 310.653L9.87596 307.749L7.2203 311.667C7.24832 311.675 7.27617 311.684 7.30425 311.691C11.3842 312.812 17.3747 311.91 20.6846 309.675C23.9944 307.44 23.3701 304.72 19.2902 303.599Z" fill="#3F3D56"/>
<path d="M30.4997 297.19C26.4198 296.069 11.2095 297.582 11.2095 297.582C11.9057 298.939 12.7241 300.23 13.6545 301.438L16.6691 299.552L14.6152 302.582C15.1677 303.196 15.781 303.753 16.4458 304.244L21.0854 301.34L18.4298 305.257C18.4578 305.266 18.4857 305.275 18.5137 305.282C22.5936 306.403 28.5842 305.5 31.8941 303.266C35.2039 301.031 34.5796 298.311 30.4997 297.19Z" fill="#3F3D56"/>
<path d="M149.8 322.426C145.72 321.305 130.51 322.819 130.51 322.819C131.206 324.176 132.025 325.466 132.955 326.675L135.97 324.788L133.916 327.818C134.468 328.432 135.082 328.989 135.746 329.48L140.386 326.576L137.73 330.494C137.758 330.502 137.786 330.511 137.814 330.518C141.894 331.639 147.885 330.737 151.195 328.502C154.505 326.267 153.88 323.547 149.8 322.426Z" fill="#3F3D56"/>
<path d="M30.4997 313.613C26.4198 312.492 11.2095 314.006 11.2095 314.006C11.9057 315.363 12.7241 316.654 13.6545 317.862L16.6691 315.975L14.6152 319.005C15.1677 319.62 15.781 320.176 16.4458 320.667L21.0854 317.763L18.4298 321.681C18.4578 321.689 18.4857 321.698 18.5137 321.706C22.5936 322.827 28.5842 321.924 31.8941 319.689C35.2039 317.455 34.5796 314.734 30.4997 313.613Z" fill="#3F3D56"/>
<path d="M202.391 171.321C201.142 173.242 200.348 178.084 199.874 182.29L202.228 184.802L199.703 183.907C199.392 187.056 199.27 189.513 199.27 189.513C199.27 189.513 209.408 187.315 211.811 183.621C214.213 179.926 214.052 174.177 211.451 170.781C208.85 167.384 204.794 167.626 202.391 171.321Z" fill="#2A3042"/>
<path d="M212.94 242.226C211.796 244.148 211.068 248.99 210.633 253.196L212.788 255.707L210.476 254.813C210.19 257.961 210.078 260.419 210.078 260.419C210.078 260.419 219.36 258.218 221.561 254.523C223.762 250.828 223.616 245.079 221.235 241.683C218.855 238.288 215.141 238.531 212.94 242.226Z" fill="#2A3042"/>
<path d="M162.152 46.9039C162.152 46.9039 174.065 44.831 176.655 60.3781C179.244 75.9253 185.977 106.501 185.977 106.501L184.128 153.156L166.814 147.442L167.332 111.684L158.527 58.3052L162.152 46.9039Z" fill="#D0CDE1"/>
<path opacity="0.15" d="M157.75 67.8926L164.483 111.943L162.929 149.256L170.181 112.979L157.75 67.8926Z" fill="black"/>
<path d="M210.807 31.5506C207.367 34.408 201.302 48.453 201.302 48.453C203.243 48.6581 205.196 48.7199 207.146 48.638L206.463 44.9089L209 48.4891C209.989 48.3831 210.967 48.1851 211.92 47.8976L210.869 42.1583L214.149 46.7873C214.173 46.768 214.198 46.7493 214.222 46.7296C217.662 43.8722 219.686 38.1578 218.743 33.9662C217.8 29.7746 214.247 28.6931 210.807 31.5506Z" fill="#2A3042"/>
</svg>
