<svg width="272" height="355" viewBox="0 0 272 355" fill="none" xmlns="http://www.w3.org/2000/svg">
<path d="M138.56 354.146C212.068 354.146 271.658 343.645 271.658 330.692C271.658 317.74 212.068 307.239 138.56 307.239C65.0522 307.239 5.46228 317.74 5.46228 330.692C5.46228 343.645 65.0522 354.146 138.56 354.146Z" fill="#3F3D56"/>
<path opacity="0.1" d="M148.238 344.501C208.944 344.501 258.155 337.058 258.155 327.876C258.155 318.695 208.944 311.252 148.238 311.252C87.5334 311.252 38.3222 318.695 38.3222 327.876C38.3222 337.058 87.5334 344.501 148.238 344.501Z" fill="black"/>
<path d="M93.4635 129.396C41.8424 129.396 0 171.34 0 223.075C0 274.811 41.8623 316.755 93.4635 316.755C99.8234 316.758 106.167 316.112 112.397 314.83C103.504 300.176 98.8132 283.348 98.8405 266.196C98.8405 220.966 130.825 183.221 173.366 174.447C165.034 160.687 153.304 149.312 139.308 141.42C125.312 133.529 109.522 129.388 93.4635 129.396Z" fill="#2A3042"/>
<path opacity="0.1" d="M9.432 225.77C9.432 174.035 51.2794 132.096 102.895 132.096C107.92 132.096 112.937 132.499 117.898 133.301C109.93 131.15 101.715 130.064 93.4635 130.071C41.8424 130.071 0 172.015 0 223.75C0 270.399 34.0097 309.063 78.5307 316.229C58.697 310.856 41.1813 299.084 28.6914 282.733C16.2016 266.382 9.43297 246.363 9.432 225.77Z" fill="black"/>
<path d="M172.92 173.767C186.649 165.417 197.999 153.66 205.873 139.631C213.747 125.602 217.88 109.776 217.872 93.6797C217.872 41.9442 176.029 0 124.408 0C72.7874 0 30.9499 41.9442 30.9499 93.6797C30.9475 100.056 31.5911 106.416 32.8709 112.662C47.4891 103.743 64.279 99.0394 81.3925 99.0691C126.508 99.0542 164.166 131.133 172.92 173.767Z" fill="#2A3042"/>
<path opacity="0.1" d="M209.816 93.6797C209.827 108.351 206.395 122.818 199.797 135.914C193.2 149.01 183.621 160.367 171.836 169.067C172.237 170.62 172.608 172.184 172.935 173.767C186.664 165.417 198.014 153.66 205.888 139.631C213.762 125.602 217.894 109.776 217.887 93.6797C217.887 41.9442 176.044 0 124.423 0C123.072 0 121.73 0.0347359 120.393 0.0942875C170.123 2.21333 209.816 43.299 209.816 93.6797Z" fill="black"/>
<path d="M168.84 215.895C167.31 216.678 165.854 217.602 164.493 218.654C163.125 219.715 162.078 221.136 161.468 222.758C160.621 220.996 160.161 219.081 159.597 217.21C158.515 213.815 157.239 210.486 155.774 207.24C158.187 206.317 160.277 204.707 161.79 202.61C164.761 205.562 167.786 208.639 169.256 212.535C169.509 213.21 170.247 213.929 170.42 214.52C170.653 215.398 169.484 215.537 168.84 215.895Z" fill="#FFBFC5"/>
<path d="M87.0269 311.515C87.0269 333.658 102.965 336.005 122.631 336.005C142.297 336.005 158.23 333.658 158.23 311.515C158.23 289.371 142.292 280.96 122.631 280.96C102.97 280.96 87.0269 289.376 87.0269 311.515Z" fill="#3F3D56"/>
<path d="M196.661 287.818C199.891 288.839 202.904 290.455 205.543 292.582C205.742 292.706 205.885 292.902 205.944 293.128C206.014 293.624 205.331 293.848 204.835 293.992C203.35 294.413 202.444 295.788 201.37 296.86C200.295 297.932 198.572 298.781 197.32 297.922C196.99 297.669 196.703 297.366 196.468 297.024L191.18 290.116C192.973 289.11 194.858 288.279 196.81 287.634" fill="#F1F1F1"/>
<path d="M206.172 289.257C206.875 289.972 207.163 291.004 207.866 291.739C208.327 292.181 208.855 292.548 209.43 292.825L213.48 295.059C214.109 295.432 214.772 295.743 215.461 295.987C216.223 296.204 216.998 296.37 217.783 296.483C218.906 296.7 220.005 297.033 221.06 297.475C221.853 297.803 222.739 298.364 222.734 299.222C222.7 299.644 222.525 300.043 222.239 300.354C220.645 302.369 217.817 302.835 215.263 303.088C209.737 303.674 204.083 304.11 198.681 302.805C197.626 302.611 196.629 302.178 195.765 301.54C194.136 300.185 193.784 297.719 194.418 295.689C194.59 294.909 195.05 294.223 195.705 293.768C196.562 293.272 197.627 293.505 198.612 293.431C199.649 293.284 200.654 292.96 201.583 292.473C202.201 292.195 202.909 291.833 203.068 291.098C203.226 290.364 202.39 289.729 202.573 289.113C202.919 287.729 205.529 288.597 206.172 289.257Z" fill="#575A89"/>
<path opacity="0.1" d="M206.172 289.257C206.875 289.972 207.163 291.004 207.866 291.739C208.327 292.181 208.855 292.548 209.43 292.825L213.48 295.059C214.109 295.432 214.772 295.743 215.461 295.987C216.223 296.204 216.998 296.37 217.783 296.483C218.906 296.7 220.005 297.033 221.06 297.475C221.853 297.803 222.739 298.364 222.734 299.222C222.7 299.644 222.525 300.043 222.239 300.354C220.645 302.369 217.817 302.835 215.263 303.088C209.737 303.674 204.083 304.11 198.681 302.805C197.626 302.611 196.629 302.178 195.765 301.54C194.136 300.185 193.784 297.719 194.418 295.689C194.59 294.909 195.05 294.223 195.705 293.768C196.562 293.272 197.627 293.505 198.612 293.431C199.649 293.284 200.654 292.96 201.583 292.473C202.201 292.195 202.909 291.833 203.068 291.098C203.226 290.364 202.39 289.729 202.573 289.113C202.919 287.729 205.529 288.597 206.172 289.257Z" fill="black"/>
<path d="M215.565 311.42L217.268 312.547C217.788 312.825 218.216 313.25 218.501 313.768C218.872 314.636 218.372 315.619 217.817 316.383C216.153 318.664 213.881 320.429 211.262 321.475C210.354 321.853 209.394 322.093 208.415 322.184C208.193 322.221 207.964 322.193 207.757 322.105C207.237 321.827 207.311 321.087 207.306 320.497C207.306 318.795 206.004 317.41 204.83 316.155C203.657 314.899 202.498 313.361 202.766 311.688C203.011 310.694 203.525 309.788 204.251 309.068C204.889 308.261 205.639 307.551 206.479 306.959C207.682 306.17 208.103 306.597 209.232 307.316C211.355 308.669 213.465 310.037 215.565 311.42Z" fill="#F1F1F1"/>
<path d="M210.039 319.728C210.502 319.845 210.985 319.851 211.451 319.746C211.916 319.641 212.35 319.427 212.718 319.122C213.45 318.507 214.042 317.742 214.456 316.879C214.871 316.115 215.232 315.323 215.535 314.507C215.891 313.549 216.218 312.492 217.06 311.912C218.05 311.207 219.506 311.485 220.526 312.165C221.546 312.845 222.318 313.852 223.194 314.725C225.259 316.79 227.977 318.095 230.77 318.949C233.562 319.802 236.459 320.229 239.325 320.78C239.901 320.857 240.457 321.037 240.969 321.311C242.128 322.02 242.519 323.604 242.192 324.924C241.865 326.244 241.009 327.335 240.073 328.328C239.293 329.254 238.326 330.003 237.236 330.526C236.316 330.862 235.348 331.047 234.369 331.072C229.62 331.394 224.85 331.019 220.209 329.961C218.505 329.494 216.772 329.148 215.02 328.923C213.956 328.829 212.876 328.859 211.812 328.785C209.685 328.638 207.605 328.089 205.682 327.167C205.215 326.994 204.821 326.664 204.568 326.234C204.428 325.839 204.399 325.413 204.484 325.003L205.192 318.78C205.256 318.239 205.435 317.564 205.974 317.48C206.514 317.395 206.856 317.926 207.177 318.333C207.802 319.081 208.657 319.601 209.608 319.809C210.558 320.017 211.551 319.903 212.431 319.485" fill="#575A89"/>
<path d="M168.924 241.249C172.039 240.896 175.653 240.837 177.762 243.164C179.055 244.594 179.446 246.594 179.891 248.464C180.59 251.612 181.727 254.646 183.268 257.477C184.258 259.233 185.461 260.876 186.239 262.742C187.016 264.608 187.308 266.712 187.764 268.742C189.588 276.702 194.045 283.81 200.409 288.91C199.285 291.972 196.032 293.724 192.868 294.508C192.105 294.761 191.284 294.787 190.507 294.582C189.917 294.327 189.394 293.94 188.977 293.451C187.498 291.849 186.121 290.157 184.852 288.384C180.292 282.28 175.668 276.052 173.182 268.851C172.311 266.32 171.44 263.392 168.989 262.315C167.593 261.71 165.993 261.898 164.493 262.156C161.141 262.724 157.842 263.573 154.63 264.692C151.204 265.888 147.283 267.357 144.149 265.531C142.272 264.434 141.178 262.335 140.747 260.201C140.316 258.067 140.534 255.864 140.747 253.7C140.768 252.725 141.001 251.766 141.431 250.891C141.865 250.236 142.421 249.672 143.069 249.229C145.869 247.103 148.983 245.429 152.298 244.266C155.462 243.144 158.869 242.777 162.171 242.216C164.412 241.826 166.663 241.504 168.924 241.249Z" fill="#575A89"/>
<path opacity="0.1" d="M168.924 241.249C172.039 240.896 175.653 240.837 177.762 243.164C179.055 244.594 179.446 246.594 179.891 248.464C180.59 251.612 181.727 254.646 183.268 257.477C184.258 259.233 185.461 260.876 186.239 262.742C187.016 264.608 187.308 266.712 187.764 268.742C189.588 276.702 194.045 283.81 200.409 288.91C199.285 291.972 196.032 293.724 192.868 294.508C192.105 294.761 191.284 294.787 190.507 294.582C189.917 294.327 189.394 293.94 188.977 293.451C187.498 291.849 186.121 290.157 184.852 288.384C180.292 282.28 175.668 276.052 173.182 268.851C172.311 266.32 171.44 263.392 168.989 262.315C167.593 261.71 165.993 261.898 164.493 262.156C161.141 262.724 157.842 263.573 154.63 264.692C151.204 265.888 147.283 267.357 144.149 265.531C142.272 264.434 141.178 262.335 140.747 260.201C140.316 258.067 140.534 255.864 140.747 253.7C140.768 252.725 141.001 251.766 141.431 250.891C141.865 250.236 142.421 249.672 143.069 249.229C145.869 247.103 148.983 245.429 152.298 244.266C155.462 243.144 158.869 242.777 162.171 242.216C164.412 241.826 166.663 241.504 168.924 241.249Z" fill="black"/>
<path d="M186.759 263.769C188.213 264.498 189.548 265.443 190.72 266.573C191.982 267.923 192.75 269.665 193.403 271.402C193.66 271.994 193.817 272.624 193.869 273.268C193.892 273.589 193.843 273.912 193.724 274.211C193.604 274.51 193.419 274.778 193.18 274.995C192.605 275.373 191.92 275.548 191.235 275.491C190.333 275.491 189.427 275.491 188.526 275.421C187.977 275.417 187.434 275.313 186.922 275.114C186.454 274.874 186.031 274.553 185.674 274.166C184.086 272.688 182.785 270.928 181.837 268.975C181.184 267.531 180.104 264.196 181.134 262.692C182.164 261.189 185.64 263.129 186.759 263.769Z" fill="#FFBFC5"/>
<path d="M143.074 263.253C147.684 264.742 152.591 264.901 157.408 265.352C165.511 266.112 173.516 267.699 181.297 270.087C182.892 270.583 184.521 271.119 185.803 272.186C186.845 273.152 187.728 274.277 188.417 275.521C189.683 277.453 190.829 279.462 191.848 281.535C192.725 283.411 193.393 285.376 194.205 287.277C196.941 293.644 201.267 299.197 206.766 303.401C207.757 304.17 208.89 305.004 209.148 306.239C209.265 307.037 209.135 307.851 208.777 308.572C207.588 311.346 205.123 313.366 202.533 314.909C201.424 315.574 200.196 316.244 199.651 317.425C195.72 315.797 192.794 312.324 190.363 308.83C187.932 305.336 185.768 301.57 182.649 298.671C181.278 297.391 179.718 296.279 178.634 294.741C176.985 292.399 176.539 289.193 174.321 287.386C172.103 285.58 168.875 285.813 166.008 286.096C151.32 287.531 136.52 287.365 121.868 285.6C118.823 285.238 115.694 284.771 113.055 283.198C110.416 281.625 108.362 278.687 108.733 275.635C109.084 272.776 111.456 270.513 114.105 269.397C116.754 268.28 119.675 268.077 122.522 267.754C129.607 266.97 136.37 265.68 143.074 263.253Z" fill="#575A89"/>
<path d="M100.945 269.183C101.306 266.762 102.242 264.469 102.831 262.092C103.125 260.596 103.499 259.116 103.95 257.66C103.95 257.615 103.985 257.576 104 257.536C104.149 257.524 104.294 257.479 104.424 257.404C104.554 257.33 104.666 257.227 104.752 257.104C104.833 256.893 104.856 256.663 104.817 256.439C104.799 256.203 104.799 255.966 104.817 255.73C105.782 254.109 106.836 252.543 107.975 251.04C109.956 248.206 111.699 245.194 113.422 242.187C114.838 239.705 116.254 237.254 117.422 234.663C118.304 232.723 119.041 230.693 120.012 228.817C123.478 222.068 129.676 217.091 136.351 213.518C142.757 210.088 149.684 207.781 156.418 205.051C156.589 205.224 156.746 205.41 156.888 205.607C160.527 210.595 160.918 217.145 162.419 223.14C163.023 225.562 163.83 227.974 163.83 230.465C163.83 234.147 162.072 237.571 160.324 240.812C158.685 243.864 156.997 246.916 154.823 249.611C153.794 250.891 152.66 252.092 151.625 253.357C147.377 258.573 144.926 264.99 142.54 271.287C141.163 274.935 138.905 278.166 137.39 281.759C136.806 283.138 136.469 284.622 135.737 285.932C135.004 287.242 133.731 288.384 132.236 288.414C131.799 288.4 131.365 288.332 130.944 288.21C125.532 286.816 121.002 283.247 116.506 279.903C115.699 279.307 114.892 278.722 114.031 278.186C113.169 277.65 112.298 277.158 111.416 276.697L109.406 275.59C107.218 274.389 105.02 273.183 102.737 272.166C102.048 271.896 101.385 271.564 100.757 271.173C100.763 270.506 100.826 269.84 100.945 269.183Z" fill="#3F3D56"/>
<path d="M171.687 215.478C178.573 215.478 184.154 209.883 184.154 202.982C184.154 196.081 178.573 190.486 171.687 190.486C164.802 190.486 159.22 196.081 159.22 202.982C159.22 209.883 164.802 215.478 171.687 215.478Z" fill="#FFBFC5"/>
<path d="M180.079 197.136C180.383 197.662 180.84 198.082 181.389 198.34C181.937 198.598 182.552 198.682 183.149 198.58C183.744 198.46 184.307 198.216 184.801 197.863C185.295 197.509 185.709 197.055 186.016 196.53C186.623 195.477 186.985 194.299 187.075 193.086C187.179 192.138 187.165 191.101 186.556 190.362C186.093 189.908 185.559 189.532 184.976 189.25C184.169 188.754 183.491 188.074 182.996 187.265C182.649 186.684 182.397 186.054 182.085 185.459C180.951 183.3 178.743 181.543 176.312 181.623C175.143 181.662 174.029 182.119 172.875 182.307C169.009 182.987 164.81 180.938 161.22 182.536C160.339 182.966 159.52 183.513 158.784 184.163C157.774 185 156.804 185.88 155.873 186.804C155.065 187.493 154.453 188.385 154.101 189.389C153.605 191.225 154.769 193.275 154.031 195.022C153.781 195.522 153.481 195.996 153.135 196.436C152.323 197.632 153.204 202.302 153.135 203.746C153.034 204.447 153.212 205.16 153.63 205.731C154.219 206.391 155.205 206.446 156.106 206.456H157.725C157.967 206.473 158.21 206.448 158.443 206.381C158.761 206.241 159.041 206.027 159.26 205.756C160.606 204.332 160.894 199.682 162.849 199.701C163.148 199.681 163.444 199.758 163.696 199.92C164.048 200.178 164.151 200.659 164.404 201.017C164.691 201.357 165.079 201.595 165.511 201.697C165.944 201.799 166.397 201.759 166.805 201.582C167.612 201.207 168.315 200.637 168.85 199.925C169.382 199.213 170.028 198.594 170.761 198.094C171.806 197.483 172.984 197.22 173.999 196.53C174.846 195.955 175.326 195.121 176.089 194.486C176.851 193.85 177.495 193.94 178.307 194.362C179.48 195.012 179.53 196.044 180.079 197.136Z" fill="#3F3D56"/>
<path opacity="0.1" d="M151.273 219.15C154.184 218.734 157.15 218.971 159.958 219.845C160.895 220.061 161.742 220.566 162.379 221.289C162.744 221.834 162.981 222.455 163.072 223.105C163.645 226.095 163.276 229.188 162.018 231.959C161.929 232.097 161.87 232.252 161.846 232.415C161.821 232.577 161.831 232.743 161.874 232.901C162.002 233.1 162.171 233.269 162.369 233.398C162.544 233.567 162.681 233.771 162.771 233.997C162.861 234.223 162.903 234.466 162.893 234.709C162.883 234.952 162.822 235.19 162.714 235.408C162.606 235.626 162.453 235.819 162.265 235.973C162.032 236.142 161.725 236.291 161.681 236.574C161.636 236.857 161.923 237.13 162.151 237.348C162.483 237.674 162.728 238.078 162.863 238.524C162.998 238.97 163.019 239.443 162.924 239.899C162.801 240.265 162.716 240.642 162.671 241.025C162.72 241.496 162.86 241.953 163.082 242.37C163.46 243.314 163.588 244.34 163.453 245.348C163.333 245.824 163.322 246.321 163.419 246.802C163.558 247.12 163.745 247.414 163.973 247.675C164.869 248.886 165.063 250.911 163.765 251.645C164.321 251.932 164.774 252.385 165.061 252.942C165.347 253.499 165.453 254.132 165.365 254.752C166.142 254.34 167.083 254.871 167.731 255.467C168.38 256.062 169.038 256.797 169.915 256.841C170.529 256.871 171.177 256.553 171.732 256.806C172.583 257.189 172.554 258.573 173.39 258.985C174.123 259.352 175.148 258.757 175.772 259.288C175.99 259.471 176.099 259.754 176.312 259.948C176.782 260.385 177.525 260.201 178.168 260.171C179.688 260.112 181.09 261.164 181.877 262.444C182.664 263.724 182.946 265.288 183.149 266.796C183.316 267.625 183.299 268.481 183.1 269.302C182.995 269.711 182.772 270.079 182.459 270.361C182.147 270.644 181.758 270.828 181.342 270.89C173.692 271.387 166.142 269.546 158.69 267.729C156.502 267.193 154.279 266.568 152.452 265.248C150.793 264.042 149.575 262.345 148.387 260.677C146.194 257.596 143.985 254.494 142.416 251.055C140.396 246.633 139.495 241.79 138.613 237.001C138.309 235.717 138.201 234.396 138.291 233.08C138.558 231.542 139.145 230.078 140.014 228.782C141.063 227.067 142.221 225.421 143.48 223.855C145.396 221.487 148.263 219.582 151.273 219.15Z" fill="black"/>
<path d="M151.774 218.654C154.686 218.237 157.654 218.476 160.463 219.354C161.401 219.566 162.248 220.07 162.884 220.793C163.247 221.339 163.483 221.96 163.577 222.609C164.147 225.598 163.779 228.692 162.523 231.462C162.434 231.601 162.375 231.756 162.351 231.918C162.326 232.081 162.336 232.247 162.379 232.405C162.507 232.604 162.676 232.773 162.874 232.902C163.049 233.071 163.186 233.275 163.276 233.501C163.366 233.727 163.408 233.969 163.398 234.213C163.388 234.456 163.327 234.694 163.219 234.912C163.111 235.13 162.958 235.323 162.77 235.477C162.537 235.646 162.23 235.795 162.186 236.078C162.141 236.36 162.429 236.633 162.681 236.852C163.013 237.178 163.258 237.582 163.393 238.028C163.528 238.474 163.549 238.947 163.453 239.403C163.331 239.768 163.246 240.146 163.201 240.529C163.249 240.999 163.386 241.456 163.607 241.874C163.989 242.817 164.119 243.843 163.983 244.852C163.83 245.247 163.798 245.68 163.89 246.094C163.983 246.509 164.196 246.886 164.503 247.179C165.399 248.39 165.592 250.415 164.295 251.179C164.851 251.464 165.304 251.917 165.591 252.473C165.878 253.029 165.984 253.661 165.894 254.281C166.672 253.869 167.612 254.4 168.261 254.995C168.91 255.591 169.568 256.325 170.445 256.37C171.058 256.4 171.702 256.082 172.262 256.335C173.113 256.722 173.083 258.102 173.92 258.519C174.653 258.881 175.678 258.285 176.302 258.816C176.52 259 176.629 259.283 176.841 259.476C177.312 259.913 178.054 259.73 178.698 259.7C180.218 259.64 181.619 260.692 182.407 261.973C183.123 263.321 183.556 264.802 183.679 266.325C183.838 267.146 183.821 267.992 183.629 268.806C183.524 269.215 183.302 269.583 182.989 269.865C182.677 270.148 182.288 270.332 181.872 270.394C174.222 270.891 166.672 269.049 159.22 267.233C157.032 266.697 154.804 266.072 152.982 264.752C151.323 263.551 150.105 261.849 148.917 260.181C146.723 257.104 144.515 254.003 142.946 250.564C140.926 246.137 140.024 241.293 139.143 236.509C138.839 235.225 138.731 233.901 138.821 232.584C139.074 231.048 139.646 229.582 140.5 228.281C141.545 226.565 142.703 224.921 143.966 223.358C145.901 220.981 148.768 219.081 151.774 218.654Z" fill="#3F3D56"/>
<path d="M256.357 139.316C250.787 140.511 245.693 143.329 241.715 147.416C237.737 151.503 235.052 156.677 233.998 162.288C236.395 162.237 238.729 163.054 240.573 164.589C242.417 166.125 243.647 168.276 244.036 170.647C244.424 173.018 243.947 175.45 242.691 177.496C241.434 179.542 239.483 181.066 237.196 181.786C240.472 187.656 245.685 192.199 251.939 194.634C258.193 197.069 265.099 197.245 271.468 195.131C259.621 179.086 254.227 159.163 256.357 139.316Z" fill="#F1F1F1"/>
<path d="M234.008 162.288C232.578 162.314 231.171 162.648 229.881 163.267C228.592 163.886 227.45 164.777 226.535 165.878C225.619 166.978 224.951 168.264 224.575 169.647C224.199 171.029 224.125 172.477 224.356 173.891C224.588 175.306 225.121 176.653 225.919 177.842C226.717 179.032 227.761 180.035 228.98 180.784C230.199 181.533 231.565 182.01 232.984 182.183C234.404 182.356 235.844 182.221 237.206 181.786C233.9 175.861 232.768 168.963 234.008 162.288Z" fill="#F1F1F1"/>
<path d="M215.792 166.606C214.363 166.631 212.955 166.965 211.666 167.585C210.376 168.204 209.235 169.094 208.32 170.195C207.404 171.296 206.735 172.581 206.36 173.964C205.984 175.347 205.909 176.795 206.141 178.209C206.373 179.623 206.906 180.971 207.704 182.16C208.502 183.349 209.546 184.353 210.765 185.102C211.984 185.851 213.349 186.328 214.769 186.501C216.188 186.674 217.628 186.538 218.991 186.104C215.687 180.178 214.556 173.28 215.792 166.606Z" fill="#F1F1F1"/>
</svg>
