<svg width="95" height="100" viewBox="0 0 95 100" fill="none" xmlns="http://www.w3.org/2000/svg">
<path d="M90.0286 93.183C90.0286 96.9477 69.8753 100 45.0143 100C20.1533 100 0 96.9477 0 93.183C0 90.5177 10.1021 88.2087 24.8247 87.0887C30.8958 86.6254 37.7554 86.3659 45.0143 86.3659C47.9983 86.3659 50.9141 86.4099 53.734 86.4934C74.4217 87.1092 90.0286 89.8697 90.0286 93.183Z" fill="#3F3D56"/>
<path opacity="0.1" d="M39.2064 94.5757C48.7497 94.5757 56.4861 93.624 56.4861 92.4499C56.4861 91.2759 48.7497 90.3242 39.2064 90.3242C29.6631 90.3242 21.9268 91.2759 21.9268 92.4499C21.9268 93.624 29.6631 94.5757 39.2064 94.5757Z" fill="black"/>
<path d="M39.1337 93.9893C48.1557 93.9893 55.4695 86.1129 55.4695 76.3969C55.4695 66.6809 48.1557 58.8045 39.1337 58.8045C30.1117 58.8045 22.7979 66.6809 22.7979 76.3969C22.7979 86.1129 30.1117 93.9893 39.1337 93.9893Z" fill="#3F3D56"/>
<path d="M44.2885 86.8057H34.124V96.1883H44.2885V86.8057Z" fill="#2A3042"/>
<path d="M57.575 89.0781L56.9941 92.3034L60.7695 92.8898L63.2381 91.4238L63.0929 89.0781H57.575Z" fill="#575A89"/>
<path d="M38.5525 28.531C38.5525 28.531 38.2621 31.9028 37.536 32.0494C36.81 32.1961 39.1333 38.0602 39.1333 38.0602H42.6183L45.3773 37.3272L44.0704 34.1019C44.0704 34.1019 42.3279 31.7562 43.6348 29.8504C44.9416 27.9446 38.5525 28.531 38.5525 28.531Z" fill="#A0616A"/>
<path opacity="0.1" d="M38.5525 28.531C38.5525 28.531 38.2621 31.9028 37.536 32.0494C36.81 32.1961 39.1333 38.0602 39.1333 38.0602H42.6183L45.3773 37.3272L44.0704 34.1019C44.0704 34.1019 42.3279 31.7562 43.6348 29.8504C44.9416 27.9446 38.5525 28.531 38.5525 28.531Z" fill="black"/>
<path d="M31.2926 54.3331C31.2926 54.3331 27.5172 61.6633 30.5666 63.1293C33.616 64.5953 34.342 64.4487 34.342 64.8885C34.342 65.3284 33.7612 65.1817 34.0516 65.9148C34.342 66.6478 33.4707 69.5798 34.342 71.3391C35.2132 73.0983 34.9228 74.4177 34.9228 74.4177C34.9228 74.4177 34.9228 74.5643 35.2132 75.1508C35.5036 75.7372 35.6489 76.177 35.5036 76.4702C35.3584 76.7634 34.4872 78.6692 35.3584 79.109C36.2297 79.5489 40.7311 79.8421 41.1667 79.109C41.6024 78.376 40.7311 77.9362 41.1667 77.4964C41.6024 77.0566 41.8928 76.91 41.6024 76.6168C41.3119 76.3236 41.0215 72.6585 41.0215 72.6585C41.0215 72.6585 41.7476 68.407 41.4572 67.8206C41.1667 67.2342 40.7311 66.6478 41.0215 66.208C41.3119 65.7682 41.6024 65.9148 41.7476 65.3284C41.8928 64.7419 42.1832 63.4225 42.1832 63.4225L43.7805 63.2759L47.5559 64.0089C47.5559 64.0089 51.7669 68.7002 56.4135 70.1663C56.4135 70.1663 57.7204 71.4857 58.156 71.4857C58.5916 71.4857 58.5916 71.4857 58.4464 71.7789C58.3012 72.0721 57.8656 72.0721 58.156 72.3653C58.4464 72.6585 58.882 72.2187 58.5916 72.6585C58.3012 73.0983 58.0108 73.0983 58.3012 73.3915C58.5916 73.6847 58.156 75.2974 58.156 75.444C58.156 75.5906 56.8491 89.3713 57.2848 89.6645C57.7204 89.9577 63.8191 90.8373 64.2547 89.6645C64.6903 88.4916 63.9643 87.0256 63.9643 87.0256C63.9643 87.0256 66.1424 69.4332 65.5616 68.2604C64.9807 67.0876 62.9478 61.8099 52.0573 58.438C52.0573 58.438 49.0079 57.8516 49.0079 57.4118C49.0079 56.972 48.7175 54.1865 48.1367 54.0399C47.5559 53.8933 44.2161 53.7467 44.2161 53.7467L40.0051 55.0661L34.1968 54.0399L31.2926 54.3331Z" fill="#2F2E41"/>
<path d="M36.3747 78.9625L35.6487 81.6013C35.6487 81.6013 35.0678 85.8528 35.7939 86.879C36.3642 87.6851 37.3824 88.6721 39.2708 88.8453C39.8 88.8943 40.33 88.7595 40.773 88.4631C41.216 88.1667 41.5456 87.7266 41.7072 87.2154C41.7288 87.1542 41.7424 87.0904 41.7474 87.0256C41.7474 86.7324 41.3118 83.2139 41.3118 83.2139L40.5857 79.5489L40.4405 78.5226L36.3747 78.9625Z" fill="#2F2E41"/>
<path d="M57.5743 91.5703C57.5743 91.5703 56.8482 90.8373 56.703 91.5703C56.5578 92.3033 55.977 95.382 56.9935 95.5286C58.0099 95.6752 67.7388 97.1412 68.7553 96.5548C69.7717 95.9684 71.6594 95.0888 70.4978 94.649C69.3361 94.2092 65.9963 92.8897 65.9963 92.8897C65.9963 92.8897 64.1086 90.3975 63.8182 90.2509C63.5278 90.1043 61.9305 90.3975 61.2045 90.9839C60.4784 91.5703 57.5743 91.5703 57.5743 91.5703Z" fill="#2F2E41"/>
<path d="M42.0376 31.6096C44.5236 31.6096 46.539 29.5749 46.539 27.0649C46.539 24.555 44.5236 22.5202 42.0376 22.5202C39.5515 22.5202 37.5361 24.555 37.5361 27.0649C37.5361 29.5749 39.5515 31.6096 42.0376 31.6096Z" fill="#A0616A"/>
<path d="M41.6015 37.3271L39.859 35.4213L37.9275 31.6096C37.9275 31.6096 36.5192 31.1698 36.2288 31.9028C35.9384 32.6358 30.7109 34.9815 30.7109 34.9815C30.7109 34.9815 32.0178 47.2962 31.437 48.469C30.8561 49.6418 29.8397 54.3331 30.7109 54.7729C31.5822 55.2127 35.648 54.7729 36.9549 55.3593C38.2617 55.9457 42.0371 55.9457 43.0536 55.2127C44.07 54.4797 44.3604 53.8933 45.3769 54.3331C46.2422 54.7075 48.2652 41.9069 48.8476 38.0923C48.8967 37.7719 48.8559 37.444 48.73 37.1458C48.604 36.8476 48.3979 36.591 48.1349 36.4049C46.832 35.4822 44.4854 33.8922 44.07 34.1019C43.4892 34.3951 41.6015 37.3271 41.6015 37.3271Z" fill="#575A89"/>
<path d="M47.8463 36.7407C48.1872 36.8268 48.494 37.0161 48.7253 37.2833C48.9566 37.5505 49.1013 37.8828 49.1402 38.2355L50.3148 48.9088C50.3148 48.9088 47.4106 55.2127 45.9586 50.9612C44.5065 46.7098 47.8463 36.7407 47.8463 36.7407Z" fill="#575A89"/>
<path d="M47.5552 49.935L50.7498 49.0554C50.7498 49.0554 51.3306 53.1603 51.9114 53.1603C52.4922 53.1603 49.8785 55.506 48.5717 55.2127C47.2648 54.9195 45.3771 53.8933 45.2319 53.1603C45.0867 52.4273 46.5388 49.3486 46.5388 49.3486L47.5552 49.935Z" fill="#575A89"/>
<path d="M38.6391 29.0254C38.9452 28.344 38.8921 27.5492 39.1451 26.846C39.2806 26.4694 39.5005 26.1296 39.7876 25.853C40.0747 25.5765 40.4213 25.3707 40.8002 25.2517C41.1792 25.1328 41.5802 25.1039 41.972 25.1673C42.3638 25.2307 42.7358 25.3847 43.0589 25.6173C43.3844 25.8517 43.7108 26.1809 44.1081 26.1362C44.536 26.088 44.9177 25.606 45.3111 25.7827C45.7471 25.9784 45.6293 26.7674 46.0711 26.9496C46.3036 27.0455 46.5783 26.8978 46.7125 26.6834C46.8297 26.4581 46.8937 26.2084 46.8992 25.9539C46.9601 25.3286 47.0152 24.6668 46.7466 24.1001C46.6336 23.908 46.5352 23.7076 46.4521 23.5005C46.4051 23.3071 46.3862 23.1079 46.3961 22.909C46.3937 22.1741 46.3405 21.4075 45.9742 20.7724C45.5677 20.0677 44.8162 19.617 44.0323 19.4204C43.2483 19.2238 42.427 19.2539 41.6221 19.3227C40.2915 19.4364 38.9039 19.6802 37.8556 20.5153C37.7131 20.6204 37.5905 20.7505 37.4936 20.8994C37.4016 21.0762 37.3365 21.2661 37.3007 21.4625C37.0741 22.3944 36.7343 23.2943 36.289 24.142C36.0748 24.5014 35.8997 24.8831 35.7669 25.2805C35.6557 25.6843 35.6632 26.1445 35.8959 26.4915C36.0854 26.7741 36.3883 26.9247 36.6263 27.1557C36.862 27.3846 36.9724 27.8249 37.2336 27.9982C37.4616 28.1495 37.7347 28.0427 37.9673 28.2031C38.2659 28.409 38.2875 28.8605 38.6391 29.0254Z" fill="#2F2E41"/>
<path d="M42.3281 39.5262L42.7637 38.6466C42.7637 38.6466 49.1529 40.5524 50.4597 42.3117C50.4597 42.3117 53.6543 40.2592 55.3968 40.5524L57.1393 40.8456L51.7666 45.6835L44.9419 45.0971L42.3281 39.5262Z" fill="#F2F2F2"/>
<path d="M42.0375 38.6466L36.084 47.003L44.6512 51.2544C44.6512 51.2544 45.4521 51.6943 46.0681 51.2544L51.7664 48.6156L57.1391 40.8456L51.7664 43.6311C51.7664 43.6311 51.1856 42.4583 50.0239 43.0447L42.0375 38.6466Z" fill="#2A3042"/>
<path d="M51.186 53.4535L52.3477 50.3748C52.3477 50.3748 54.9614 47.003 53.5093 45.3903C52.0572 43.7777 50.46 50.0816 50.46 50.0816L51.186 53.4535Z" fill="#A0616A"/>
<path d="M37.7822 52.9622L40.317 50.8875C40.317 50.8875 44.2536 49.2946 43.7989 47.1641C43.3441 45.0336 38.8298 49.6777 38.8298 49.6777L37.7822 52.9622Z" fill="#A0616A"/>
<path opacity="0.1" d="M31.5102 38.1334H31.365C31.365 38.1334 29.1143 35.4213 28.6787 39.0864C28.2431 42.7515 26.791 54.9195 30.5664 55.3593C34.3418 55.7991 37.0281 53.5268 37.0281 53.5268C37.0281 53.5268 39.7871 49.2753 38.7706 49.2753C38.2788 49.2753 36.9412 49.0523 35.7212 49.1287C34.4198 49.2102 33.2504 49.5803 33.3253 49.202C33.4705 48.469 35.576 39.1597 31.5102 38.1334Z" fill="black"/>
<path d="M31.2919 35.2747L30.7111 34.9815C30.7111 34.9815 28.3877 35.4213 27.9521 39.0864C27.5165 42.7515 26.0644 54.9195 29.8398 55.3593C33.6152 55.7992 38.6975 54.7729 38.6975 54.7729C38.6975 54.7729 39.7139 49.202 38.6975 49.202C37.681 49.202 32.4536 49.935 32.5988 49.202C32.744 48.469 35.3577 36.3009 31.2919 35.2747Z" fill="#575A89"/>
<path d="M49.0801 51.7676L50.6813 49.2899L51.6938 53.3803L49.0801 54.5531V51.7676Z" fill="#575A89"/>
<path d="M16.1872 16.4362C18.3525 16.4362 20.1078 14.664 20.1078 12.4779C20.1078 10.2918 18.3525 8.51962 16.1872 8.51962C14.0219 8.51962 12.2666 10.2918 12.2666 12.4779C12.2666 14.664 14.0219 16.4362 16.1872 16.4362Z" fill="#F2F2F2"/>
<path d="M20.8333 41.9451H11.54V51.3278H20.8333V41.9451Z" fill="#F2F2F2"/>
<path d="M54.0168 0L56.369 4.11325L58.721 8.22649H54.0168H49.3125L51.6646 4.11325L54.0168 0Z" fill="#F2F2F2"/>
<path d="M94.9995 24.6629C94.9433 26.4178 94.52 27.8244 93.7297 28.8827C92.9392 29.9411 92.0001 30.4703 90.9124 30.4704C90.0265 30.4704 89.25 29.9525 88.583 28.9166C87.9157 27.8808 87.5821 26.2874 87.5822 24.1365C87.5822 23.661 87.5934 23.2082 87.6158 22.778C87.6382 22.3479 87.6662 21.9404 87.6999 21.5554L88.2886 15.9686H84.4033C83.7306 23.0327 83.1784 27.2355 82.7466 28.577C82.3149 29.9185 81.5832 30.5892 80.5517 30.5893C80.0861 30.5777 79.6418 30.3898 79.3071 30.0629C79.113 29.8892 78.9595 29.6743 78.8577 29.4335C78.7559 29.1926 78.7083 28.932 78.7184 28.6704C78.7184 28.1499 79.1249 27.4225 79.9378 26.4884C80.7507 25.5544 81.202 24.7025 81.2918 23.9327L82.3009 15.9686H80.6695C80.2096 15.9714 79.7569 16.0849 79.3492 16.2997C78.9739 16.4738 78.6473 16.7393 78.3988 17.0724L77.6756 18.1592H77.0869C77.6362 16.4385 78.3118 15.1451 79.1137 14.279C79.9152 13.413 80.8375 12.9799 81.8804 12.9799H94.7305V15.9686H90.391C90.2565 17.3271 90.1528 18.6856 90.0799 20.044C90.0068 21.4025 89.9704 22.7667 89.9706 24.1365C89.9706 25.0649 90.1836 25.8177 90.6097 26.395C91.0357 26.9723 91.5683 27.261 92.2076 27.261C92.5999 27.261 93.012 27.0997 93.4438 26.777C93.6488 26.6318 93.8203 26.4436 93.9466 26.2252C94.0729 26.0069 94.1509 25.7636 94.1754 25.5119C94.2091 25.263 94.2343 25.0678 94.2511 24.9261C94.2679 24.7847 94.2763 24.6969 94.2763 24.6629L94.9995 24.6629Z" fill="#2A3042"/>
<path opacity="0.1" d="M94.9995 24.6629C94.9433 26.4178 94.52 27.8244 93.7297 28.8827C92.9392 29.9411 92.0001 30.4703 90.9124 30.4704C90.0265 30.4704 89.25 29.9525 88.583 28.9166C87.9157 27.8808 87.5821 26.2874 87.5822 24.1365C87.5822 23.661 87.5934 23.2082 87.6158 22.778C87.6382 22.3479 87.6662 21.9404 87.6999 21.5554L88.2886 15.9686H84.4033C83.7306 23.0327 83.1784 27.2355 82.7466 28.577C82.3149 29.9185 81.5832 30.5892 80.5517 30.5893C80.0861 30.5777 79.6418 30.3898 79.3071 30.0629C79.113 29.8892 78.9595 29.6743 78.8577 29.4335C78.7559 29.1926 78.7083 28.932 78.7184 28.6704C78.7184 28.1499 79.1249 27.4225 79.9378 26.4884C80.7507 25.5544 81.202 24.7025 81.2918 23.9327L82.3009 15.9686H80.6695C80.2096 15.9714 79.7569 16.0849 79.3492 16.2997C78.9739 16.4738 78.6473 16.7393 78.3988 17.0724L77.6756 18.1592H77.0869C77.6362 16.4385 78.3118 15.1451 79.1137 14.279C79.9152 13.413 80.8375 12.9799 81.8804 12.9799H94.7305V15.9686H90.391C90.2565 17.3271 90.1528 18.6856 90.0799 20.044C90.0068 21.4025 89.9704 22.7667 89.9706 24.1365C89.9706 25.0649 90.1836 25.8177 90.6097 26.395C91.0357 26.9723 91.5683 27.261 92.2076 27.261C92.5999 27.261 93.012 27.0997 93.4438 26.777C93.6488 26.6318 93.8203 26.4436 93.9466 26.2252C94.0729 26.0069 94.1509 25.7636 94.1754 25.5119C94.2091 25.263 94.2343 25.0678 94.2511 24.9261C94.2679 24.7847 94.2763 24.6969 94.2763 24.6629L94.9995 24.6629Z" fill="black"/>
<path d="M94.9995 24.1324C94.9433 25.8872 94.52 27.2938 93.7297 28.3521C92.9392 29.4105 92.0001 29.9398 90.9124 29.9399C90.0265 29.9399 89.25 29.4219 88.583 28.3861C87.9157 27.3502 87.5821 25.7569 87.5822 23.6059C87.5822 23.1305 87.5934 22.6777 87.6158 22.2475C87.6382 21.8174 87.6662 21.4098 87.6999 21.0248L88.2886 15.4381H84.4033C83.7306 22.5022 83.1784 26.705 82.7466 28.0465C82.3149 29.388 81.5832 30.0587 80.5517 30.0588C80.0861 30.0472 79.6418 29.8593 79.3071 29.5323C79.113 29.3587 78.9595 29.1437 78.8577 28.9029C78.7559 28.6621 78.7083 28.4015 78.7184 28.1399C78.7184 27.6193 79.1249 26.892 79.9378 25.9578C80.7507 25.0238 81.202 24.172 81.2918 23.4022L82.3009 15.4381H80.6695C80.2096 15.4408 79.7569 15.5544 79.3492 15.7692C78.9739 15.9432 78.6473 16.2087 78.3988 16.5418L77.6756 17.6286H77.0869C77.6362 15.908 78.3118 14.6146 79.1137 13.7485C79.9152 12.8824 80.8375 12.4494 81.8804 12.4494H94.7305V15.4381H90.391C90.2565 16.7966 90.1528 18.155 90.0799 19.5135C90.0068 20.872 89.9704 22.2361 89.9706 23.6059C89.9706 24.5343 90.1836 25.2872 90.6097 25.8644C91.0357 26.4418 91.5683 26.7305 92.2076 26.7304C92.5999 26.7304 93.012 26.5691 93.4438 26.2465C93.6488 26.1013 93.8203 25.913 93.9466 25.6947C94.0729 25.4764 94.1509 25.233 94.1754 24.9814C94.2091 24.7325 94.2343 24.5372 94.2511 24.3956C94.2679 24.2541 94.2763 24.1664 94.2763 24.1324H94.9995Z" fill="#2A3042"/>
</svg>
