<svg width="109" height="95" viewBox="0 0 109 95" fill="none" xmlns="http://www.w3.org/2000/svg">
<g clip-path="url(#clip0_47_1596)">
<path d="M59.1386 90.1426C86.4395 90.1426 108.571 87.8718 108.571 85.0705C108.571 82.2693 86.4395 79.9984 59.1386 79.9984C31.8378 79.9984 9.70605 82.2693 9.70605 85.0705C9.70605 87.8718 31.8378 90.1426 59.1386 90.1426Z" fill="#3F3D56"/>
<path d="M83.6546 79.4582L84.5071 81.8703C84.5071 81.8703 88.6131 85.7658 87.1281 86.8217C85.6431 87.8775 82.3113 82.3115 82.3113 82.3115L81.6973 79.5883L83.6546 79.4582Z" fill="#FFB8B8"/>
<path d="M75.7773 60.7878L77.0201 60.4074C77.0201 60.4074 78.9532 60.9146 79.2293 62.6899C79.5055 64.4651 81.5767 73.4681 81.5767 73.4681C81.5767 73.4681 82.4052 73.8485 81.8529 74.4825C81.3005 75.1165 84.6145 80.8226 84.6145 80.8226L81.9909 81.9638C81.9909 81.9638 76.7439 76.8917 76.7439 76.3845C76.7439 75.8773 76.882 75.3701 76.882 74.8629C76.882 74.3557 76.7439 74.3557 76.882 73.9753C76.9742 73.6438 77.0205 73.303 77.0201 72.9608L76.0535 70.932L75.7773 60.7878Z" fill="#2A3042"/>
<path d="M12.4849 69.486C19.3801 69.486 24.9697 59.0123 24.9697 46.0924C24.9697 33.1724 19.3801 22.6988 12.4849 22.6988C5.58967 22.6988 0 33.1724 0 46.0924C0 59.0123 5.58967 69.486 12.4849 69.486Z" fill="#2A3042"/>
<path d="M12.3705 46.335C12.9932 36.152 14.248 29.2736 14.2606 29.2053L13.9884 29.163C13.9758 29.2313 12.7188 36.1207 12.095 46.3169C11.5193 55.7274 11.3804 69.9613 13.9883 84.3305L14.2607 84.2889C11.6573 69.9441 11.7958 55.7317 12.3705 46.335Z" fill="#3F3D56"/>
<path d="M23.6438 41.3482L12.3555 46.8965L12.4858 47.1202L23.7741 41.5718L23.6438 41.3482Z" fill="#3F3D56"/>
<path d="M0.568736 44.129L0.438477 44.3527L11.7284 49.8982L11.8586 49.6746L0.568736 44.129Z" fill="#3F3D56"/>
<path d="M42.0543 64.0247C51.4898 64.0247 59.1388 49.6923 59.1388 32.0123C59.1388 14.3324 51.4898 0 42.0543 0C32.6187 0 24.9697 14.3324 24.9697 32.0123C24.9697 49.6923 32.6187 64.0247 42.0543 64.0247Z" fill="#E6E6E6"/>
<path d="M41.8472 32.3403C42.6995 18.4033 44.4169 8.98936 44.4342 8.89587L44.162 8.85352C44.1447 8.94707 42.425 18.372 41.5717 32.3221C40.784 45.1973 40.594 64.6716 44.1619 84.3305L44.4343 84.2889C40.8708 64.6543 41.0606 45.2017 41.8472 32.3403Z" fill="#3F3D56"/>
<path d="M57.3475 25.5614L41.9004 33.154L42.0307 33.3776L57.4779 25.785L57.3475 25.5614Z" fill="#3F3D56"/>
<path d="M25.724 29.3668L25.5938 29.5904L41.0431 37.1791L41.1734 36.9555L25.724 29.3668Z" fill="#3F3D56"/>
<path d="M27.8217 76.499C31.3471 76.499 34.2049 71.1441 34.2049 64.5384C34.2049 57.9327 31.3471 52.5777 27.8217 52.5777C24.2963 52.5777 21.4385 57.9327 21.4385 64.5384C21.4385 71.1441 24.2963 76.499 27.8217 76.499Z" fill="#E6E6E6"/>
<path d="M27.8167 65.0537L27.8545 65.1186L33.6259 62.2817L33.4956 62.0581L27.8287 64.8436C28.1423 59.543 28.7837 55.9848 28.7966 55.9147L28.5244 55.8724C28.5103 55.9489 27.7482 60.1744 27.4777 66.2886L21.7621 63.4792L21.6318 63.7028L27.4033 66.5396L27.4722 66.4214C27.2558 71.4678 27.3771 77.7778 28.5243 84.099L28.7967 84.0573C27.5459 77.1653 27.5183 70.2862 27.8167 65.0537Z" fill="#3F3D56"/>
<path d="M77.4666 48.751C75.2471 45.2772 70.8559 45.1153 70.8559 45.1153C70.8559 45.1153 66.577 44.6084 63.8321 49.8991C61.2737 54.8304 57.7427 59.5917 63.2637 60.7461L64.2609 57.871L64.8785 60.9602C65.6646 61.0125 66.4532 61.025 67.2407 60.9975C73.1533 60.8207 78.7841 61.0493 78.6028 59.084C78.3618 56.4715 79.6022 52.0935 77.4666 48.751Z" fill="#2F2E41"/>
<path d="M61.9964 76.5759C61.9345 76.939 61.8445 77.2976 61.7273 77.6491C61.5952 77.9929 61.3914 78.311 61.2707 78.6584C60.8859 79.7659 61.4193 81.0006 62.2713 81.8555C63.008 82.5926 63.962 83.1173 65.0174 83.3659C65.786 83.5449 66.5852 83.5707 67.3772 83.5956C69.5706 83.6644 71.8204 83.7261 73.8987 83.0732C74.5557 82.8617 75.1899 82.5948 75.7934 82.2759C75.9843 82.1915 76.1523 82.069 76.285 81.9173C76.4435 81.7083 76.4638 81.4372 76.4624 81.1818C76.4577 80.3205 76.2692 79.4636 76.314 78.6034C76.3388 78.1269 76.4351 77.6507 76.3877 77.1757C76.3239 76.6381 76.081 76.1316 75.692 75.7256C75.3031 75.3195 74.7871 75.0336 74.2146 74.907C73.625 74.7897 73.0135 74.8536 72.4133 74.9071C70.8553 75.0457 69.2905 75.1105 67.7252 75.1012C66.126 75.0918 64.5366 74.8656 62.9453 74.842C62.4747 74.835 62.4842 74.9694 62.3344 75.3913C62.1964 75.7797 62.0835 76.1752 61.9964 76.5759Z" fill="#2F2E41"/>
<path d="M55.7427 75.8759C55.3128 75.7758 54.8697 75.7321 54.4264 75.7463C53.9605 75.7732 53.5059 75.8901 53.0925 76.0892C52.679 76.2883 52.3158 76.5653 52.0267 76.9019C51.7405 77.2436 51.5348 77.6363 51.4228 78.0549C51.3108 78.4736 51.295 78.9091 51.3763 79.3336C51.4836 79.7936 51.6591 80.2378 51.8979 80.6539C52.247 81.3101 52.6657 81.9648 53.3119 82.3853C53.701 82.6163 54.1203 82.8012 54.5599 82.9355L57.9636 84.1232C58.4643 84.2979 58.9651 84.4727 59.4708 84.6347C62.0099 85.4478 64.6589 85.9356 67.3431 86.0844C68.1604 86.1294 68.99 86.142 69.7874 85.9696C69.9822 85.9459 70.1606 85.8567 70.2879 85.7191C70.3529 85.6143 70.3911 85.4973 70.3998 85.3769L70.6092 84.0188C70.6561 83.8296 70.65 83.6326 70.5914 83.4462C70.4955 83.218 70.255 83.0744 70.0257 82.9524C67.788 81.7619 65.1752 81.1052 63.2917 79.4713C62.8483 79.0866 62.4772 78.4769 61.9385 78.2156C61.3276 77.9193 60.6081 77.7502 59.9766 77.4772C58.5962 76.8803 57.2389 76.1944 55.7427 75.8759Z" fill="#2F2E41"/>
<path opacity="0.1" d="M59.1404 77.7069C60.3434 78.0561 65.4228 80.4752 66.2934 81.3199C66.1767 81.3588 62.2172 79.3035 62.0984 79.2704C61.0185 78.9702 59.9325 78.668 58.9069 78.2287C58.7006 78.1403 57.5665 77.7248 57.6179 77.4837C57.6759 77.2116 58.9268 77.6449 59.1404 77.7069Z" fill="black"/>
<path d="M74.15 86.7887C74.2184 86.7933 74.2862 86.7749 74.3407 86.7367C74.3647 86.7081 74.3824 86.6754 74.3926 86.6406C74.4028 86.6057 74.4055 86.5693 74.4003 86.5335L74.3947 84.6832C73.8203 84.4297 73.1778 84.3484 72.5471 84.2703L69.6044 83.906C69.6721 83.9144 69.1443 85.08 69.2253 85.2356C69.3679 85.5099 70.4577 85.7529 70.7653 85.8824C71.8346 86.3326 72.9457 86.8275 74.15 86.7887Z" fill="#FFB8B8"/>
<path d="M64.917 84.6768C64.3614 84.7587 63.7413 84.8312 63.3815 85.2318C62.9252 85.7398 63.1194 86.4972 63.3371 87.1265C63.3693 87.2537 63.4342 87.3719 63.5264 87.4713C63.6749 87.6071 63.9025 87.6269 64.1108 87.6392C64.6175 87.6689 65.1567 87.6922 65.5994 87.4619C65.8001 87.3391 65.9931 87.2062 66.1777 87.0638C66.5038 86.8627 66.8627 86.7107 67.2409 86.6135C67.9353 86.4112 68.6505 86.2747 69.3751 86.2061C69.6607 86.1941 69.9433 86.1479 70.2159 86.0689C70.3525 86.0278 70.477 85.9585 70.5797 85.8661C70.6823 85.7738 70.7605 85.661 70.808 85.5364C70.9105 85.2001 70.6996 84.8573 70.4972 84.5624C70.2451 84.1951 69.9781 83.8083 69.6023 83.5379C69.054 83.1433 68.7827 83.4462 68.2304 83.6987C67.186 84.1763 66.0689 84.506 64.917 84.6768Z" fill="#FFB8B8"/>
<path d="M63.4657 85.1403L59.9379 84.1745C59.515 84.0381 59.0727 83.9587 58.625 83.9388C58.1776 83.9392 57.7095 84.075 57.4194 84.3905C57.1458 84.6879 57.0675 85.0943 56.9993 85.4799L56.8534 86.3047C56.7561 86.7206 56.7286 87.1477 56.7717 87.5712C56.8385 87.9914 57.0701 88.4112 57.4726 88.6147C57.9608 88.8614 58.5591 88.7409 59.1039 88.6377C60.2043 88.4293 61.3237 88.3181 62.4471 88.3056C62.8694 88.3009 63.3123 88.3058 63.6854 88.1227C64.129 87.9049 64.3943 87.4445 64.4399 86.9815C64.5093 86.2769 64.2558 85.3566 63.4657 85.1403Z" fill="#2F2E41"/>
<path d="M75.5363 84.2987C75.9936 84.2244 76.3972 83.9837 76.8355 83.8416C77.4523 83.6415 78.1207 83.6415 78.7743 83.6437C79.0142 83.6446 79.2696 83.6495 79.4693 83.7727C79.7572 83.9502 79.831 84.3054 79.8799 84.6226L80.1753 86.5358C80.2308 86.8956 80.286 87.2651 80.1994 87.6197C80.1128 87.9742 79.8519 88.316 79.472 88.4075C79.0107 88.5186 78.5585 88.2456 78.1229 88.0663C77.0342 87.6181 75.7687 87.7327 74.6336 87.3977C74.4229 87.3356 74.1973 87.2405 74.1114 87.0518C74.0725 86.9455 74.0587 86.8328 74.0707 86.7212C74.0902 86.1062 73.9501 85.2665 74.15 84.6788C74.3298 84.1502 75.0258 84.2987 75.5363 84.2987Z" fill="#2F2E41"/>
<path d="M83.0018 75.1058C83.7065 74.9421 84.4374 74.8958 85.1599 74.9692C85.7368 75.0281 86.3313 75.1768 86.7525 75.5467C87.2652 75.9969 87.4299 76.6931 87.4437 77.3474C87.4668 78.6488 87.0006 79.9178 86.1235 80.9403C85.9099 81.1979 85.6556 81.4248 85.3688 81.6133C85.0601 81.7922 84.7308 81.9392 84.3869 82.0516L76.7644 84.8364C74.7591 85.5691 72.7467 86.3038 70.6551 86.7868C70.5978 86.8123 70.5355 86.827 70.472 86.8299C70.4084 86.8329 70.3448 86.8241 70.2851 86.804C70.2253 86.7839 70.1705 86.753 70.124 86.7131C70.0775 86.6732 70.0402 86.6251 70.0144 86.5716C69.3461 85.6872 68.7858 84.738 68.3438 83.741C68.3238 83.7091 68.3116 83.6737 68.3078 83.6371C68.3041 83.6005 68.309 83.5636 68.3222 83.5289C68.3501 83.4904 68.3891 83.4597 68.4348 83.4402L73.8262 80.5708C74.2219 80.3796 74.5904 80.1444 74.9235 79.8705C75.1568 79.661 75.3476 79.4149 75.4869 79.144C75.5987 78.9278 75.6091 78.4175 75.7519 78.2577C75.8916 78.1012 76.3697 78.0888 76.5905 78.0272C76.9021 77.9388 77.2071 77.832 77.5036 77.7075C78.7096 77.2078 79.7836 76.4816 80.9397 75.8965C81.5876 75.5533 82.2806 75.2876 83.0018 75.1058Z" fill="#2F2E41"/>
<path opacity="0.1" d="M79.9458 77.2486C79.0195 77.893 77.8202 78.4854 76.9022 79.1468C76.5888 79.3725 71.3658 82.0925 71.292 82.4537C72.1485 82.5874 77.6042 79.052 78.3848 78.6992C79.1654 78.3465 79.8574 77.849 80.5431 77.3552C80.7178 77.2293 81.4583 76.851 80.9567 76.7104C80.6741 76.6312 80.1544 77.1198 79.9458 77.2486Z" fill="black"/>
<path d="M70.6689 57.491C73.5668 57.491 75.9159 55.3337 75.9159 52.6725C75.9159 50.0113 73.5668 47.854 70.6689 47.854C67.7711 47.854 65.4219 50.0113 65.4219 52.6725C65.4219 55.3337 67.7711 57.491 70.6689 57.491Z" fill="#FFB8B8"/>
<path d="M72.8782 56.7301C72.8782 56.7301 72.0497 58.6322 73.5686 59.393C75.0874 60.1538 68.8739 66.2404 68.8739 66.2404L66.1123 58.8858C66.1123 58.8858 68.4596 58.125 68.0454 56.0961L72.8782 56.7301Z" fill="#FFB8B8"/>
<path d="M69.4262 61.9291L72.7702 58.5389L77.2967 60.6611L76.6063 75.6237L75.5017 76.765C75.5017 76.765 70.807 80.569 63.6268 77.399C63.6268 77.399 61.1414 75.4969 61.2795 72.5805C61.4176 69.664 61.0033 69.2836 61.0033 69.2836L60.8652 59.0126L67.6824 57.7842L69.4262 61.9291Z" fill="#2A3042"/>
<path d="M54.0921 78.0633L53.2396 80.4755C53.2396 80.4755 49.1336 84.3709 50.6186 85.4268C52.1037 86.4827 55.4354 80.9167 55.4354 80.9167L56.0495 78.1935L54.0921 78.0633Z" fill="#FFB8B8"/>
<path d="M61.9699 59.393L60.7272 59.0126C60.7272 59.0126 58.7941 59.5198 58.5179 61.295C58.2417 63.0703 56.1706 72.0733 56.1706 72.0733C56.1706 72.0733 55.3421 72.4537 55.8944 73.0877C56.4467 73.7217 53.1328 79.4278 53.1328 79.4278L55.7563 80.569C55.7563 80.569 61.0033 75.4969 61.0033 74.9897C61.0033 74.4825 60.8652 73.9753 60.8652 73.4681C60.8652 72.9609 61.0033 72.9609 60.8652 72.5805C60.7731 72.249 60.7267 71.9082 60.7272 71.5661L61.6937 69.5372L61.9699 59.393Z" fill="#2A3042"/>
<path d="M76.4858 48.4161L72.1474 46.3113L66.1565 47.1723L64.917 52.2432L68.0025 52.1333L68.8644 50.2703V52.1025L70.2882 52.0518L71.1146 49.0858L71.631 52.2432L76.6923 52.1475L76.4858 48.4161Z" fill="#2F2E41"/>
<path d="M45.7331 81.0369V88.3509H21.4062C21.4064 86.4111 22.2455 84.5508 23.7391 83.1792C25.2327 81.8076 27.2584 81.037 29.3707 81.0369C31.6518 80.3839 34.2891 80.1759 37.1501 80.2444C39.8496 80.3078 42.7479 80.6185 45.7331 81.0369Z" fill="#FF6584"/>
<path d="M42.2578 86.7554H53.6973C53.8894 86.7554 54.0735 86.8254 54.2093 86.9501C54.3451 87.0748 54.4214 87.2439 54.4214 87.4203C54.4214 87.5966 54.3451 87.7657 54.2093 87.8904C54.0735 88.0151 53.8894 88.0851 53.6973 88.0851H42.2578V86.7554Z" fill="#3F3D56"/>
<path d="M44.2393 74.7777L47.3055 71.3644C47.3762 71.229 47.49 71.1166 47.632 71.0421C47.7739 70.9676 47.9372 70.9346 48.1 70.9474C48.2629 70.9602 48.4177 71.0183 48.5438 71.1139C48.6698 71.2094 48.7612 71.338 48.8058 71.4824L50.0149 75.403L44.2393 74.7777Z" fill="#3F3D56"/>
<path d="M40.5195 76.516L41.678 72.221C41.678 72.0709 41.7277 71.9243 41.8207 71.8008C41.9136 71.6773 42.0453 71.5827 42.1982 71.5296C42.3511 71.4765 42.518 71.4674 42.6766 71.5036C42.8353 71.5397 42.9782 71.6194 43.0864 71.732L46.0221 74.7873L40.5195 76.516Z" fill="#FF6584"/>
<path d="M21.4053 88.3511H23.7221V92.8724C23.7221 93.1518 23.6622 93.4284 23.5458 93.6866C23.4294 93.9447 23.2587 94.1793 23.0436 94.3768C22.8284 94.5744 22.573 94.7311 22.2919 94.838C22.0108 94.945 21.7095 95 21.4053 95V88.3511Z" fill="#FF6584"/>
<path d="M41.8232 87.0213H53.2628C53.4548 87.0213 53.639 87.0914 53.7748 87.2161C53.9106 87.3408 53.9868 87.5099 53.9868 87.6862C53.9868 87.8626 53.9106 88.0317 53.7748 88.1564C53.639 88.2811 53.4548 88.3511 53.2628 88.3511H41.8232V87.0213Z" fill="#FF6584"/>
<path opacity="0.2" d="M45.7329 81.0369V88.3103C44.5577 88.4249 43.3694 88.2935 42.2574 87.9259C41.1453 87.5583 40.1385 86.9641 39.3125 86.1878C38.4864 85.4116 37.8627 84.4735 37.4882 83.4441C37.1136 82.4147 36.9979 81.3208 37.1499 80.2444C39.8493 80.3078 42.7476 80.6185 45.7329 81.0369Z" fill="black"/>
<path d="M45.7325 88.3511C50.0511 88.3511 53.552 85.1361 53.552 81.1703C53.552 77.2044 50.0511 73.9895 45.7325 73.9895C41.414 73.9895 37.9131 77.2044 37.9131 81.1703C37.9131 85.1361 41.414 88.3511 45.7325 88.3511Z" fill="#FF6584"/>
<path d="M53.2624 83.5639C53.7422 83.5639 54.1312 82.7304 54.1312 81.7022C54.1312 80.674 53.7422 79.8405 53.2624 79.8405C52.7825 79.8405 52.3936 80.674 52.3936 81.7022C52.3936 82.7304 52.7825 83.5639 53.2624 83.5639Z" fill="#3F3D56"/>
<path d="M51.1635 80.2395C51.2835 80.2395 51.3807 80.0311 51.3807 79.774C51.3807 79.517 51.2835 79.3086 51.1635 79.3086C51.0435 79.3086 50.9463 79.517 50.9463 79.774C50.9463 80.0311 51.0435 80.2395 51.1635 80.2395Z" fill="#3F3D56"/>
<path d="M52.7563 79.3086C52.8762 79.3086 52.9735 79.1002 52.9735 78.8432C52.9735 78.5861 52.8762 78.3778 52.7563 78.3778C52.6363 78.3778 52.5391 78.5861 52.5391 78.8432C52.5391 79.1002 52.6363 79.3086 52.7563 79.3086Z" fill="#3F3D56"/>
<path d="M45.0772 73.9096C45.0772 73.9096 44.6426 73.2153 44.6426 72.7918L45.0772 73.9096Z" fill="#3F3D56"/>
<path d="M45.2676 73.4605C45.2676 73.4605 45.5044 72.6898 45.8342 72.3938L45.2676 73.4605Z" fill="#3F3D56"/>
</g>
<defs>
<clipPath id="clip0_47_1596">
<rect width="108.571" height="95" fill="white"/>
</clipPath>
</defs>
</svg>
