<svg width="96" height="95" viewBox="0 0 96 95" fill="none" xmlns="http://www.w3.org/2000/svg">
<g clip-path="url(#clip0_47_1393)">
<path d="M96 47.5C96.0059 52.694 95.1496 57.8538 93.4651 62.7731C93.3685 63.0541 93.2696 63.3343 93.1683 63.6135C91.3845 68.4951 88.805 73.0548 85.5323 77.1116C84.5553 78.3244 83.52 79.4871 82.4265 80.5996C81.333 81.7141 80.1851 82.7741 78.9827 83.7799C72.276 89.4081 64.129 93.0944 55.44 94.4323H55.4386C54.3309 94.6023 53.2123 94.7349 52.0828 94.83C50.738 94.9424 49.377 94.9991 48 95C41.5963 95.0083 35.256 93.7444 29.355 91.2834C23.4539 88.8224 18.112 85.2142 13.6459 80.6727C13.3321 80.3551 13.023 80.0328 12.7186 79.7058C11.9602 78.8922 11.2308 78.0532 10.5302 77.1889C10.1368 76.7027 9.75291 76.2089 9.37848 75.7077C7.07206 72.6242 5.15312 69.2746 3.66392 65.7327C3.02884 64.2242 2.47423 62.6837 2.00238 61.1176C1.9683 61.0066 1.93563 60.8956 1.90297 60.7845C1.83197 60.5456 1.76333 60.3053 1.69706 60.0636C0.567372 55.9694 -0.00337915 51.744 1.50496e-05 47.5C1.50496e-05 21.2668 21.4907 0 48 0C74.5093 0 96 21.2668 96 47.5Z" fill="#F2F2F2"/>
<path d="M61.1121 90.0842L60.1408 93.4668C58.5912 93.8661 57.0223 94.1883 55.4402 94.4323H55.4387C54.3311 94.6023 53.2125 94.7349 52.083 94.83L55.2428 90.3624L55.6915 90.3231L61.1121 90.0842Z" fill="#2F2E41"/>
<path d="M85.5324 77.1116C84.5554 78.3244 83.5201 79.4871 82.4266 80.5996L78.6804 80.6024L58.5331 80.6249L54.9062 80.6291L52.4948 80.632L48.9076 80.6348L46.1483 80.6376L41.0515 80.6432L38.0451 80.6474L31.7142 80.653L28.6922 80.6573L20.3177 80.6657L15.0576 80.6713L13.646 80.6727C13.3322 80.3551 13.0231 80.0328 12.7187 79.7058C11.9603 78.8922 11.2309 78.0532 10.5303 77.1889L13.4529 77.1861L15.4439 77.1847L20.0536 77.1791L28.9492 77.1706L31.9556 77.1678L33.1712 77.1664H33.1755L34.1298 77.165L34.5573 77.1636L35.6522 77.1622H36.1151L39.3615 77.1594L46.3641 77.151L49.4458 77.1481L52.3968 77.1453L55.1632 77.1425L59.1324 77.1383L80.332 77.1172L85.5324 77.1116Z" fill="#CCCCCC"/>
<path d="M34.6539 79.4443C36.2329 79.4443 37.513 79.04 37.513 78.5413C37.513 78.0426 36.2329 77.6384 34.6539 77.6384C33.075 77.6384 31.7949 78.0426 31.7949 78.5413C31.7949 79.04 33.075 79.4443 34.6539 79.4443Z" fill="#3F3D56"/>
<path d="M34.6539 78.8423C36.2329 78.8423 37.513 78.438 37.513 77.9393C37.513 77.4407 36.2329 77.0364 34.6539 77.0364C33.075 77.0364 31.7949 77.4407 31.7949 77.9393C31.7949 78.438 33.075 78.8423 34.6539 78.8423Z" fill="#3F3D56"/>
<path d="M34.1514 78.5444L34.5775 78.5381L34.4599 70.6657C34.4428 69.3812 34.7665 68.1147 35.3987 66.9927C36.0309 65.8706 36.9494 64.9323 38.0626 64.2715L46.1941 59.4616L45.9756 59.0997L37.8441 63.9097C36.6668 64.6086 35.6953 65.6009 35.0267 66.7875C34.3582 67.9741 34.0158 69.3135 34.0339 70.672L34.1514 78.5444Z" fill="#3F3D56"/>
<path d="M44.9484 61.9872C44.9484 62.5524 45.4114 63.0105 45.9825 63.0105C46.5536 63.0105 47.0166 62.5524 47.0166 61.9872V55.6063C47.0166 55.0412 46.5536 54.583 45.9825 54.583C45.4114 54.583 44.9484 55.0412 44.9484 55.6063V61.9872Z" fill="#2A3042"/>
<path d="M45.9466 44.5605L57.0981 57.6012L66.6058 61.6287L69.14 56.754C66.8151 54.0166 59.2291 50.7311 59.2291 50.7311L48.9285 41.5882C48.9101 41.5209 48.8902 41.4537 48.8655 41.387C48.721 40.9958 48.477 40.6481 48.1571 40.3774C47.8371 40.1068 47.452 39.9224 47.039 39.8421C46.626 39.7618 46.199 39.7882 45.7993 39.9189C45.3997 40.0496 45.0408 40.2801 44.7575 40.5882C44.4742 40.8962 44.2759 41.2714 44.1819 41.6774C44.0879 42.0834 44.1013 42.5066 44.2209 42.9059C44.3404 43.3053 44.5621 43.6674 44.8644 43.9573C45.1667 44.2471 45.5394 44.4549 45.9466 44.5605Z" fill="#A0616A"/>
<path d="M68.1463 55.2724L65.6865 61.5043L65.689 61.5285C65.9342 63.9227 69.7139 66.1397 72.8415 67.5777C73.8732 68.0511 75.048 68.1191 76.1285 67.7681C77.2089 67.4171 78.1144 66.6732 78.6618 65.6869C79.0607 64.9566 79.2451 64.1304 79.1944 63.3018C79.1436 62.4731 78.8597 61.6751 78.3746 60.9978L75.8913 57.5565L68.1463 55.2724Z" fill="#2A3042"/>
<path d="M82.4034 67.0748L81.0955 71.7334L80.3315 77.1172L80.0958 78.7727L80.0901 78.8078L78.6373 80.1738L78.6799 80.6024L78.7935 81.745L78.9824 83.7799C72.2747 89.4066 64.1282 93.0927 55.4397 94.4322C55.4383 94.4337 55.4383 94.4322 55.4383 94.4322C54.2781 94.1034 53.3678 93.7464 53.0014 93.4865C52.8565 93.3853 52.7912 93.2953 52.794 93.204C52.8097 92.5955 54.555 90.4116 54.8191 90.0842L55.5121 87.2454L56.9266 86.6889L56.5772 84.6919L58.4688 82.716L58.5228 80.6825L58.5327 80.6249L59.132 77.1383L60.3277 70.1946L60.4499 69.4835L60.3391 63.9999L60.3064 62.3388L60.2681 60.4444C60.258 59.9573 60.2942 59.4704 60.376 58.9899C60.4366 58.6281 60.5239 58.2711 60.6373 57.9219C60.9525 56.9494 61.4584 56.0481 62.1261 55.2694C62.7938 54.4907 63.6101 53.8501 64.5285 53.3841C64.6009 53.3476 64.6733 53.3124 64.7471 53.2773C64.7471 53.2773 64.7471 53.2759 64.7486 53.2773C65.3166 53.0116 65.915 52.8148 66.5308 52.6913L66.7097 52.3765L68.4622 49.296L73.833 49.4323L77.0368 54.3945L79.7109 57.0211C81.0205 58.3099 81.9601 59.9203 82.4333 61.687C82.9065 63.4538 82.8962 65.3133 82.4034 67.0748Z" fill="#2A3042"/>
<path d="M70.6788 47.7745C74.6085 47.7745 77.7941 44.622 77.7941 40.7333C77.7941 36.8446 74.6085 33.6921 70.6788 33.6921C66.7491 33.6921 63.5635 36.8446 63.5635 40.7333C63.5635 44.622 66.7491 47.7745 70.6788 47.7745Z" fill="#A0616A"/>
<path d="M69.8116 47.8687C70.9135 47.8857 72.0148 47.8096 73.1035 47.6411C74.1827 47.4239 76.597 45.6731 77.27 44.6196C77.77 43.8369 78.0897 42.6146 78.2699 41.727C78.5126 40.5526 78.5034 39.3408 78.2428 38.1701C77.9821 36.9994 77.4759 35.8959 76.757 34.9311C76.4806 34.5276 76.0992 34.2055 75.6531 33.9988C75.6136 33.9835 75.5729 33.9699 75.5317 33.9584C74.8816 33.7891 74.2975 33.4314 73.8543 32.9312C73.7684 32.83 73.6752 32.7351 73.5755 32.6472C73.0746 32.2289 72.4808 31.9338 71.8425 31.7861C70.8124 31.5133 69.3215 31.7841 67.4115 32.5918C66.4519 32.9977 65.4024 32.8508 64.5951 32.6775C64.5498 32.6688 64.503 32.6721 64.4594 32.6869C64.4158 32.7017 64.3768 32.7275 64.3464 32.7618C64.0029 33.0809 63.5501 33.2596 63.0789 33.2618C62.7904 33.2743 62.4876 33.6697 62.1217 34.1853C62.0386 34.3024 61.9417 34.439 61.8718 34.5221L61.8625 34.3624L61.6993 34.5405C61.4427 34.8204 61.2618 35.16 61.1736 35.5276C61.0853 35.8953 61.0925 36.279 61.1945 36.6432C61.2965 37.0074 61.4899 37.3401 61.7568 37.6103C62.0237 37.8806 62.3554 38.0796 62.7209 38.1889C63.0112 38.2653 63.3086 38.3122 63.6085 38.3289C63.7902 38.345 63.9781 38.3618 64.1581 38.3927C64.7361 38.5098 65.2735 38.7732 65.7178 39.1572C66.1622 39.5412 66.4983 40.0327 66.6934 40.5836C66.7396 40.711 66.8147 40.8261 66.9129 40.9202C67.0112 41.0142 67.13 41.0847 67.2601 41.1261C67.3903 41.1676 67.5283 41.1788 67.6635 41.1591C67.7988 41.1394 67.9276 41.0891 68.0401 41.0123C68.2277 40.8677 68.4479 40.7702 68.6818 40.7281C68.9157 40.6859 69.1564 40.7004 69.3834 40.7702C69.5796 40.8782 69.7324 41.0496 69.816 41.2558C69.9176 41.4854 70.0861 41.6799 70.2999 41.8145C71.0312 42.1876 71.0817 43.8405 70.819 45.2185C70.5658 46.5467 70.0653 47.5075 69.602 47.555C69.2452 47.5915 69.2044 47.6166 69.1786 47.679L69.1555 47.7349L69.1956 47.7872C69.3926 47.8579 69.6027 47.8857 69.8116 47.8687Z" fill="#2F2E41"/>
<path d="M65.2019 67.3325L62.4584 61.9199C58.4763 62.1891 50.5728 66.7454 50.5728 66.7454L35.6191 69.8828C35.1761 69.7143 34.6961 69.6643 34.2274 69.7377C33.7586 69.8112 33.3177 70.0055 32.949 70.3012C32.5802 70.5969 32.2967 70.9834 32.127 71.422C31.9572 71.8606 31.9072 72.3357 31.982 72.7994C32.0568 73.2632 32.2537 73.6993 32.5529 74.0639C32.8521 74.4284 33.2431 74.7085 33.6865 74.8759C34.1299 75.0434 34.6101 75.0923 35.0786 75.0178C35.5472 74.9432 35.9876 74.7478 36.3557 74.4513L55.3776 73.102L65.2019 67.3325Z" fill="#A0616A"/>
<path d="M64.0963 68.2213L71.2613 62.9521L72.5234 58.4512C72.7679 57.5668 72.7576 56.6322 72.4936 55.7532C72.2295 54.8743 71.7223 54.0859 71.0293 53.4772C70.0842 52.6583 68.8602 52.2252 67.6047 52.2653C66.3492 52.3053 65.1559 52.8157 64.2661 53.6931C61.5698 56.3564 58.4945 60.0719 59.1551 62.6483L59.1618 62.6744L64.0963 68.2213Z" fill="#2A3042"/>
<path d="M12.2808 61.2876C12.2723 61.3003 12.2637 61.3129 12.2538 61.327C11.9701 61.309 11.6855 61.3085 11.4017 61.3256C11.2398 61.3354 11.0779 61.3509 10.916 61.372C10.7127 61.4001 10.5226 61.4884 10.3708 61.6252C10.219 61.7621 10.1125 61.9411 10.0652 62.1389C10.0179 62.3366 10.0321 62.5439 10.1059 62.7335C10.1797 62.9232 10.3096 63.0863 10.4786 63.2017L10.4957 63.2129C10.5085 63.2214 10.5184 63.2284 10.5312 63.2368C8.64188 64.896 6.18885 65.7874 3.66349 65.7327C3.02841 64.2242 2.47381 62.6837 2.00195 61.1176C2.77393 60.4006 3.71921 59.892 4.74704 59.6406C6.80621 59.1487 9.10396 59.7038 11.1646 59.5015C12.1558 59.4045 12.8446 60.474 12.2808 61.2876Z" fill="white"/>
<path d="M14.0835 45.6295C14.0779 45.645 14.0722 45.6618 14.0651 45.6787C13.9032 45.6885 13.7413 45.7054 13.5794 45.7265C13.3761 45.7545 13.1861 45.8426 13.0343 45.9793C12.8825 46.116 12.776 46.2949 12.7287 46.4926C12.6814 46.6902 12.6956 46.8974 12.7693 47.087C12.8431 47.2765 12.973 47.4396 13.142 47.5548L13.159 47.5675C12.8911 48.0009 12.5902 48.4134 12.2587 48.8013C11.3212 49.8802 10.1687 50.7557 8.87324 51.3731C7.57782 51.9905 6.16748 52.3364 4.73064 52.3891C4.63691 52.3919 4.54602 52.3948 4.45371 52.3948C4.21447 54.5143 3.69697 56.5939 2.9143 58.581C2.61742 59.3329 2.27989 60.0685 1.90318 60.7845C1.83217 60.5456 1.76354 60.3053 1.69727 60.0636C1.71431 60.0313 1.72993 60.0004 1.74555 59.968C2.12074 59.2015 2.45215 58.4147 2.73821 57.6113C2.97252 56.9522 3.17702 56.2847 3.3517 55.6087C4.2956 51.9375 4.34622 48.097 3.4994 44.4027C2.73341 43.3426 2.31411 42.0758 2.29797 40.7727C2.29112 40.3036 2.35283 39.8359 2.48117 39.3842C2.59052 39.4559 2.70555 39.5234 2.81916 39.5866C2.85466 39.6063 2.89158 39.626 2.92851 39.6456L2.94129 39.6527C3.06747 39.7202 3.21069 39.7502 3.35371 39.7391C3.49673 39.7279 3.63344 39.6761 3.74736 39.5898C3.86128 39.5035 3.94755 39.3864 3.99577 39.2527C4.04399 39.119 4.05212 38.9743 4.01916 38.8362C3.99927 38.7504 3.97797 38.6647 3.95809 38.579C3.92685 38.4469 3.89419 38.3148 3.86436 38.1827C3.85926 38.1695 3.85546 38.1559 3.853 38.1419C3.8175 37.9916 3.78058 37.8426 3.74507 37.6922C4.0282 37.5211 4.34756 37.4172 4.67809 37.3887C5.81561 37.2987 6.86649 38.2417 7.11786 39.3421C7.37348 40.4439 6.94886 41.6159 6.24164 42.5013C5.63525 43.2587 4.83857 43.8391 4.00922 44.3563C4.02768 44.4406 4.04898 44.5235 4.06744 44.6064C4.39881 46.1469 4.57764 47.7156 4.60141 49.2904C5.10697 47.7979 6.20188 46.2338 7.19312 45.3611C8.32212 44.3675 9.8104 43.7871 11.1964 43.1238C12.8594 42.327 14.7027 43.9052 14.0835 45.6295Z" fill="white"/>
<path d="M90.45 67.3812C90.6872 67.6791 90.9329 67.9756 91.1786 68.2736C90.3323 69.9932 89.3809 71.6602 88.3298 73.2653C88.2517 73.2105 88.1736 73.1557 88.0955 73.1008C88.0831 73.0942 88.0713 73.0867 88.06 73.0784C87.7689 72.8732 87.4763 72.6708 87.1852 72.4656V72.4642C86.945 71.6554 86.8109 70.8194 86.7861 69.9768C86.9363 69.9427 87.0722 69.8638 87.1755 69.7507C87.2788 69.6375 87.3444 69.4957 87.3634 69.3445C87.3825 69.1932 87.3541 69.0398 87.2821 68.905C87.2101 68.7703 87.0979 68.6607 86.9608 68.5912C86.9225 68.5251 86.8955 68.4773 86.8571 68.4099C86.8586 68.393 86.8614 68.3747 86.8628 68.3579C87.0858 66.6026 89.3466 65.9899 90.45 67.3812Z" fill="white"/>
<path d="M92.9989 61.3663C93.1693 61.8301 93.3246 62.299 93.4647 62.7731C93.3681 63.0541 93.2692 63.3343 93.1679 63.6134C93.1296 63.4659 93.0898 63.3183 93.0486 63.1708C92.8176 62.3503 92.5402 61.5433 92.2178 60.7536C91.9537 60.1058 91.6611 59.4715 91.3402 58.8508C89.595 55.4789 87.066 52.565 83.9613 50.3486C82.6781 50.0549 81.5168 49.379 80.6339 48.4121C80.3154 48.0646 80.049 47.6737 79.8429 47.2513C79.9736 47.233 80.1042 47.2077 80.232 47.181C80.2718 47.1726 80.313 47.1627 80.3527 47.1543L80.3683 47.1515C80.5081 47.1194 80.6355 47.0481 80.7352 46.9461C80.8349 46.8441 80.9027 46.7157 80.9305 46.5765C80.9582 46.4372 80.9447 46.293 80.8916 46.1611C80.8385 46.0293 80.748 45.9154 80.6311 45.8333C80.5587 45.7813 80.4848 45.7307 80.4124 45.6801C80.3016 45.6 80.1894 45.5241 80.0772 45.4454C80.0654 45.4381 80.054 45.4301 80.0431 45.4215C79.9153 45.3316 79.7875 45.2444 79.6611 45.1531C79.7592 44.84 79.9288 44.5534 80.1568 44.3155C80.9506 43.5047 82.3679 43.5229 83.2938 44.1834C84.2211 44.8439 84.6869 46.0005 84.7466 47.1276C84.7991 48.093 84.589 49.0487 84.312 49.9804C84.3816 50.031 84.454 50.0788 84.5236 50.1308C85.8021 51.0684 86.9846 52.128 88.054 53.2942C87.4363 51.8439 87.2119 49.9523 87.3724 48.6496C87.5556 47.1655 88.2841 45.756 88.8806 44.3521C89.5949 42.6657 92.0318 42.6432 92.7191 44.3408C92.7262 44.3577 92.7333 44.3731 92.739 44.39C92.624 44.5038 92.5132 44.6219 92.4067 44.7442C92.273 44.8982 92.1894 45.0886 92.1669 45.2905C92.1443 45.4924 92.1839 45.6963 92.2805 45.8755C92.377 46.0547 92.526 46.2009 92.7079 46.2949C92.8898 46.3889 93.0962 46.4264 93.3 46.4024L93.3213 46.3996C93.4098 46.9006 93.4602 47.4075 93.4718 47.916C93.4894 49.3386 93.2099 50.7494 92.6508 52.0601C92.0917 53.3708 91.265 54.5531 90.2226 55.5328C90.1544 55.5961 90.0877 55.6579 90.0181 55.7183C90.6759 56.6441 91.2668 57.6148 91.7861 58.6231C92.2471 59.5119 92.6522 60.4281 92.9989 61.3663Z" fill="white"/>
</g>
<defs>
<clipPath id="clip0_47_1393">
<rect width="96" height="95" fill="white"/>
</clipPath>
</defs>
</svg>
