<svg width="84" height="81" viewBox="0 0 84 81" fill="none" xmlns="http://www.w3.org/2000/svg">
<g clip-path="url(#clip0_17_2662)">
<path d="M49.0833 41.1982H48.6421V29.0379C48.6421 28.1137 48.4608 27.1984 48.1088 26.3445C47.7567 25.4906 47.2407 24.7147 46.5901 24.0612C45.9396 23.4076 45.1673 22.8892 44.3173 22.5355C43.4674 22.1819 42.5564 21.9999 41.6364 21.9999H15.9927C15.0728 21.9999 14.1618 22.1819 13.3118 22.5356C12.4619 22.8893 11.6896 23.4077 11.0391 24.0613C10.3886 24.7148 9.87258 25.4907 9.52053 26.3446C9.16848 27.1986 8.98729 28.1138 8.9873 29.038V95.7502C8.9873 97.6168 9.72536 99.407 11.0391 100.727C12.3529 102.047 14.1347 102.788 15.9926 102.788H41.6364C43.4943 102.788 45.2762 102.047 46.5899 100.727C47.9037 99.407 48.6417 97.6168 48.6417 95.7502V49.8542H49.083L49.0833 41.1982Z" fill="#3F3D56"/>
<path d="M47.2135 28.5664V96.2213C47.2133 97.6365 46.6537 98.9938 45.6578 99.9946C44.6618 100.995 43.311 101.558 41.9023 101.558H15.7322C14.323 101.559 12.9714 100.996 11.9747 99.9956C10.9781 98.9947 10.4179 97.6371 10.4175 96.2213V28.5664C10.4179 27.1507 10.978 25.7931 11.9747 24.7922C12.9713 23.7914 14.3228 23.2292 15.732 23.2294H18.9065C18.7507 23.6145 18.6913 24.0322 18.7338 24.4458C18.7762 24.8593 18.9191 25.2561 19.1499 25.6011C19.3807 25.9462 19.6923 26.2291 20.0574 26.4248C20.4225 26.6205 20.8298 26.7232 21.2436 26.7237H36.1637C36.5775 26.7232 36.9849 26.6205 37.3499 26.4248C37.715 26.2291 38.0266 25.9462 38.2574 25.6011C38.4882 25.2561 38.6311 24.8593 38.6736 24.4458C38.716 24.0322 38.6567 23.6145 38.5008 23.2294H41.9013C43.31 23.2296 44.6609 23.7919 45.657 24.7925C46.6532 25.7931 47.213 27.1502 47.2135 28.5654V28.5664Z" fill="white"/>
<path d="M29.0958 55.6326C26.1162 55.6337 23.2582 54.4457 21.1505 52.3298C19.0427 50.214 17.8578 47.3437 17.8564 44.3502V44.3402C17.8564 44.3165 17.8564 44.2916 17.8578 44.268C17.8917 38.0842 22.9338 33.0485 29.0958 33.0485C30.5718 33.0484 32.0333 33.3404 33.397 33.9078C34.7606 34.4752 35.9997 35.3069 37.0434 36.3554C38.0872 37.4039 38.9151 38.6486 39.48 40.0186C40.0449 41.3886 40.3357 42.8569 40.3358 44.3398C40.3359 45.8226 40.0452 47.291 39.4805 48.661C38.9157 50.031 38.0879 51.2759 37.0443 52.3245C36.0007 53.3731 34.7617 54.2049 33.3981 54.7725C32.0345 55.34 30.573 55.6322 29.0971 55.6322H29.0958V55.6326ZM29.0958 33.2861C26.191 33.2926 23.406 34.4505 21.3461 36.5083C19.2861 38.566 18.1177 41.3572 18.0945 44.2756C18.0933 44.3008 18.0933 44.3211 18.0933 44.3403C18.093 46.5269 18.7381 48.6645 19.9471 50.4828C21.1561 52.301 22.8746 53.7182 24.8853 54.5552C26.896 55.3922 29.1086 55.6113 31.2433 55.1849C33.378 54.7585 35.3389 53.7057 36.878 52.1596C38.4171 50.6135 39.4653 48.6436 39.89 46.499C40.3147 44.3544 40.0969 42.1315 39.2641 40.1113C38.4312 38.091 37.0208 36.3643 35.2112 35.1494C33.4016 33.9346 31.274 33.2861 29.0975 33.2861H29.0958Z" fill="#E6E6E6"/>
<path d="M24.18 44.2442C25.5124 44.2442 26.5925 43.1591 26.5925 41.8205C26.5925 40.4819 25.5124 39.3968 24.18 39.3968C22.8477 39.3968 21.7676 40.4819 21.7676 41.8205C21.7676 43.1591 22.8477 44.2442 24.18 44.2442Z" fill="#3F3D56"/>
<path d="M31.7453 49.2891H19.9105C19.8956 49.2893 19.8808 49.2881 19.8662 49.2856L25.4637 39.5455C25.4978 39.4848 25.5474 39.4343 25.6073 39.3992C25.6672 39.3641 25.7354 39.3456 25.8047 39.3456C25.8741 39.3456 25.9422 39.3641 26.0022 39.3992C26.0621 39.4343 26.1117 39.4848 26.1458 39.5455L29.9022 46.0816L30.0821 46.3943L31.7453 49.2891Z" fill="#2A3042"/>
<path d="M38.3345 49.2892H28.0986L30.082 46.3947L30.2247 46.1861L32.8094 42.414C32.8551 42.3563 32.9124 42.3089 32.9775 42.2749C33.0426 42.2409 33.1142 42.221 33.1875 42.2166C33.2607 42.2122 33.3341 42.2234 33.4028 42.2494C33.4715 42.2753 33.534 42.3156 33.5862 42.3674C33.5996 42.3821 33.612 42.3977 33.6234 42.414L38.3345 49.2892Z" fill="#2A3042"/>
<path d="M40.7181 67.5047H17.4629C17.3487 67.5046 17.2392 67.459 17.1585 67.3779C17.0778 67.2968 17.0323 67.1868 17.0322 67.0721V61.2766C17.0324 61.1619 17.0778 61.052 17.1585 60.9709C17.2392 60.8898 17.3487 60.8441 17.4629 60.844H40.7181C40.8323 60.8441 40.9417 60.8898 41.0224 60.9709C41.1031 61.052 41.1486 61.1619 41.1487 61.2766V67.0722C41.1486 67.1869 41.1031 67.2969 41.0224 67.378C40.9417 67.4591 40.8323 67.5047 40.7181 67.5049V67.5047ZM17.4629 61.017C17.3943 61.0171 17.3286 61.0444 17.2802 61.0931C17.2317 61.1418 17.2045 61.2078 17.2044 61.2766V67.0722C17.2045 67.1411 17.2317 67.2071 17.2802 67.2557C17.3286 67.3044 17.3943 67.3318 17.4629 67.3318H40.7181C40.7866 67.3318 40.8523 67.3044 40.9008 67.2557C40.9492 67.2071 40.9765 67.1411 40.9765 67.0722V61.2766C40.9765 61.2078 40.9492 61.1418 40.9008 61.0931C40.8523 61.0444 40.7866 61.0171 40.7181 61.017H17.4629Z" fill="#E6E6E6"/>
<path d="M20.4777 65.9915C21.4766 65.9915 22.2864 65.178 22.2864 64.1744C22.2864 63.1708 21.4766 62.3572 20.4777 62.3572C19.4787 62.3572 18.6689 63.1708 18.6689 64.1744C18.6689 65.178 19.4787 65.9915 20.4777 65.9915Z" fill="#2A3042"/>
<path d="M24.655 62.9629C24.575 62.9629 24.4983 62.9948 24.4418 63.0516C24.3853 63.1084 24.3535 63.1854 24.3535 63.2657C24.3535 63.3461 24.3853 63.4231 24.4418 63.4799C24.4983 63.5367 24.575 63.5686 24.655 63.5686H38.8664C38.9065 63.5702 38.9466 63.5636 38.9842 63.5494C39.0217 63.5352 39.0561 63.5136 39.0853 63.4859C39.1144 63.4582 39.1378 63.4248 39.154 63.3879C39.1701 63.351 39.1788 63.3112 39.1795 63.2709C39.1801 63.2305 39.1727 63.1905 39.1578 63.153C39.1428 63.1156 39.1206 63.0815 39.0923 63.0528C39.0641 63.0242 39.0304 63.0014 38.9933 62.986C38.9562 62.9706 38.9164 62.9627 38.8763 62.963H24.655V62.9629Z" fill="#E6E6E6"/>
<path d="M24.655 64.78C24.575 64.78 24.4983 64.8119 24.4418 64.8687C24.3853 64.9255 24.3535 65.0026 24.3535 65.0829C24.3535 65.1632 24.3853 65.2402 24.4418 65.297C24.4983 65.3538 24.575 65.3858 24.655 65.3858H38.8664C38.9065 65.3873 38.9466 65.3808 38.9842 65.3666C39.0217 65.3524 39.0561 65.3308 39.0853 65.303C39.1144 65.2753 39.1378 65.242 39.154 65.2051C39.1701 65.1681 39.1788 65.1283 39.1795 65.088C39.1801 65.0477 39.1727 65.0076 39.1578 64.9702C39.1428 64.9327 39.1206 64.8987 39.0923 64.87C39.0641 64.8413 39.0304 64.8186 38.9933 64.8032C38.9562 64.7877 38.9164 64.7799 38.8763 64.7801H24.655V64.78Z" fill="#E6E6E6"/>
<path d="M40.7181 77.1964H17.4629C17.3487 77.1963 17.2392 77.1507 17.1585 77.0696C17.0778 76.9885 17.0323 76.8785 17.0322 76.7638V70.9683C17.0324 70.8536 17.0778 70.7437 17.1585 70.6626C17.2392 70.5815 17.3487 70.5359 17.4629 70.5357H40.7181C40.8323 70.5359 40.9417 70.5815 41.0224 70.6626C41.1031 70.7437 41.1486 70.8536 41.1487 70.9683V76.7639C41.1485 76.8786 41.1031 76.9885 41.0224 77.0696C40.9417 77.1507 40.8322 77.1963 40.7181 77.1964ZM17.4629 70.7087C17.3943 70.7088 17.3286 70.7362 17.2802 70.7848C17.2317 70.8335 17.2045 70.8995 17.2044 70.9683V76.7639C17.2045 76.8328 17.2317 76.8988 17.2802 76.9474C17.3286 76.9961 17.3943 77.0235 17.4629 77.0235H40.7181C40.7866 77.0235 40.8523 76.9961 40.9008 76.9474C40.9492 76.8988 40.9765 76.8328 40.9765 76.7639V70.9683C40.9765 70.8995 40.9492 70.8335 40.9008 70.7848C40.8523 70.7362 40.7866 70.7088 40.7181 70.7087H17.4629Z" fill="#E6E6E6"/>
<path d="M20.4777 75.6831C21.4766 75.6831 22.2864 74.8695 22.2864 73.866C22.2864 72.8624 21.4766 72.0488 20.4777 72.0488C19.4787 72.0488 18.6689 72.8624 18.6689 73.866C18.6689 74.8695 19.4787 75.6831 20.4777 75.6831Z" fill="#2A3042"/>
<path d="M24.655 72.6542C24.575 72.6542 24.4983 72.6861 24.4418 72.7429C24.3853 72.7997 24.3535 72.8767 24.3535 72.9571C24.3535 73.0374 24.3853 73.1144 24.4418 73.1712C24.4983 73.228 24.575 73.2599 24.655 73.2599H38.8664C38.9452 73.2595 39.0207 73.2281 39.0768 73.1724C39.1328 73.1167 39.1649 73.0411 39.1662 72.962C39.1675 72.8828 39.1378 72.8062 39.0837 72.7487C39.0295 72.6912 38.955 72.6573 38.8763 72.6543H24.655V72.6542Z" fill="#E6E6E6"/>
<path d="M24.655 74.4717C24.575 74.4717 24.4983 74.5036 24.4418 74.5604C24.3853 74.6172 24.3535 74.6943 24.3535 74.7746C24.3535 74.8549 24.3853 74.932 24.4418 74.9888C24.4983 75.0456 24.575 75.0775 24.655 75.0775H38.8664C38.9452 75.077 39.0207 75.0456 39.0768 74.9899C39.1328 74.9342 39.1649 74.8587 39.1662 74.7795C39.1675 74.7003 39.1378 74.6238 39.0837 74.5663C39.0295 74.5088 38.955 74.4749 38.8763 74.4718H24.655V74.4717Z" fill="#E6E6E6"/>
<path d="M40.7181 86.888H17.4629C17.3487 86.8879 17.2392 86.8423 17.1585 86.7612C17.0778 86.6801 17.0323 86.5701 17.0322 86.4554V80.6599C17.0324 80.5452 17.0778 80.4353 17.1585 80.3542C17.2392 80.2731 17.3487 80.2274 17.4629 80.2273H40.7181C40.8323 80.2274 40.9417 80.2731 41.0224 80.3542C41.1031 80.4353 41.1486 80.5452 41.1487 80.6599V86.4555C41.1486 86.5702 41.1031 86.6802 41.0224 86.7613C40.9417 86.8424 40.8323 86.888 40.7181 86.8882V86.888ZM17.4629 80.4003C17.3943 80.4004 17.3286 80.4277 17.2802 80.4764C17.2317 80.5251 17.2045 80.5911 17.2044 80.6599V86.4555C17.2045 86.5244 17.2317 86.5904 17.2802 86.639C17.3286 86.6877 17.3943 86.7151 17.4629 86.7151H40.7181C40.7866 86.7151 40.8523 86.6877 40.9008 86.639C40.9492 86.5904 40.9765 86.5244 40.9765 86.4555V80.6599C40.9765 80.5911 40.9492 80.5251 40.9008 80.4764C40.8523 80.4277 40.7866 80.4004 40.7181 80.4003H17.4629Z" fill="#E6E6E6"/>
<path d="M59.1421 78.4504C59.1449 78.1662 59.2287 71.4508 61.0608 68.9118L61.0879 68.8743L67.4727 69.7593L67.3299 71.1689C67.6107 71.4433 69.8197 73.7624 70.4576 79.2541L77.235 97.5403L74.0845 97.828L64.7578 77.8661L59.8225 99.5643H56.6997L59.1421 78.4504Z" fill="#2F2E41"/>
<path d="M60.313 69.1596L60.9371 65.8676C60.8149 65.7096 60.2735 64.9509 60.394 64.0614C60.4726 63.4811 60.8174 62.9722 61.419 62.5485L63.0369 58.7562L63.0588 58.7433C63.1677 58.6789 65.7434 57.1825 67.1477 58.5943C67.1827 58.6216 70.6401 61.3793 69.2521 65.0984L67.5382 70.2648L60.313 69.1596Z" fill="#CCCCCC"/>
<path d="M58.1412 73.6133C58.3095 73.5939 58.4715 73.5378 58.6159 73.4487C58.7602 73.3597 58.8834 73.2399 58.9767 73.0979C59.07 72.9558 59.1311 72.795 59.1559 72.6266C59.1806 72.4583 59.1683 72.2865 59.1198 72.1235L62.4606 69.7053L60.4607 68.9411L57.5949 71.3546C57.3283 71.4552 57.1077 71.6504 56.9746 71.9032C56.8415 72.1561 56.8051 72.4491 56.8723 72.7271C56.9396 73.0051 57.1057 73.2487 57.3395 73.4119C57.5733 73.5752 57.8585 73.6469 58.1412 73.6134V73.6133Z" fill="#FEB8B8"/>
<path d="M58.7554 69.7013L63.8557 65.6642L62.3395 60.4594C62.2681 60.213 62.2479 59.9544 62.2802 59.6998C62.3126 59.4452 62.3967 59.2 62.5275 58.9794C62.6485 58.7716 62.8115 58.5914 63.0059 58.4505C63.2003 58.3095 63.4218 58.2109 63.6563 58.161C64.5294 57.9754 65.322 58.4665 66.0116 59.6211L66.0169 59.6316C66.131 59.9118 68.7881 66.5106 66.7593 67.9218C64.7746 69.3021 60.1726 71.3116 60.1263 71.332L60.0724 71.3554L58.7554 69.7013Z" fill="#CCCCCC"/>
<path d="M65.5341 57.2218C67.2405 57.2218 68.6238 55.8321 68.6238 54.1177C68.6238 52.4033 67.2405 51.0135 65.5341 51.0135C63.8277 51.0135 62.4443 52.4033 62.4443 54.1177C62.4443 55.8321 63.8277 57.2218 65.5341 57.2218Z" fill="#FEB8B8"/>
<path d="M70.3779 53.0094C71.8874 53.0094 73.1112 51.7799 73.1112 50.2633C73.1112 48.7466 71.8874 47.5172 70.3779 47.5172C68.8683 47.5172 67.6445 48.7466 67.6445 50.2633C67.6445 51.7799 68.8683 53.0094 70.3779 53.0094Z" fill="#2F2E41"/>
<path d="M72.7354 52.5373C72.3816 52.794 71.9718 52.9619 71.5402 53.0269C71.1087 53.092 70.6679 53.0522 70.2547 52.9111C69.8415 52.7699 69.468 52.5314 69.1654 52.2155C68.8627 51.8996 68.6398 51.5155 68.5151 51.0954C68.5622 51.4721 68.6865 51.835 68.8802 52.161C69.0739 52.487 69.3328 52.7692 69.6405 52.9896C69.9482 53.21 70.2981 53.364 70.668 53.4417C71.038 53.5194 71.4199 53.5192 71.7898 53.441C72.1596 53.3629 72.5093 53.2086 72.8168 52.9878C73.1243 52.7671 73.3829 52.4846 73.5762 52.1584C73.7696 51.8321 73.8935 51.4691 73.9401 51.0923C73.9867 50.7155 73.9551 50.3331 73.8471 49.9692C73.9083 50.4581 73.8373 50.9545 73.6417 51.4064C73.4461 51.8582 73.133 52.2489 72.7354 52.5373Z" fill="#2F2E41"/>
<path d="M61.9482 52.54C62.4254 51.6818 62.608 51.3237 63.2233 50.8008C63.7674 50.3392 64.4366 50.2037 64.9764 50.641C65.6329 50.353 66.3657 50.2909 67.061 50.4644C67.7562 50.6378 68.375 51.0371 68.8212 51.6002C69.2674 52.1632 69.516 52.8586 69.5284 53.5782C69.5408 54.2978 69.3163 55.0013 68.8898 55.5796C68.4632 56.1578 67.8586 56.5784 67.1697 56.7759C66.4809 56.9734 65.7464 56.9368 65.0803 56.6718C64.4143 56.4069 63.854 55.9283 63.4865 55.3105C63.119 54.6927 62.9648 53.9703 63.048 53.2555C62.5787 53.1897 62.4175 52.6066 61.9482 52.54Z" fill="#2F2E41"/>
</g>
<defs>
<clipPath id="clip0_17_2662">
<rect width="84" height="81" fill="white"/>
</clipPath>
</defs>
</svg>
